<ttFont>
<head>
    <!-- Most of this table will be recalculated by the compiler -->
    <tableVersion value="1.0"/>
    <fontRevision value="1.29999"/>
    <checkSumAdjustment value="0x44d3de4"/>
    <magicNumber value="0x5f0f3cf5"/>
    <flags value="00000000 00000011"/>
    <unitsPerEm value="1000"/>
    <created value="Wed Aug  3 10:55:08 2016"/>
    <modified value="Fri Oct 14 21:01:48 2016"/>
    <xMin value="-200"/>
    <yMin value="-300"/>
    <xMax value="1160"/>
    <yMax value="983"/>
    <macStyle value="00000000 00000000"/>
    <lowestRecPPEM value="7"/>
    <fontDirectionHint value="2"/>
    <indexToLocFormat value="0"/>
    <glyphDataFormat value="0"/>
  </head>
    <TTGlyph name=".notdef" xMin="93" yMin="-230" xMax="410" yMax="770">
      <contour>
        <pt x="410" y="770" on="1"/>
        <pt x="410" y="-230" on="1"/>
        <pt x="93" y="-230" on="1"/>
        <pt x="93" y="770" on="1"/>
      </contour>
      <contour>
        <pt x="333" y="703" on="1"/>
        <pt x="168" y="703" on="1"/>
        <pt x="168" y="670" on="1"/>
        <pt x="233" y="670" on="1"/>
        <pt x="233" y="633" on="1"/>
        <pt x="167" y="633" on="1"/>
        <pt x="167" y="600" on="1"/>
        <pt x="333" y="600" on="1"/>
        <pt x="333" y="633" on="1"/>
        <pt x="267" y="633" on="1"/>
        <pt x="267" y="670" on="1"/>
        <pt x="333" y="670" on="1"/>
      </contour>
      <contour>
        <pt x="267" y="574" on="1"/>
        <pt x="167" y="574" on="1"/>
        <pt x="167" y="470" on="1"/>
        <pt x="333" y="470" on="1"/>
        <pt x="333" y="504" on="1"/>
        <pt x="267" y="504" on="1"/>
      </contour>
      <contour>
        <pt x="233" y="540" on="1"/>
        <pt x="233" y="504" on="1"/>
        <pt x="200" y="504" on="1"/>
        <pt x="200" y="540" on="1"/>
      </contour>
      <contour>
        <pt x="333" y="443" on="1"/>
        <pt x="167" y="443" on="1"/>
        <pt x="167" y="410" on="1"/>
        <pt x="233" y="410" on="1"/>
        <pt x="233" y="373" on="1"/>
        <pt x="167" y="373" on="1"/>
        <pt x="167" y="340" on="1"/>
        <pt x="267" y="340" on="1"/>
        <pt x="267" y="410" on="1"/>
        <pt x="333" y="410" on="1"/>
      </contour>
      <contour>
        <pt x="333" y="383" on="1"/>
        <pt x="300" y="383" on="1"/>
        <pt x="300" y="317" on="1"/>
        <pt x="167" y="317" on="1"/>
        <pt x="167" y="283" on="1"/>
        <pt x="333" y="283" on="1"/>
      </contour>
      <contour>
        <pt x="333" y="261" on="1"/>
        <pt x="233" y="261" on="1"/>
        <pt x="233" y="205" on="1"/>
        <pt x="267" y="205" on="1"/>
        <pt x="267" y="228" on="1"/>
        <pt x="300" y="228" on="1"/>
        <pt x="300" y="181" on="1"/>
        <pt x="200" y="181" on="1"/>
        <pt x="200" y="261" on="1"/>
        <pt x="167" y="261" on="1"/>
        <pt x="167" y="148" on="1"/>
        <pt x="333" y="148" on="1"/>
      </contour>
      <contour>
        <pt x="333" y="88" on="1"/>
        <pt x="167" y="88" on="1"/>
        <pt x="167" y="-25" on="1"/>
        <pt x="333" y="-25" on="1"/>
      </contour>
      <contour>
        <pt x="300" y="55" on="1"/>
        <pt x="300" y="8" on="1"/>
        <pt x="200" y="8" on="1"/>
        <pt x="200" y="55" on="1"/>
      </contour>
      <contour>
        <pt x="333" y="-48" on="1"/>
        <pt x="167" y="-48" on="1"/>
        <pt x="167" y="-81" on="1"/>
        <pt x="237" y="-81" on="1"/>
        <pt x="167" y="-128" on="1"/>
        <pt x="167" y="-161" on="1"/>
        <pt x="333" y="-161" on="1"/>
        <pt x="333" y="-128" on="1"/>
        <pt x="231" y="-128" on="1"/>
        <pt x="301" y="-81" on="1"/>
        <pt x="333" y="-81" on="1"/>
      </contour>
    </TTGlyph>
    <TTGlyph name="A" xMin="5" yMin="0" xMax="720" yMax="700">
      <contour>
        <pt x="5" y="0" on="1"/>
        <pt x="5" y="60" on="1"/>
        <pt x="87" y="79" on="1"/>
        <pt x="315" y="695" on="1"/>
        <pt x="415" y="700" on="1"/>
        <pt x="637" y="79" on="1"/>
        <pt x="720" y="60" on="1"/>
        <pt x="720" y="0" on="1"/>
        <pt x="430" y="0" on="1"/>
        <pt x="430" y="60" on="1"/>
        <pt x="523" y="79" on="1"/>
        <pt x="485" y="190" on="1"/>
        <pt x="225" y="190" on="1"/>
        <pt x="186" y="79" on="1"/>
        <pt x="280" y="60" on="1"/>
        <pt x="280" y="0" on="1"/>
      </contour>
      <contour>
        <pt x="252" y="270" on="1"/>
        <pt x="458" y="270" on="1"/>
        <pt x="357" y="571" on="1"/>
      </contour>
    </TTGlyph>
    <TTGlyph name="AE" xMin="5" yMin="0" xMax="899" yMax="700">
      <contour>
        <pt x="5" y="0" on="1"/>
        <pt x="5" y="60" on="1"/>
        <pt x="94" y="80" on="1"/>
        <pt x="371" y="620" on="1"/>
        <pt x="286" y="640" on="1"/>
        <pt x="286" y="695" on="1"/>
        <pt x="412" y="700" on="1"/>
        <pt x="889" y="700" on="1"/>
        <pt x="889" y="530" on="1"/>
        <pt x="824" y="530" on="1"/>
        <pt x="799" y="620" on="1"/>
        <pt x="585" y="620" on="1"/>
        <pt x="585" y="405" on="1"/>
        <pt x="814" y="405" on="1"/>
        <pt x="814" y="325" on="1"/>
        <pt x="585" y="325" on="1"/>
        <pt x="585" y="80" on="1"/>
        <pt x="814" y="80" on="1"/>
        <pt x="834" y="180" on="1"/>
        <pt x="899" y="180" on="1"/>
        <pt x="899" y="0" on="1"/>
        <pt x="390" y="0" on="1"/>
        <pt x="390" y="60" on="1"/>
        <pt x="480" y="80" on="1"/>
        <pt x="480" y="205" on="1"/>
        <pt x="260" y="205" on="1"/>
        <pt x="197" y="77" on="1"/>
        <pt x="275" y="60" on="1"/>
        <pt x="275" y="0" on="1"/>
      </contour>
      <contour>
        <pt x="300" y="285" on="1"/>
        <pt x="480" y="285" on="1"/>
        <pt x="480" y="620" on="1"/>
        <pt x="465" y="620" on="1"/>
      </contour>
    </TTGlyph>
    <TTGlyph name="AEacute" xMin="5" yMin="0" xMax="899" yMax="933">
      <component glyphName="AE" x="0" y="0" flags="0x0"/>
      <component glyphName="acute.Cup" x="482" y="0" flags="0x0"/>
    </TTGlyph>
    <TTGlyph name="Aacute" xMin="5" yMin="0" xMax="720" yMax="933">
      <component glyphName="A" x="0" y="0" flags="0x0"/>
      <component glyphName="acute.Cup" x="310" y="0" flags="0x0"/>
    </TTGlyph>
    <TTGlyph name="Abreve" xMin="5" yMin="0" xMax="720" yMax="910">
      <component glyphName="A" x="0" y="0" flags="0x0"/>
      <component glyphName="breve" x="145" y="145" flags="0x4"/>
    </TTGlyph>
    <TTGlyph name="Acircumflex" xMin="5" yMin="0" xMax="720" yMax="920">
      <contour>
        <pt x="225" y="750" on="1"/>
        <pt x="185" y="795" on="1"/>
        <pt x="330" y="915" on="1"/>
        <pt x="390" y="920" on="1"/>
        <pt x="535" y="795" on="1"/>
        <pt x="495" y="750" on="1"/>
        <pt x="362" y="843" on="1"/>
      </contour>
      <contour>
        <pt x="5" y="0" on="1"/>
        <pt x="5" y="60" on="1"/>
        <pt x="87" y="79" on="1"/>
        <pt x="315" y="695" on="1"/>
        <pt x="415" y="700" on="1"/>
        <pt x="637" y="79" on="1"/>
        <pt x="720" y="60" on="1"/>
        <pt x="720" y="0" on="1"/>
        <pt x="430" y="0" on="1"/>
        <pt x="430" y="60" on="1"/>
        <pt x="523" y="79" on="1"/>
        <pt x="485" y="190" on="1"/>
        <pt x="225" y="190" on="1"/>
        <pt x="186" y="79" on="1"/>
        <pt x="280" y="60" on="1"/>
        <pt x="280" y="0" on="1"/>
      </contour>
      <contour>
        <pt x="252" y="270" on="1"/>
        <pt x="458" y="270" on="1"/>
        <pt x="357" y="571" on="1"/>
      </contour>
    </TTGlyph>
    <TTGlyph name="Adieresis" xMin="5" yMin="0" xMax="720" yMax="885">
      <component glyphName="A" x="0" y="0" flags="0x0"/>
      <component glyphName="dieresis" x="115" y="125" flags="0x4"/>
    </TTGlyph>
    <TTGlyph name="Agrave" xMin="5" yMin="0" xMax="720" yMax="935">
      <component glyphName="A" x="0" y="0" flags="0x0"/>
      <component glyphName="grave.Cup" x="245" y="0" flags="0x0"/>
    </TTGlyph>
    <TTGlyph name="Amacron" xMin="5" yMin="0" xMax="720" yMax="865">
      <component glyphName="A" x="0" y="0" flags="0x0"/>
      <component glyphName="macron" x="230" y="130" flags="0x4"/>
    </TTGlyph>
    <TTGlyph name="Aogonek" xMin="5" yMin="-220" xMax="720" yMax="700">
      <contour>
        <pt x="527" y="-220" on="0"/>
        <pt x="470" y="-169" on="0"/>
        <pt x="470" y="-125" on="1"/>
        <pt x="470" y="-80" on="0"/>
        <pt x="542" y="-17" on="0"/>
        <pt x="580" y="0" on="1"/>
        <pt x="430" y="0" on="1"/>
        <pt x="430" y="60" on="1"/>
        <pt x="523" y="79" on="1"/>
        <pt x="485" y="190" on="1"/>
        <pt x="225" y="190" on="1"/>
        <pt x="186" y="79" on="1"/>
        <pt x="280" y="60" on="1"/>
        <pt x="280" y="0" on="1"/>
        <pt x="5" y="0" on="1"/>
        <pt x="5" y="60" on="1"/>
        <pt x="87" y="79" on="1"/>
        <pt x="315" y="695" on="1"/>
        <pt x="415" y="700" on="1"/>
        <pt x="638" y="75" on="1"/>
        <pt x="720" y="59" on="1"/>
        <pt x="720" y="0" on="1"/>
        <pt x="657" y="-14" on="0"/>
        <pt x="550" y="-76" on="0"/>
        <pt x="550" y="-115" on="1"/>
        <pt x="550" y="-137" on="0"/>
        <pt x="575" y="-160" on="0"/>
        <pt x="595" y="-160" on="1"/>
        <pt x="608" y="-160" on="0"/>
        <pt x="636" y="-154" on="0"/>
        <pt x="640" y="-153" on="1"/>
        <pt x="650" y="-200" on="1"/>
        <pt x="647" y="-202" on="0"/>
        <pt x="623" y="-211" on="0"/>
        <pt x="588" y="-220" on="0"/>
        <pt x="570" y="-220" on="1"/>
      </contour>
      <contour>
        <pt x="252" y="270" on="1"/>
        <pt x="458" y="270" on="1"/>
        <pt x="357" y="571" on="1"/>
      </contour>
    </TTGlyph>
    <TTGlyph name="Aring" xMin="5" yMin="0" xMax="720" yMax="910">
      <contour>
        <pt x="5" y="60" on="1"/>
        <pt x="87" y="79" on="1"/>
        <pt x="315" y="695" on="1"/>
        <pt x="286" y="708" on="0"/>
        <pt x="250" y="759" on="0"/>
        <pt x="250" y="795" on="1"/>
        <pt x="250" y="829" on="0"/>
        <pt x="283" y="882" on="0"/>
        <pt x="336" y="910" on="0"/>
        <pt x="365" y="910" on="1"/>
        <pt x="411" y="910" on="0"/>
        <pt x="480" y="851" on="0"/>
        <pt x="480" y="800" on="1"/>
        <pt x="480" y="764" on="0"/>
        <pt x="445" y="710" on="0"/>
        <pt x="416" y="697" on="1"/>
        <pt x="637" y="79" on="1"/>
        <pt x="720" y="60" on="1"/>
        <pt x="720" y="0" on="1"/>
        <pt x="430" y="0" on="1"/>
        <pt x="430" y="60" on="1"/>
        <pt x="523" y="79" on="1"/>
        <pt x="485" y="190" on="1"/>
        <pt x="225" y="190" on="1"/>
        <pt x="186" y="79" on="1"/>
        <pt x="280" y="60" on="1"/>
        <pt x="280" y="0" on="1"/>
        <pt x="5" y="0" on="1"/>
      </contour>
      <contour>
        <pt x="389" y="735" on="0"/>
        <pt x="420" y="769" on="0"/>
        <pt x="420" y="798" on="1"/>
        <pt x="420" y="828" on="0"/>
        <pt x="391" y="860" on="0"/>
        <pt x="365" y="860" on="1"/>
        <pt x="341" y="860" on="0"/>
        <pt x="310" y="826" on="0"/>
        <pt x="310" y="797" on="1"/>
        <pt x="310" y="767" on="0"/>
        <pt x="339" y="735" on="0"/>
        <pt x="365" y="735" on="1"/>
      </contour>
      <contour>
        <pt x="252" y="270" on="1"/>
        <pt x="458" y="270" on="1"/>
        <pt x="357" y="571" on="1"/>
      </contour>
    </TTGlyph>
    <TTGlyph name="Aringacute" xMin="5" yMin="0" xMax="722" yMax="910">
      <contour>
        <pt x="7" y="60" on="1"/>
        <pt x="89" y="79" on="1"/>
        <pt x="317" y="695" on="1"/>
        <pt x="288" y="708" on="0"/>
        <pt x="252" y="759" on="0"/>
        <pt x="252" y="795" on="1"/>
        <pt x="252" y="829" on="0"/>
        <pt x="285" y="882" on="0"/>
        <pt x="338" y="910" on="0"/>
        <pt x="367" y="910" on="1"/>
        <pt x="413" y="910" on="0"/>
        <pt x="482" y="851" on="0"/>
        <pt x="482" y="800" on="1"/>
        <pt x="482" y="764" on="0"/>
        <pt x="447" y="710" on="0"/>
        <pt x="418" y="697" on="1"/>
        <pt x="639" y="79" on="1"/>
        <pt x="722" y="60" on="1"/>
        <pt x="722" y="0" on="1"/>
        <pt x="432" y="0" on="1"/>
        <pt x="432" y="60" on="1"/>
        <pt x="525" y="79" on="1"/>
        <pt x="487" y="190" on="1"/>
        <pt x="227" y="190" on="1"/>
        <pt x="188" y="79" on="1"/>
        <pt x="282" y="60" on="1"/>
        <pt x="282" y="0" on="1"/>
        <pt x="7" y="0" on="1"/>
      </contour>
      <contour>
        <pt x="391" y="735" on="0"/>
        <pt x="422" y="769" on="0"/>
        <pt x="422" y="798" on="1"/>
        <pt x="422" y="828" on="0"/>
        <pt x="393" y="860" on="0"/>
        <pt x="367" y="860" on="1"/>
        <pt x="343" y="860" on="0"/>
        <pt x="312" y="826" on="0"/>
        <pt x="312" y="797" on="1"/>
        <pt x="312" y="767" on="0"/>
        <pt x="341" y="735" on="0"/>
        <pt x="367" y="735" on="1"/>
      </contour>
      <contour>
        <pt x="254" y="270" on="1"/>
        <pt x="460" y="270" on="1"/>
        <pt x="359" y="571" on="1"/>
      </contour>
      <contour>
        <pt x="29" y="86" on="1"/>
        <pt x="9" y="74" on="1"/>
        <pt x="5" y="79" on="1"/>
        <pt x="23" y="93" on="1"/>
      </contour>
    </TTGlyph>
    <TTGlyph name="Atilde" xMin="5" yMin="0" xMax="720" yMax="890">
      <contour>
        <pt x="203" y="799" on="0"/>
        <pt x="233" y="848" on="0"/>
        <pt x="282" y="890" on="0"/>
        <pt x="313" y="890" on="1"/>
        <pt x="337" y="890" on="0"/>
        <pt x="380" y="878" on="0"/>
        <pt x="407" y="866" on="1"/>
        <pt x="436" y="854" on="0"/>
        <pt x="469" y="844" on="0"/>
        <pt x="488" y="844" on="1"/>
        <pt x="506" y="844" on="0"/>
        <pt x="535" y="863" on="0"/>
        <pt x="551" y="883" on="0"/>
        <pt x="553" y="886" on="1"/>
        <pt x="588" y="856" on="1"/>
        <pt x="588" y="853" on="0"/>
        <pt x="561" y="806" on="0"/>
        <pt x="514" y="766" on="0"/>
        <pt x="483" y="766" on="1"/>
        <pt x="459" y="766" on="0"/>
        <pt x="418" y="778" on="0"/>
        <pt x="389" y="789" on="1"/>
        <pt x="363" y="800" on="0"/>
        <pt x="327" y="810" on="0"/>
        <pt x="308" y="810" on="1"/>
        <pt x="290" y="810" on="0"/>
        <pt x="259" y="790" on="0"/>
        <pt x="240" y="769" on="0"/>
        <pt x="238" y="766" on="1"/>
        <pt x="203" y="796" on="1"/>
      </contour>
      <contour>
        <pt x="5" y="0" on="1"/>
        <pt x="5" y="60" on="1"/>
        <pt x="87" y="79" on="1"/>
        <pt x="315" y="695" on="1"/>
        <pt x="415" y="700" on="1"/>
        <pt x="637" y="79" on="1"/>
        <pt x="720" y="60" on="1"/>
        <pt x="720" y="0" on="1"/>
        <pt x="430" y="0" on="1"/>
        <pt x="430" y="60" on="1"/>
        <pt x="523" y="79" on="1"/>
        <pt x="485" y="190" on="1"/>
        <pt x="225" y="190" on="1"/>
        <pt x="186" y="79" on="1"/>
        <pt x="280" y="60" on="1"/>
        <pt x="280" y="0" on="1"/>
      </contour>
      <contour>
        <pt x="252" y="270" on="1"/>
        <pt x="458" y="270" on="1"/>
        <pt x="357" y="571" on="1"/>
      </contour>
    </TTGlyph>
    <TTGlyph name="B" xMin="37" yMin="0" xMax="580" yMax="700">
      <contour>
        <pt x="37" y="60" on="1"/>
        <pt x="122" y="80" on="1"/>
        <pt x="122" y="620" on="1"/>
        <pt x="37" y="640" on="1"/>
        <pt x="37" y="695" on="1"/>
        <pt x="225" y="700" on="1"/>
        <pt x="340" y="700" on="1"/>
        <pt x="438" y="700" on="0"/>
        <pt x="555" y="612" on="0"/>
        <pt x="555" y="525" on="1"/>
        <pt x="555" y="396" on="0"/>
        <pt x="425" y="363" on="1"/>
        <pt x="502" y="345" on="0"/>
        <pt x="580" y="261" on="0"/>
        <pt x="580" y="200" on="1"/>
        <pt x="580" y="97" on="0"/>
        <pt x="451" y="0" on="0"/>
        <pt x="325" y="0" on="1"/>
        <pt x="37" y="0" on="1"/>
      </contour>
      <contour>
        <pt x="300" y="400" on="1"/>
        <pt x="370" y="400" on="0"/>
        <pt x="450" y="457" on="0"/>
        <pt x="450" y="515" on="1"/>
        <pt x="450" y="566" on="0"/>
        <pt x="386" y="620" on="0"/>
        <pt x="335" y="620" on="1"/>
        <pt x="225" y="620" on="1"/>
        <pt x="225" y="400" on="1"/>
      </contour>
      <contour>
        <pt x="330" y="80" on="1"/>
        <pt x="401" y="80" on="0"/>
        <pt x="475" y="139" on="0"/>
        <pt x="475" y="195" on="1"/>
        <pt x="475" y="267" on="0"/>
        <pt x="387" y="325" on="0"/>
        <pt x="300" y="325" on="1"/>
        <pt x="225" y="325" on="1"/>
        <pt x="225" y="80" on="1"/>
      </contour>
    </TTGlyph>
    <TTGlyph name="C" xMin="60" yMin="-10" xMax="630" yMax="710">
      <contour>
        <pt x="509" y="607" on="0"/>
        <pt x="475" y="616" on="0"/>
        <pt x="418" y="625" on="0"/>
        <pt x="385" y="625" on="1"/>
        <pt x="284" y="625" on="0"/>
        <pt x="175" y="478" on="0"/>
        <pt x="175" y="340" on="1"/>
        <pt x="175" y="210" on="0"/>
        <pt x="292" y="80" on="0"/>
        <pt x="390" y="80" on="1"/>
        <pt x="437" y="80" on="0"/>
        <pt x="526" y="116" on="0"/>
        <pt x="590" y="158" on="0"/>
        <pt x="590" y="160" on="1"/>
        <pt x="630" y="95" on="1"/>
        <pt x="630" y="92" on="0"/>
        <pt x="558" y="37" on="0"/>
        <pt x="447" y="-10" on="0"/>
        <pt x="380" y="-10" on="1"/>
        <pt x="228" y="-10" on="0"/>
        <pt x="60" y="168" on="0"/>
        <pt x="60" y="335" on="1"/>
        <pt x="60" y="449" on="0"/>
        <pt x="142" y="618" on="0"/>
        <pt x="293" y="710" on="0"/>
        <pt x="395" y="710" on="1"/>
        <pt x="444" y="710" on="0"/>
        <pt x="544" y="688" on="0"/>
        <pt x="620" y="661" on="0"/>
        <pt x="620" y="660" on="1"/>
        <pt x="615" y="490" on="1"/>
        <pt x="540" y="490" on="1"/>
        <pt x="513" y="605" on="1"/>
      </contour>
    </TTGlyph>
    <TTGlyph name="Cacute" xMin="60" yMin="-10" xMax="630" yMax="933">
      <component glyphName="C" x="0" y="0" flags="0x0"/>
      <component glyphName="acute.Cup" x="270" y="0" flags="0x0"/>
    </TTGlyph>
    <TTGlyph name="Ccaron" xMin="60" yMin="-10" xMax="630" yMax="920">
      <component glyphName="C" x="0" y="0" flags="0x0"/>
      <component glyphName="caron.Cup" x="189" y="0" flags="0x0"/>
    </TTGlyph>
    <TTGlyph name="Ccedilla" xMin="60" yMin="-220" xMax="630" yMax="710">
      <contour>
        <pt x="371" y="-220" on="0"/>
        <pt x="319" y="-206" on="0"/>
        <pt x="287" y="-191" on="0"/>
        <pt x="283" y="-189" on="1"/>
        <pt x="309" y="-147" on="1"/>
        <pt x="313" y="-149" on="0"/>
        <pt x="339" y="-160" on="0"/>
        <pt x="377" y="-170" on="0"/>
        <pt x="395" y="-170" on="1"/>
        <pt x="414" y="-170" on="0"/>
        <pt x="440" y="-148" on="0"/>
        <pt x="440" y="-130" on="1"/>
        <pt x="440" y="-107" on="0"/>
        <pt x="397" y="-80" on="0"/>
        <pt x="360" y="-80" on="1"/>
        <pt x="360" y="-9" on="1"/>
        <pt x="217" y="-3" on="0"/>
        <pt x="60" y="173" on="0"/>
        <pt x="60" y="335" on="1"/>
        <pt x="60" y="449" on="0"/>
        <pt x="142" y="618" on="0"/>
        <pt x="293" y="710" on="0"/>
        <pt x="395" y="710" on="1"/>
        <pt x="444" y="710" on="0"/>
        <pt x="544" y="688" on="0"/>
        <pt x="620" y="661" on="0"/>
        <pt x="620" y="660" on="1"/>
        <pt x="615" y="491" on="1"/>
        <pt x="540" y="491" on="1"/>
        <pt x="513" y="605" on="1"/>
        <pt x="509" y="607" on="0"/>
        <pt x="475" y="616" on="0"/>
        <pt x="418" y="625" on="0"/>
        <pt x="385" y="625" on="1"/>
        <pt x="284" y="625" on="0"/>
        <pt x="175" y="478" on="0"/>
        <pt x="175" y="340" on="1"/>
        <pt x="175" y="210" on="0"/>
        <pt x="292" y="80" on="0"/>
        <pt x="390" y="80" on="1"/>
        <pt x="437" y="80" on="0"/>
        <pt x="526" y="116" on="0"/>
        <pt x="590" y="158" on="0"/>
        <pt x="590" y="160" on="1"/>
        <pt x="630" y="95" on="1"/>
        <pt x="630" y="93" on="0"/>
        <pt x="571" y="46" on="0"/>
        <pt x="480" y="1" on="0"/>
        <pt x="425" y="-7" on="1"/>
        <pt x="425" y="-44" on="1"/>
        <pt x="465" y="-51" on="0"/>
        <pt x="510" y="-96" on="0"/>
        <pt x="510" y="-133" on="1"/>
        <pt x="510" y="-171" on="0"/>
        <pt x="446" y="-220" on="0"/>
        <pt x="400" y="-220" on="1"/>
      </contour>
    </TTGlyph>
    <TTGlyph name="Ccircumflex" xMin="60" yMin="-10" xMax="630" yMax="920">
      <component glyphName="C" x="0" y="0" flags="0x0"/>
      <component glyphName="circumflex" x="120" y="100" flags="0x4"/>
    </TTGlyph>
    <TTGlyph name="Cdotaccent" xMin="60" yMin="-10" xMax="630" yMax="885">
      <component glyphName="C" x="0" y="0" flags="0x0"/>
      <component glyphName="dotaccent" x="243" y="125" flags="0x4"/>
    </TTGlyph>
    <TTGlyph name="D" xMin="45" yMin="0" xMax="675" yMax="700">
      <contour>
        <pt x="45" y="60" on="1"/>
        <pt x="130" y="80" on="1"/>
        <pt x="130" y="620" on="1"/>
        <pt x="45" y="640" on="1"/>
        <pt x="45" y="695" on="1"/>
        <pt x="235" y="700" on="1"/>
        <pt x="360" y="700" on="1"/>
        <pt x="508" y="700" on="0"/>
        <pt x="675" y="523" on="0"/>
        <pt x="675" y="360" on="1"/>
        <pt x="675" y="251" on="0"/>
        <pt x="594" y="88" on="0"/>
        <pt x="444" y="0" on="0"/>
        <pt x="345" y="0" on="1"/>
        <pt x="45" y="0" on="1"/>
      </contour>
      <contour>
        <pt x="350" y="80" on="1"/>
        <pt x="448" y="80" on="0"/>
        <pt x="560" y="217" on="0"/>
        <pt x="560" y="355" on="1"/>
        <pt x="560" y="490" on="0"/>
        <pt x="452" y="620" on="0"/>
        <pt x="355" y="620" on="1"/>
        <pt x="235" y="620" on="1"/>
        <pt x="235" y="80" on="1"/>
      </contour>
    </TTGlyph>
    <TTGlyph name="Dcaron" xMin="45" yMin="0" xMax="675" yMax="920">
      <component glyphName="D" x="0" y="0" flags="0x0"/>
      <component glyphName="caron.Cup" x="193" y="0" flags="0x0"/>
    </TTGlyph>
    <TTGlyph name="Dcroat" xMin="45" yMin="0" xMax="678" yMax="700">
      <component glyphName="Eth" x="0" y="0" flags="0x0"/>
    </TTGlyph>
    <TTGlyph name="E" xMin="50" yMin="0" xMax="555" yMax="700">
      <contour>
        <pt x="50" y="0" on="1"/>
        <pt x="50" y="60" on="1"/>
        <pt x="135" y="80" on="1"/>
        <pt x="135" y="620" on="1"/>
        <pt x="50" y="640" on="1"/>
        <pt x="50" y="695" on="1"/>
        <pt x="240" y="700" on="1"/>
        <pt x="545" y="700" on="1"/>
        <pt x="545" y="530" on="1"/>
        <pt x="480" y="530" on="1"/>
        <pt x="455" y="620" on="1"/>
        <pt x="240" y="620" on="1"/>
        <pt x="240" y="405" on="1"/>
        <pt x="470" y="405" on="1"/>
        <pt x="470" y="325" on="1"/>
        <pt x="240" y="325" on="1"/>
        <pt x="240" y="80" on="1"/>
        <pt x="470" y="80" on="1"/>
        <pt x="490" y="180" on="1"/>
        <pt x="555" y="180" on="1"/>
        <pt x="555" y="0" on="1"/>
      </contour>
    </TTGlyph>
    <TTGlyph name="Eacute" xMin="50" yMin="0" xMax="555" yMax="933">
      <component glyphName="E" x="0" y="0" flags="0x0"/>
      <component glyphName="acute.Cup" x="240" y="0" flags="0x0"/>
    </TTGlyph>
    <TTGlyph name="Ebreve" xMin="50" yMin="0" xMax="555" yMax="910">
      <component glyphName="E" x="0" y="0" flags="0x0"/>
      <component glyphName="breve" x="110" y="145" flags="0x4"/>
    </TTGlyph>
    <TTGlyph name="Ecaron" xMin="50" yMin="0" xMax="555" yMax="920">
      <component glyphName="E" x="0" y="0" flags="0x0"/>
      <component glyphName="caron.Cup" x="158" y="0" flags="0x0"/>
    </TTGlyph>
    <TTGlyph name="Ecircumflex" xMin="50" yMin="0" xMax="555" yMax="920">
      <component glyphName="E" x="0" y="0" flags="0x0"/>
      <component glyphName="circumflex" x="50" y="100" flags="0x4"/>
    </TTGlyph>
    <TTGlyph name="Edieresis" xMin="50" yMin="0" xMax="555" yMax="885">
      <component glyphName="E" x="0" y="0" flags="0x0"/>
      <component glyphName="dieresis" x="60" y="125" flags="0x4"/>
    </TTGlyph>
    <TTGlyph name="Edotaccent" xMin="50" yMin="0" xMax="555" yMax="885">
      <component glyphName="E" x="0" y="0" flags="0x0"/>
      <component glyphName="dotaccent" x="170" y="125" flags="0x4"/>
    </TTGlyph>
    <TTGlyph name="Egrave" xMin="50" yMin="0" xMax="555" yMax="935">
      <component glyphName="E" x="0" y="0" flags="0x0"/>
      <component glyphName="grave.Cup" x="175" y="0" flags="0x0"/>
    </TTGlyph>
    <TTGlyph name="Emacron" xMin="50" yMin="0" xMax="555" yMax="865">
      <component glyphName="E" x="0" y="0" flags="0x0"/>
      <component glyphName="macron" x="195" y="130" flags="0x4"/>
    </TTGlyph>
    <TTGlyph name="Eng" xMin="40" yMin="-150" xMax="755" yMax="700">
      <contour>
        <pt x="463" y="-150" on="0"/>
        <pt x="421" y="-146" on="0"/>
        <pt x="415" y="-145" on="1"/>
        <pt x="424" y="-70" on="1"/>
        <pt x="474" y="-70" on="1"/>
        <pt x="513" y="-70" on="0"/>
        <pt x="555" y="-40" on="0"/>
        <pt x="561" y="-10" on="1"/>
        <pt x="215" y="551" on="1"/>
        <pt x="215" y="80" on="1"/>
        <pt x="310" y="60" on="1"/>
        <pt x="310" y="0" on="1"/>
        <pt x="40" y="0" on="1"/>
        <pt x="40" y="60" on="1"/>
        <pt x="125" y="80" on="1"/>
        <pt x="125" y="620" on="1"/>
        <pt x="40" y="640" on="1"/>
        <pt x="40" y="695" on="1"/>
        <pt x="250" y="700" on="1"/>
        <pt x="580" y="141" on="1"/>
        <pt x="580" y="620" on="1"/>
        <pt x="495" y="640" on="1"/>
        <pt x="495" y="695" on="1"/>
        <pt x="755" y="700" on="1"/>
        <pt x="755" y="640" on="1"/>
        <pt x="670" y="620" on="1"/>
        <pt x="670" y="34" on="1"/>
        <pt x="670" y="-49" on="0"/>
        <pt x="568" y="-150" on="0"/>
        <pt x="479" y="-150" on="1"/>
      </contour>
    </TTGlyph>
    <TTGlyph name="Eogonek" xMin="50" yMin="-220" xMax="555" yMax="700">
      <contour>
        <pt x="427" y="-220" on="0"/>
        <pt x="370" y="-169" on="0"/>
        <pt x="370" y="-125" on="1"/>
        <pt x="370" y="-89" on="0"/>
        <pt x="412" y="-34" on="0"/>
        <pt x="465" y="2" on="0"/>
        <pt x="465" y="0" on="1"/>
        <pt x="50" y="0" on="1"/>
        <pt x="50" y="60" on="1"/>
        <pt x="135" y="80" on="1"/>
        <pt x="135" y="620" on="1"/>
        <pt x="50" y="640" on="1"/>
        <pt x="50" y="695" on="1"/>
        <pt x="240" y="700" on="1"/>
        <pt x="545" y="700" on="1"/>
        <pt x="545" y="530" on="1"/>
        <pt x="480" y="530" on="1"/>
        <pt x="455" y="620" on="1"/>
        <pt x="240" y="620" on="1"/>
        <pt x="240" y="405" on="1"/>
        <pt x="470" y="405" on="1"/>
        <pt x="470" y="325" on="1"/>
        <pt x="240" y="325" on="1"/>
        <pt x="240" y="80" on="1"/>
        <pt x="470" y="80" on="1"/>
        <pt x="490" y="180" on="1"/>
        <pt x="555" y="180" on="1"/>
        <pt x="555" y="0" on="1"/>
        <pt x="555" y="2" on="0"/>
        <pt x="497" y="-37" on="0"/>
        <pt x="450" y="-88" on="0"/>
        <pt x="450" y="-115" on="1"/>
        <pt x="450" y="-137" on="0"/>
        <pt x="475" y="-160" on="0"/>
        <pt x="495" y="-160" on="1"/>
        <pt x="508" y="-160" on="0"/>
        <pt x="536" y="-154" on="0"/>
        <pt x="540" y="-153" on="1"/>
        <pt x="550" y="-200" on="1"/>
        <pt x="547" y="-202" on="0"/>
        <pt x="523" y="-211" on="0"/>
        <pt x="488" y="-220" on="0"/>
        <pt x="470" y="-220" on="1"/>
      </contour>
    </TTGlyph>
    <TTGlyph name="Eth" xMin="45" yMin="0" xMax="678" yMax="700">
      <contour>
        <pt x="45" y="60" on="1"/>
        <pt x="130" y="80" on="1"/>
        <pt x="130" y="330" on="1"/>
        <pt x="45" y="330" on="1"/>
        <pt x="45" y="409" on="1"/>
        <pt x="130" y="409" on="1"/>
        <pt x="130" y="620" on="1"/>
        <pt x="45" y="640" on="1"/>
        <pt x="45" y="695" on="1"/>
        <pt x="235" y="700" on="1"/>
        <pt x="363" y="700" on="1"/>
        <pt x="511" y="700" on="0"/>
        <pt x="678" y="523" on="0"/>
        <pt x="678" y="360" on="1"/>
        <pt x="678" y="251" on="0"/>
        <pt x="597" y="88" on="0"/>
        <pt x="447" y="0" on="0"/>
        <pt x="348" y="0" on="1"/>
        <pt x="45" y="0" on="1"/>
      </contour>
      <contour>
        <pt x="353" y="80" on="1"/>
        <pt x="451" y="80" on="0"/>
        <pt x="563" y="217" on="0"/>
        <pt x="563" y="355" on="1"/>
        <pt x="563" y="490" on="0"/>
        <pt x="455" y="620" on="0"/>
        <pt x="358" y="620" on="1"/>
        <pt x="234" y="620" on="1"/>
        <pt x="234" y="409" on="1"/>
        <pt x="390" y="409" on="1"/>
        <pt x="390" y="330" on="1"/>
        <pt x="234" y="330" on="1"/>
        <pt x="234" y="80" on="1"/>
      </contour>
    </TTGlyph>
    <TTGlyph name="Euro" xMin="15" yMin="-10" xMax="588" yMax="710">
      <contour>
        <pt x="15" y="450" on="1"/>
        <pt x="86" y="450" on="1"/>
        <pt x="103" y="549" on="0"/>
        <pt x="232" y="710" on="0"/>
        <pt x="370" y="710" on="1"/>
        <pt x="419" y="710" on="0"/>
        <pt x="505" y="692" on="0"/>
        <pt x="563" y="671" on="0"/>
        <pt x="563" y="670" on="1"/>
        <pt x="558" y="531" on="1"/>
        <pt x="493" y="531" on="1"/>
        <pt x="480" y="611" on="1"/>
        <pt x="476" y="613" on="0"/>
        <pt x="444" y="622" on="0"/>
        <pt x="388" y="630" on="0"/>
        <pt x="355" y="630" on="1"/>
        <pt x="281" y="630" on="0"/>
        <pt x="210" y="522" on="0"/>
        <pt x="199" y="450" on="1"/>
        <pt x="445" y="450" on="1"/>
        <pt x="445" y="380" on="1"/>
        <pt x="15" y="380" on="1"/>
      </contour>
      <contour>
        <pt x="249" y="-10" on="0"/>
        <pt x="133" y="89" on="0"/>
        <pt x="93" y="200" on="0"/>
        <pt x="90" y="240" on="1"/>
        <pt x="15" y="240" on="1"/>
        <pt x="15" y="310" on="1"/>
        <pt x="445" y="310" on="1"/>
        <pt x="445" y="240" on="1"/>
        <pt x="201" y="240" on="1"/>
        <pt x="208" y="188" on="0"/>
        <pt x="279" y="77" on="0"/>
        <pt x="365" y="77" on="1"/>
        <pt x="412" y="77" on="0"/>
        <pt x="493" y="107" on="0"/>
        <pt x="548" y="143" on="0"/>
        <pt x="548" y="145" on="1"/>
        <pt x="588" y="85" on="1"/>
        <pt x="588" y="82" on="0"/>
        <pt x="523" y="32" on="0"/>
        <pt x="419" y="-10" on="0"/>
        <pt x="355" y="-10" on="1"/>
      </contour>
    </TTGlyph>
    <TTGlyph name="F" xMin="40" yMin="0" xMax="535" yMax="700">
      <contour>
        <pt x="40" y="0" on="1"/>
        <pt x="40" y="60" on="1"/>
        <pt x="125" y="80" on="1"/>
        <pt x="125" y="620" on="1"/>
        <pt x="40" y="640" on="1"/>
        <pt x="40" y="695" on="1"/>
        <pt x="230" y="700" on="1"/>
        <pt x="535" y="700" on="1"/>
        <pt x="535" y="535" on="1"/>
        <pt x="470" y="535" on="1"/>
        <pt x="445" y="620" on="1"/>
        <pt x="230" y="620" on="1"/>
        <pt x="230" y="395" on="1"/>
        <pt x="460" y="395" on="1"/>
        <pt x="460" y="315" on="1"/>
        <pt x="230" y="315" on="1"/>
        <pt x="230" y="80" on="1"/>
        <pt x="330" y="60" on="1"/>
        <pt x="330" y="0" on="1"/>
      </contour>
    </TTGlyph>
    <TTGlyph name="G" xMin="60" yMin="-10" xMax="710" yMax="710">
      <contour>
        <pt x="228" y="-10" on="0"/>
        <pt x="60" y="168" on="0"/>
        <pt x="60" y="335" on="1"/>
        <pt x="60" y="449" on="0"/>
        <pt x="142" y="618" on="0"/>
        <pt x="293" y="710" on="0"/>
        <pt x="395" y="710" on="1"/>
        <pt x="444" y="710" on="0"/>
        <pt x="544" y="688" on="0"/>
        <pt x="620" y="661" on="0"/>
        <pt x="620" y="660" on="1"/>
        <pt x="615" y="495" on="1"/>
        <pt x="550" y="495" on="1"/>
        <pt x="520" y="605" on="1"/>
        <pt x="515" y="607" on="0"/>
        <pt x="478" y="616" on="0"/>
        <pt x="418" y="625" on="0"/>
        <pt x="385" y="625" on="1"/>
        <pt x="284" y="625" on="0"/>
        <pt x="175" y="478" on="0"/>
        <pt x="175" y="340" on="1"/>
        <pt x="175" y="209" on="0"/>
        <pt x="294" y="75" on="0"/>
        <pt x="395" y="75" on="1"/>
        <pt x="426" y="75" on="0"/>
        <pt x="488" y="86" on="0"/>
        <pt x="530" y="98" on="0"/>
        <pt x="535" y="100" on="1"/>
        <pt x="535" y="264" on="1"/>
        <pt x="450" y="284" on="1"/>
        <pt x="450" y="339" on="1"/>
        <pt x="710" y="344" on="1"/>
        <pt x="710" y="284" on="1"/>
        <pt x="635" y="264" on="1"/>
        <pt x="635" y="50" on="1"/>
        <pt x="635" y="48" on="0"/>
        <pt x="560" y="17" on="0"/>
        <pt x="446" y="-10" on="0"/>
        <pt x="380" y="-10" on="1"/>
      </contour>
    </TTGlyph>
    <TTGlyph name="Gamma" xMin="40" yMin="0" xMax="535" yMax="700">
      <component glyphName="uni0413" x="0" y="0" flags="0x0"/>
    </TTGlyph>
    <TTGlyph name="Gbreve" xMin="60" yMin="-10" xMax="710" yMax="910">
      <component glyphName="G" x="0" y="0" flags="0x0"/>
      <component glyphName="breve" x="160" y="145" flags="0x4"/>
    </TTGlyph>
    <TTGlyph name="Gcircumflex" xMin="60" yMin="-10" xMax="710" yMax="920">
      <component glyphName="G" x="0" y="0" flags="0x0"/>
      <component glyphName="circumflex" x="115" y="100" flags="0x4"/>
    </TTGlyph>
    <TTGlyph name="Gcommaaccent" xMin="60" yMin="-285" xMax="710" yMax="710">
      <component glyphName="G" x="0" y="0" flags="0x0"/>
      <component glyphName="uni0326" x="470" y="0" flags="0x0"/>
    </TTGlyph>
    <TTGlyph name="Gdotaccent" xMin="60" yMin="-10" xMax="710" yMax="885">
      <component glyphName="G" x="0" y="0" flags="0x0"/>
      <component glyphName="dotaccent" x="236" y="125" flags="0x4"/>
    </TTGlyph>
    <TTGlyph name="H" xMin="40" yMin="0" xMax="755" yMax="700">
      <contour>
        <pt x="325" y="0" on="1"/>
        <pt x="40" y="0" on="1"/>
        <pt x="40" y="60" on="1"/>
        <pt x="125" y="80" on="1"/>
        <pt x="125" y="620" on="1"/>
        <pt x="40" y="640" on="1"/>
        <pt x="40" y="695" on="1"/>
        <pt x="325" y="700" on="1"/>
        <pt x="325" y="640" on="1"/>
        <pt x="230" y="620" on="1"/>
        <pt x="230" y="400" on="1"/>
        <pt x="565" y="400" on="1"/>
        <pt x="565" y="620" on="1"/>
        <pt x="470" y="640" on="1"/>
        <pt x="470" y="695" on="1"/>
        <pt x="755" y="700" on="1"/>
        <pt x="755" y="640" on="1"/>
        <pt x="670" y="620" on="1"/>
        <pt x="670" y="80" on="1"/>
        <pt x="755" y="60" on="1"/>
        <pt x="755" y="0" on="1"/>
        <pt x="470" y="0" on="1"/>
        <pt x="470" y="60" on="1"/>
        <pt x="565" y="80" on="1"/>
        <pt x="565" y="320" on="1"/>
        <pt x="230" y="320" on="1"/>
        <pt x="230" y="80" on="1"/>
        <pt x="325" y="60" on="1"/>
      </contour>
    </TTGlyph>
    <TTGlyph name="Hbar" xMin="45" yMin="0" xMax="760" yMax="700">
      <contour>
        <pt x="45" y="0" on="1"/>
        <pt x="45" y="60" on="1"/>
        <pt x="130" y="80" on="1"/>
        <pt x="130" y="485" on="1"/>
        <pt x="45" y="485" on="1"/>
        <pt x="45" y="560" on="1"/>
        <pt x="130" y="560" on="1"/>
        <pt x="130" y="620" on="1"/>
        <pt x="45" y="640" on="1"/>
        <pt x="45" y="695" on="1"/>
        <pt x="330" y="700" on="1"/>
        <pt x="330" y="640" on="1"/>
        <pt x="235" y="620" on="1"/>
        <pt x="235" y="560" on="1"/>
        <pt x="570" y="560" on="1"/>
        <pt x="570" y="620" on="1"/>
        <pt x="475" y="640" on="1"/>
        <pt x="475" y="695" on="1"/>
        <pt x="760" y="700" on="1"/>
        <pt x="760" y="640" on="1"/>
        <pt x="675" y="620" on="1"/>
        <pt x="675" y="560" on="1"/>
        <pt x="760" y="560" on="1"/>
        <pt x="760" y="485" on="1"/>
        <pt x="675" y="485" on="1"/>
        <pt x="675" y="80" on="1"/>
        <pt x="760" y="60" on="1"/>
        <pt x="760" y="0" on="1"/>
        <pt x="475" y="0" on="1"/>
        <pt x="475" y="60" on="1"/>
        <pt x="570" y="80" on="1"/>
        <pt x="570" y="320" on="1"/>
        <pt x="235" y="320" on="1"/>
        <pt x="235" y="80" on="1"/>
        <pt x="330" y="60" on="1"/>
        <pt x="330" y="0" on="1"/>
      </contour>
      <contour>
        <pt x="235" y="400" on="1"/>
        <pt x="570" y="400" on="1"/>
        <pt x="570" y="485" on="1"/>
        <pt x="235" y="485" on="1"/>
      </contour>
    </TTGlyph>
    <TTGlyph name="Hcircumflex" xMin="40" yMin="0" xMax="755" yMax="920">
      <component glyphName="H" x="0" y="0" flags="0x0"/>
      <component glyphName="circumflex" x="137" y="100" flags="0x4"/>
    </TTGlyph>
    <TTGlyph name="I" xMin="45" yMin="0" xMax="320" yMax="700">
      <contour>
        <pt x="320" y="0" on="1"/>
        <pt x="45" y="0" on="1"/>
        <pt x="45" y="60" on="1"/>
        <pt x="130" y="80" on="1"/>
        <pt x="130" y="620" on="1"/>
        <pt x="45" y="640" on="1"/>
        <pt x="45" y="695" on="1"/>
        <pt x="320" y="700" on="1"/>
        <pt x="320" y="640" on="1"/>
        <pt x="235" y="620" on="1"/>
        <pt x="235" y="80" on="1"/>
        <pt x="320" y="60" on="1"/>
      </contour>
    </TTGlyph>
    <TTGlyph name="IJ" xMin="45" yMin="-150" xMax="664" yMax="700">
      <component glyphName="I" x="0" y="0" flags="0x0"/>
      <component glyphName="J" x="345" y="0" flags="0x0"/>
    </TTGlyph>
    <TTGlyph name="Iacute" xMin="45" yMin="0" xMax="330" yMax="933">
      <component glyphName="I" x="0" y="0" flags="0x0"/>
      <component glyphName="acute.Cup" x="95" y="0" flags="0x0"/>
    </TTGlyph>
    <TTGlyph name="Ibreve" xMin="40" yMin="0" xMax="320" yMax="910">
      <contour>
        <pt x="144" y="760" on="0"/>
        <pt x="81" y="793" on="0"/>
        <pt x="41" y="859" on="0"/>
        <pt x="40" y="905" on="1"/>
        <pt x="100" y="910" on="1"/>
        <pt x="108" y="872" on="0"/>
        <pt x="153" y="834" on="0"/>
        <pt x="181" y="834" on="1"/>
        <pt x="211" y="834" on="0"/>
        <pt x="256" y="873" on="0"/>
        <pt x="260" y="905" on="1"/>
        <pt x="320" y="910" on="1"/>
        <pt x="319" y="862" on="0"/>
        <pt x="279" y="794" on="0"/>
        <pt x="215" y="760" on="0"/>
        <pt x="179" y="760" on="1"/>
      </contour>
      <contour>
        <pt x="315" y="0" on="1"/>
        <pt x="40" y="0" on="1"/>
        <pt x="40" y="60" on="1"/>
        <pt x="125" y="80" on="1"/>
        <pt x="125" y="620" on="1"/>
        <pt x="40" y="640" on="1"/>
        <pt x="40" y="695" on="1"/>
        <pt x="315" y="700" on="1"/>
        <pt x="315" y="640" on="1"/>
        <pt x="230" y="620" on="1"/>
        <pt x="230" y="80" on="1"/>
        <pt x="315" y="60" on="1"/>
      </contour>
    </TTGlyph>
    <TTGlyph name="Icircumflex" xMin="13" yMin="0" xMax="363" yMax="920">
      <component glyphName="I" x="0" y="0" flags="0x0"/>
      <component glyphName="circumflex" x="-72" y="100" flags="0x4"/>
    </TTGlyph>
    <TTGlyph name="Idieresis" xMin="20" yMin="0" xMax="335" yMax="885">
      <contour>
        <pt x="20" y="853" on="0"/>
        <pt x="52" y="885" on="0"/>
        <pt x="75" y="885" on="1"/>
        <pt x="101" y="885" on="0"/>
        <pt x="130" y="853" on="0"/>
        <pt x="130" y="825" on="1"/>
        <pt x="130" y="797" on="0"/>
        <pt x="98" y="765" on="0"/>
        <pt x="75" y="765" on="1"/>
        <pt x="49" y="765" on="0"/>
        <pt x="20" y="797" on="0"/>
        <pt x="20" y="825" on="1"/>
      </contour>
      <contour>
        <pt x="225" y="853" on="0"/>
        <pt x="257" y="885" on="0"/>
        <pt x="280" y="885" on="1"/>
        <pt x="306" y="885" on="0"/>
        <pt x="335" y="853" on="0"/>
        <pt x="335" y="825" on="1"/>
        <pt x="335" y="797" on="0"/>
        <pt x="303" y="765" on="0"/>
        <pt x="280" y="765" on="1"/>
        <pt x="254" y="765" on="0"/>
        <pt x="225" y="797" on="0"/>
        <pt x="225" y="825" on="1"/>
      </contour>
      <contour>
        <pt x="320" y="0" on="1"/>
        <pt x="45" y="0" on="1"/>
        <pt x="45" y="60" on="1"/>
        <pt x="130" y="80" on="1"/>
        <pt x="130" y="620" on="1"/>
        <pt x="45" y="640" on="1"/>
        <pt x="45" y="695" on="1"/>
        <pt x="320" y="700" on="1"/>
        <pt x="320" y="640" on="1"/>
        <pt x="235" y="620" on="1"/>
        <pt x="235" y="80" on="1"/>
        <pt x="320" y="60" on="1"/>
      </contour>
    </TTGlyph>
    <TTGlyph name="Idotaccent" xMin="45" yMin="0" xMax="320" yMax="885">
      <component glyphName="I" x="0" y="0" flags="0x0"/>
      <component glyphName="dotaccent" x="33" y="125" flags="0x4"/>
    </TTGlyph>
    <TTGlyph name="Igrave" xMin="25" yMin="0" xMax="325" yMax="935">
      <contour>
        <pt x="25" y="860" on="1"/>
        <pt x="75" y="935" on="1"/>
        <pt x="260" y="790" on="1"/>
        <pt x="220" y="735" on="1"/>
      </contour>
      <contour>
        <pt x="325" y="0" on="1"/>
        <pt x="50" y="0" on="1"/>
        <pt x="50" y="60" on="1"/>
        <pt x="135" y="80" on="1"/>
        <pt x="135" y="620" on="1"/>
        <pt x="50" y="640" on="1"/>
        <pt x="50" y="695" on="1"/>
        <pt x="325" y="700" on="1"/>
        <pt x="325" y="640" on="1"/>
        <pt x="240" y="620" on="1"/>
        <pt x="240" y="80" on="1"/>
        <pt x="325" y="60" on="1"/>
      </contour>
    </TTGlyph>
    <TTGlyph name="Igravecy" xMin="40" yMin="0" xMax="768" yMax="935">
      <component glyphName="uni0418" x="0" y="0" flags="0x0"/>
      <component glyphName="grave.Cup" x="240" y="0" flags="0x0"/>
    </TTGlyph>
    <TTGlyph name="Imacron" xMin="45" yMin="0" xMax="320" yMax="865">
      <component glyphName="I" x="0" y="0" flags="0x0"/>
      <component glyphName="macron" x="41" y="130" flags="0x4"/>
    </TTGlyph>
    <TTGlyph name="Iogonek" xMin="40" yMin="-220" xMax="315" yMax="700">
      <contour>
        <pt x="137" y="-220" on="0"/>
        <pt x="80" y="-169" on="0"/>
        <pt x="80" y="-125" on="1"/>
        <pt x="80" y="-80" on="0"/>
        <pt x="153" y="-17" on="0"/>
        <pt x="192" y="0" on="1"/>
        <pt x="40" y="0" on="1"/>
        <pt x="40" y="60" on="1"/>
        <pt x="125" y="80" on="1"/>
        <pt x="125" y="620" on="1"/>
        <pt x="40" y="640" on="1"/>
        <pt x="40" y="695" on="1"/>
        <pt x="315" y="700" on="1"/>
        <pt x="315" y="640" on="1"/>
        <pt x="230" y="620" on="1"/>
        <pt x="230" y="80" on="1"/>
        <pt x="315" y="60" on="1"/>
        <pt x="315" y="0" on="1"/>
        <pt x="254" y="-19" on="0"/>
        <pt x="160" y="-79" on="0"/>
        <pt x="160" y="-115" on="1"/>
        <pt x="160" y="-137" on="0"/>
        <pt x="185" y="-160" on="0"/>
        <pt x="205" y="-160" on="1"/>
        <pt x="218" y="-160" on="0"/>
        <pt x="246" y="-154" on="0"/>
        <pt x="250" y="-153" on="1"/>
        <pt x="260" y="-200" on="1"/>
        <pt x="257" y="-202" on="0"/>
        <pt x="233" y="-211" on="0"/>
        <pt x="198" y="-220" on="0"/>
        <pt x="180" y="-220" on="1"/>
      </contour>
    </TTGlyph>
    <TTGlyph name="Itilde" xMin="-5" yMin="0" xMax="360" yMax="890">
      <contour>
        <pt x="-5" y="799" on="0"/>
        <pt x="26" y="848" on="0"/>
        <pt x="75" y="890" on="0"/>
        <pt x="105" y="890" on="1"/>
        <pt x="128" y="890" on="0"/>
        <pt x="165" y="878" on="0"/>
        <pt x="192" y="865" on="1"/>
        <pt x="214" y="855" on="0"/>
        <pt x="245" y="844" on="0"/>
        <pt x="262" y="844" on="1"/>
        <pt x="278" y="844" on="0"/>
        <pt x="306" y="863" on="0"/>
        <pt x="324" y="883" on="0"/>
        <pt x="326" y="886" on="1"/>
        <pt x="360" y="856" on="1"/>
        <pt x="360" y="853" on="0"/>
        <pt x="332" y="806" on="0"/>
        <pt x="285" y="766" on="0"/>
        <pt x="255" y="766" on="1"/>
        <pt x="232" y="766" on="0"/>
        <pt x="193" y="778" on="0"/>
        <pt x="168" y="790" on="1"/>
        <pt x="144" y="800" on="0"/>
        <pt x="115" y="810" on="0"/>
        <pt x="98" y="810" on="1"/>
        <pt x="81" y="810" on="0"/>
        <pt x="50" y="790" on="0"/>
        <pt x="31" y="769" on="0"/>
        <pt x="29" y="766" on="1"/>
        <pt x="-5" y="796" on="1"/>
      </contour>
      <contour>
        <pt x="320" y="0" on="1"/>
        <pt x="45" y="0" on="1"/>
        <pt x="45" y="60" on="1"/>
        <pt x="130" y="80" on="1"/>
        <pt x="130" y="620" on="1"/>
        <pt x="45" y="640" on="1"/>
        <pt x="45" y="695" on="1"/>
        <pt x="320" y="700" on="1"/>
        <pt x="320" y="640" on="1"/>
        <pt x="235" y="620" on="1"/>
        <pt x="235" y="80" on="1"/>
        <pt x="320" y="60" on="1"/>
      </contour>
    </TTGlyph>
    <TTGlyph name="J" xMin="-20" yMin="-150" xMax="319" yMax="700">
      <contour>
        <pt x="28" y="-150" on="0"/>
        <pt x="-14" y="-146" on="0"/>
        <pt x="-20" y="-145" on="1"/>
        <pt x="-11" y="-70" on="1"/>
        <pt x="39" y="-70" on="1"/>
        <pt x="86" y="-70" on="0"/>
        <pt x="129" y="-22" on="0"/>
        <pt x="129" y="25" on="1"/>
        <pt x="129" y="620" on="1"/>
        <pt x="39" y="640" on="1"/>
        <pt x="39" y="695" on="1"/>
        <pt x="319" y="700" on="1"/>
        <pt x="319" y="640" on="1"/>
        <pt x="234" y="620" on="1"/>
        <pt x="234" y="45" on="1"/>
        <pt x="234" y="-46" on="0"/>
        <pt x="133" y="-150" on="0"/>
        <pt x="44" y="-150" on="1"/>
      </contour>
    </TTGlyph>
    <TTGlyph name="Jcircumflex" xMin="-20" yMin="-150" xMax="348" yMax="920">
      <contour>
        <pt x="52" y="750" on="1"/>
        <pt x="12" y="795" on="1"/>
        <pt x="150" y="915" on="1"/>
        <pt x="210" y="920" on="1"/>
        <pt x="348" y="795" on="1"/>
        <pt x="308" y="750" on="1"/>
        <pt x="182" y="843" on="1"/>
      </contour>
      <contour>
        <pt x="28" y="-150" on="0"/>
        <pt x="-14" y="-146" on="0"/>
        <pt x="-20" y="-145" on="1"/>
        <pt x="-11" y="-70" on="1"/>
        <pt x="39" y="-70" on="1"/>
        <pt x="86" y="-70" on="0"/>
        <pt x="129" y="-22" on="0"/>
        <pt x="129" y="25" on="1"/>
        <pt x="129" y="620" on="1"/>
        <pt x="39" y="640" on="1"/>
        <pt x="39" y="695" on="1"/>
        <pt x="319" y="700" on="1"/>
        <pt x="319" y="640" on="1"/>
        <pt x="234" y="620" on="1"/>
        <pt x="234" y="45" on="1"/>
        <pt x="234" y="-46" on="0"/>
        <pt x="133" y="-150" on="0"/>
        <pt x="44" y="-150" on="1"/>
      </contour>
    </TTGlyph>
    <TTGlyph name="K" xMin="45" yMin="0" xMax="705" yMax="700">
      <contour>
        <pt x="620" y="80" on="1"/>
        <pt x="705" y="60" on="1"/>
        <pt x="705" y="0" on="1"/>
        <pt x="420" y="0" on="1"/>
        <pt x="420" y="60" on="1"/>
        <pt x="505" y="80" on="1"/>
        <pt x="336" y="320" on="1"/>
        <pt x="235" y="320" on="1"/>
        <pt x="235" y="80" on="1"/>
        <pt x="320" y="60" on="1"/>
        <pt x="320" y="0" on="1"/>
        <pt x="45" y="0" on="1"/>
        <pt x="45" y="60" on="1"/>
        <pt x="130" y="80" on="1"/>
        <pt x="130" y="620" on="1"/>
        <pt x="45" y="640" on="1"/>
        <pt x="45" y="695" on="1"/>
        <pt x="320" y="700" on="1"/>
        <pt x="320" y="640" on="1"/>
        <pt x="235" y="620" on="1"/>
        <pt x="235" y="400" on="1"/>
        <pt x="327" y="400" on="1"/>
        <pt x="468" y="622" on="1"/>
        <pt x="393" y="640" on="1"/>
        <pt x="393" y="695" on="1"/>
        <pt x="665" y="700" on="1"/>
        <pt x="665" y="640" on="1"/>
        <pt x="574" y="620" on="1"/>
        <pt x="415" y="369" on="1"/>
      </contour>
    </TTGlyph>
    <TTGlyph name="Kcommaaccent" xMin="45" yMin="-285" xMax="705" yMax="700">
      <component glyphName="K" x="0" y="0" flags="0x0"/>
      <component glyphName="uni0326" x="470" y="0" flags="0x0"/>
    </TTGlyph>
    <TTGlyph name="L" xMin="35" yMin="0" xMax="520" yMax="700">
      <contour>
        <pt x="225" y="80" on="1"/>
        <pt x="430" y="80" on="1"/>
        <pt x="450" y="195" on="1"/>
        <pt x="520" y="195" on="1"/>
        <pt x="520" y="0" on="1"/>
        <pt x="35" y="0" on="1"/>
        <pt x="35" y="60" on="1"/>
        <pt x="120" y="80" on="1"/>
        <pt x="120" y="620" on="1"/>
        <pt x="35" y="640" on="1"/>
        <pt x="35" y="695" on="1"/>
        <pt x="310" y="700" on="1"/>
        <pt x="310" y="640" on="1"/>
        <pt x="225" y="620" on="1"/>
      </contour>
    </TTGlyph>
    <TTGlyph name="Lacute" xMin="35" yMin="0" xMax="520" yMax="933">
      <component glyphName="L" x="0" y="0" flags="0x0"/>
      <component glyphName="acute.Cup" x="95" y="0" flags="0x0"/>
    </TTGlyph>
    <TTGlyph name="Lcaron" xMin="35" yMin="0" xMax="520" yMax="700">
      <contour>
        <pt x="225" y="80" on="1"/>
        <pt x="430" y="80" on="1"/>
        <pt x="450" y="195" on="1"/>
        <pt x="520" y="195" on="1"/>
        <pt x="520" y="0" on="1"/>
        <pt x="35" y="0" on="1"/>
        <pt x="35" y="60" on="1"/>
        <pt x="120" y="80" on="1"/>
        <pt x="120" y="620" on="1"/>
        <pt x="35" y="640" on="1"/>
        <pt x="35" y="695" on="1"/>
        <pt x="310" y="700" on="1"/>
        <pt x="310" y="640" on="1"/>
        <pt x="225" y="620" on="1"/>
      </contour>
      <contour>
        <pt x="365" y="485" on="1"/>
        <pt x="389" y="554" on="0"/>
        <pt x="409" y="651" on="0"/>
        <pt x="407" y="695" on="1"/>
        <pt x="505" y="700" on="1"/>
        <pt x="505" y="658" on="0"/>
        <pt x="465" y="546" on="0"/>
        <pt x="425" y="465" on="1"/>
      </contour>
    </TTGlyph>
    <TTGlyph name="Lcommaaccent" xMin="35" yMin="-285" xMax="520" yMax="700">
      <component glyphName="L" x="0" y="0" flags="0x0"/>
      <component glyphName="uni0326" x="395" y="0" flags="0x0"/>
    </TTGlyph>
    <TTGlyph name="Ldot" xMin="35" yMin="0" xMax="520" yMax="700">
      <component glyphName="L" x="0" y="0" flags="0x0"/>
      <component glyphName="periodcentered" x="240" y="55" flags="0x4"/>
    </TTGlyph>
    <TTGlyph name="Lslash" xMin="30" yMin="0" xMax="535" yMax="700">
      <contour>
        <pt x="240" y="402" on="1"/>
        <pt x="385" y="472" on="1"/>
        <pt x="406" y="397" on="1"/>
        <pt x="240" y="317" on="1"/>
        <pt x="240" y="80" on="1"/>
        <pt x="445" y="80" on="1"/>
        <pt x="465" y="195" on="1"/>
        <pt x="535" y="195" on="1"/>
        <pt x="535" y="0" on="1"/>
        <pt x="50" y="0" on="1"/>
        <pt x="50" y="60" on="1"/>
        <pt x="135" y="80" on="1"/>
        <pt x="135" y="273" on="1"/>
        <pt x="51" y="233" on="1"/>
        <pt x="30" y="308" on="1"/>
        <pt x="135" y="358" on="1"/>
        <pt x="135" y="620" on="1"/>
        <pt x="50" y="640" on="1"/>
        <pt x="50" y="695" on="1"/>
        <pt x="325" y="700" on="1"/>
        <pt x="325" y="640" on="1"/>
        <pt x="240" y="620" on="1"/>
      </contour>
    </TTGlyph>
    <TTGlyph name="M" xMin="40" yMin="0" xMax="845" yMax="700">
      <contour>
        <pt x="40" y="0" on="1"/>
        <pt x="40" y="60" on="1"/>
        <pt x="125" y="80" on="1"/>
        <pt x="125" y="620" on="1"/>
        <pt x="40" y="640" on="1"/>
        <pt x="40" y="695" on="1"/>
        <pt x="265" y="700" on="1"/>
        <pt x="446" y="300" on="1"/>
        <pt x="635" y="695" on="1"/>
        <pt x="845" y="700" on="1"/>
        <pt x="845" y="640" on="1"/>
        <pt x="760" y="620" on="1"/>
        <pt x="760" y="80" on="1"/>
        <pt x="845" y="60" on="1"/>
        <pt x="845" y="0" on="1"/>
        <pt x="565" y="0" on="1"/>
        <pt x="565" y="60" on="1"/>
        <pt x="660" y="80" on="1"/>
        <pt x="660" y="580" on="1"/>
        <pt x="630" y="505" on="1"/>
        <pt x="475" y="190" on="1"/>
        <pt x="395" y="185" on="1"/>
        <pt x="240" y="510" on="1"/>
        <pt x="215" y="580" on="1"/>
        <pt x="215" y="80" on="1"/>
        <pt x="310" y="60" on="1"/>
        <pt x="310" y="0" on="1"/>
      </contour>
    </TTGlyph>
    <TTGlyph name="N" xMin="40" yMin="0" xMax="755" yMax="700">
      <contour>
        <pt x="40" y="0" on="1"/>
        <pt x="40" y="60" on="1"/>
        <pt x="125" y="80" on="1"/>
        <pt x="125" y="620" on="1"/>
        <pt x="40" y="640" on="1"/>
        <pt x="40" y="695" on="1"/>
        <pt x="250" y="700" on="1"/>
        <pt x="580" y="141" on="1"/>
        <pt x="580" y="620" on="1"/>
        <pt x="495" y="640" on="1"/>
        <pt x="495" y="695" on="1"/>
        <pt x="755" y="700" on="1"/>
        <pt x="755" y="640" on="1"/>
        <pt x="670" y="620" on="1"/>
        <pt x="670" y="0" on="1"/>
        <pt x="545" y="0" on="1"/>
        <pt x="215" y="551" on="1"/>
        <pt x="215" y="80" on="1"/>
        <pt x="310" y="60" on="1"/>
        <pt x="310" y="0" on="1"/>
      </contour>
    </TTGlyph>
    <TTGlyph name="Nacute" xMin="40" yMin="0" xMax="755" yMax="933">
      <component glyphName="N" x="0" y="0" flags="0x0"/>
      <component glyphName="acute.Cup" x="305" y="0" flags="0x0"/>
    </TTGlyph>
    <TTGlyph name="Ncaron" xMin="40" yMin="0" xMax="755" yMax="920">
      <component glyphName="N" x="0" y="0" flags="0x0"/>
      <component glyphName="caron.Cup" x="225" y="0" flags="0x0"/>
    </TTGlyph>
    <TTGlyph name="Ncommaaccent" xMin="40" yMin="-285" xMax="755" yMax="700">
      <component glyphName="N" x="0" y="0" flags="0x0"/>
      <component glyphName="uni0326" x="505" y="0" flags="0x0"/>
    </TTGlyph>
    <TTGlyph name="Ntilde" xMin="40" yMin="0" xMax="755" yMax="890">
      <contour>
        <pt x="195" y="799" on="0"/>
        <pt x="225" y="848" on="0"/>
        <pt x="274" y="890" on="0"/>
        <pt x="305" y="890" on="1"/>
        <pt x="329" y="890" on="0"/>
        <pt x="372" y="878" on="0"/>
        <pt x="399" y="866" on="1"/>
        <pt x="428" y="854" on="0"/>
        <pt x="461" y="844" on="0"/>
        <pt x="480" y="844" on="1"/>
        <pt x="498" y="844" on="0"/>
        <pt x="527" y="863" on="0"/>
        <pt x="543" y="883" on="0"/>
        <pt x="545" y="886" on="1"/>
        <pt x="580" y="856" on="1"/>
        <pt x="580" y="853" on="0"/>
        <pt x="553" y="806" on="0"/>
        <pt x="506" y="766" on="0"/>
        <pt x="475" y="766" on="1"/>
        <pt x="451" y="766" on="0"/>
        <pt x="410" y="778" on="0"/>
        <pt x="381" y="789" on="1"/>
        <pt x="355" y="800" on="0"/>
        <pt x="319" y="810" on="0"/>
        <pt x="300" y="810" on="1"/>
        <pt x="282" y="810" on="0"/>
        <pt x="251" y="790" on="0"/>
        <pt x="232" y="769" on="0"/>
        <pt x="230" y="766" on="1"/>
        <pt x="195" y="796" on="1"/>
      </contour>
      <contour>
        <pt x="40" y="0" on="1"/>
        <pt x="40" y="60" on="1"/>
        <pt x="125" y="80" on="1"/>
        <pt x="125" y="620" on="1"/>
        <pt x="40" y="640" on="1"/>
        <pt x="40" y="695" on="1"/>
        <pt x="250" y="700" on="1"/>
        <pt x="580" y="141" on="1"/>
        <pt x="580" y="620" on="1"/>
        <pt x="495" y="640" on="1"/>
        <pt x="495" y="695" on="1"/>
        <pt x="755" y="700" on="1"/>
        <pt x="755" y="640" on="1"/>
        <pt x="670" y="620" on="1"/>
        <pt x="670" y="0" on="1"/>
        <pt x="545" y="0" on="1"/>
        <pt x="215" y="551" on="1"/>
        <pt x="215" y="80" on="1"/>
        <pt x="310" y="60" on="1"/>
        <pt x="310" y="0" on="1"/>
      </contour>
    </TTGlyph>
    <TTGlyph name="O" xMin="60" yMin="-10" xMax="695" yMax="710">
      <contour>
        <pt x="481" y="710" on="0"/>
        <pt x="621" y="625" on="0"/>
        <pt x="695" y="467" on="0"/>
        <pt x="695" y="360" on="1"/>
        <pt x="695" y="251" on="0"/>
        <pt x="612" y="83" on="0"/>
        <pt x="462" y="-10" on="0"/>
        <pt x="365" y="-10" on="1"/>
        <pt x="218" y="-10" on="0"/>
        <pt x="60" y="173" on="0"/>
        <pt x="60" y="345" on="1"/>
        <pt x="60" y="454" on="0"/>
        <pt x="139" y="620" on="0"/>
        <pt x="286" y="710" on="0"/>
        <pt x="385" y="710" on="1"/>
      </contour>
      <contour>
        <pt x="280" y="625" on="0"/>
        <pt x="175" y="490" on="0"/>
        <pt x="175" y="350" on="1"/>
        <pt x="175" y="214" on="0"/>
        <pt x="273" y="75" on="0"/>
        <pt x="370" y="75" on="1"/>
        <pt x="470" y="75" on="0"/>
        <pt x="580" y="216" on="0"/>
        <pt x="580" y="355" on="1"/>
        <pt x="580" y="489" on="0"/>
        <pt x="478" y="625" on="0"/>
        <pt x="380" y="625" on="1"/>
      </contour>
    </TTGlyph>
    <TTGlyph name="OE" xMin="60" yMin="-5" xMax="875" yMax="705">
      <contour>
        <pt x="218" y="-5" on="0"/>
        <pt x="60" y="174" on="0"/>
        <pt x="60" y="345" on="1"/>
        <pt x="60" y="454" on="0"/>
        <pt x="139" y="617" on="0"/>
        <pt x="286" y="705" on="0"/>
        <pt x="385" y="705" on="1"/>
        <pt x="427" y="705" on="0"/>
        <pt x="468" y="702" on="1"/>
        <pt x="518" y="700" on="0"/>
        <pt x="535" y="700" on="1"/>
        <pt x="865" y="700" on="1"/>
        <pt x="865" y="530" on="1"/>
        <pt x="800" y="530" on="1"/>
        <pt x="775" y="620" on="1"/>
        <pt x="560" y="620" on="1"/>
        <pt x="560" y="405" on="1"/>
        <pt x="790" y="405" on="1"/>
        <pt x="790" y="325" on="1"/>
        <pt x="560" y="325" on="1"/>
        <pt x="560" y="80" on="1"/>
        <pt x="790" y="80" on="1"/>
        <pt x="810" y="180" on="1"/>
        <pt x="875" y="180" on="1"/>
        <pt x="875" y="0" on="1"/>
        <pt x="525" y="0" on="1"/>
        <pt x="465" y="-2" on="1"/>
        <pt x="375" y="-5" on="0"/>
        <pt x="365" y="-5" on="1"/>
      </contour>
      <contour>
        <pt x="392" y="75" on="0"/>
        <pt x="447" y="79" on="0"/>
        <pt x="455" y="80" on="1"/>
        <pt x="455" y="620" on="1"/>
        <pt x="448" y="621" on="0"/>
        <pt x="399" y="625" on="0"/>
        <pt x="380" y="625" on="1"/>
        <pt x="280" y="625" on="0"/>
        <pt x="175" y="490" on="0"/>
        <pt x="175" y="350" on="1"/>
        <pt x="175" y="214" on="0"/>
        <pt x="273" y="75" on="0"/>
        <pt x="370" y="75" on="1"/>
      </contour>
    </TTGlyph>
    <TTGlyph name="Oacute" xMin="60" yMin="-10" xMax="695" yMax="933">
      <component glyphName="O" x="0" y="0" flags="0x0"/>
      <component glyphName="acute.Cup" x="275" y="0" flags="0x0"/>
    </TTGlyph>
    <TTGlyph name="Obreve" xMin="60" yMin="-10" xMax="695" yMax="910">
      <component glyphName="O" x="0" y="0" flags="0x0"/>
      <component glyphName="breve" x="159" y="145" flags="0x4"/>
    </TTGlyph>
    <TTGlyph name="Ocircumflex" xMin="60" yMin="-10" xMax="695" yMax="920">
      <component glyphName="O" x="0" y="0" flags="0x0"/>
      <component glyphName="circumflex" x="114" y="100" flags="0x4"/>
    </TTGlyph>
    <TTGlyph name="Odieresis" xMin="60" yMin="-10" xMax="695" yMax="885">
      <component glyphName="O" x="0" y="0" flags="0x0"/>
      <component glyphName="dieresis" x="120" y="125" flags="0x4"/>
    </TTGlyph>
    <TTGlyph name="Ograve" xMin="60" yMin="-10" xMax="695" yMax="935">
      <component glyphName="O" x="0" y="0" flags="0x0"/>
      <component glyphName="grave.Cup" x="235" y="0" flags="0x0"/>
    </TTGlyph>
    <TTGlyph name="Ohungarumlaut" xMin="60" yMin="-10" xMax="695" yMax="941">
      <contour>
        <pt x="265" y="733" on="1"/>
        <pt x="211" y="775" on="1"/>
        <pt x="341" y="941" on="1"/>
        <pt x="407" y="883" on="1"/>
      </contour>
      <contour>
        <pt x="460" y="733" on="1"/>
        <pt x="406" y="775" on="1"/>
        <pt x="536" y="941" on="1"/>
        <pt x="602" y="883" on="1"/>
      </contour>
      <contour>
        <pt x="481" y="710" on="0"/>
        <pt x="621" y="625" on="0"/>
        <pt x="695" y="467" on="0"/>
        <pt x="695" y="360" on="1"/>
        <pt x="695" y="251" on="0"/>
        <pt x="612" y="83" on="0"/>
        <pt x="462" y="-10" on="0"/>
        <pt x="365" y="-10" on="1"/>
        <pt x="218" y="-10" on="0"/>
        <pt x="60" y="173" on="0"/>
        <pt x="60" y="345" on="1"/>
        <pt x="60" y="454" on="0"/>
        <pt x="139" y="620" on="0"/>
        <pt x="286" y="710" on="0"/>
        <pt x="385" y="710" on="1"/>
      </contour>
      <contour>
        <pt x="280" y="625" on="0"/>
        <pt x="175" y="490" on="0"/>
        <pt x="175" y="350" on="1"/>
        <pt x="175" y="214" on="0"/>
        <pt x="273" y="75" on="0"/>
        <pt x="370" y="75" on="1"/>
        <pt x="470" y="75" on="0"/>
        <pt x="580" y="216" on="0"/>
        <pt x="580" y="355" on="1"/>
        <pt x="580" y="489" on="0"/>
        <pt x="478" y="625" on="0"/>
        <pt x="380" y="625" on="1"/>
      </contour>
    </TTGlyph>
    <TTGlyph name="Omacron" xMin="60" yMin="-10" xMax="695" yMax="865">
      <component glyphName="O" x="0" y="0" flags="0x0"/>
      <component glyphName="macron" x="242" y="130" flags="0x4"/>
    </TTGlyph>
    <TTGlyph name="Oslash" xMin="65" yMin="-105" xMax="700" yMax="785">
      <contour>
        <pt x="85" y="-70" on="1"/>
        <pt x="164" y="61" on="1"/>
        <pt x="65" y="151" on="0"/>
        <pt x="65" y="345" on="1"/>
        <pt x="65" y="454" on="0"/>
        <pt x="144" y="620" on="0"/>
        <pt x="291" y="710" on="0"/>
        <pt x="390" y="710" on="1"/>
        <pt x="472" y="710" on="0"/>
        <pt x="536" y="678" on="1"/>
        <pt x="600" y="785" on="1"/>
        <pt x="665" y="750" on="1"/>
        <pt x="597" y="637" on="1"/>
        <pt x="647" y="591" on="0"/>
        <pt x="700" y="450" on="0"/>
        <pt x="700" y="360" on="1"/>
        <pt x="700" y="251" on="0"/>
        <pt x="617" y="83" on="0"/>
        <pt x="467" y="-10" on="0"/>
        <pt x="370" y="-10" on="1"/>
        <pt x="287" y="-10" on="0"/>
        <pt x="225" y="20" on="1"/>
        <pt x="150" y="-105" on="1"/>
      </contour>
      <contour>
        <pt x="488" y="599" on="1"/>
        <pt x="444" y="625" on="0"/>
        <pt x="385" y="625" on="1"/>
        <pt x="285" y="625" on="0"/>
        <pt x="180" y="490" on="0"/>
        <pt x="180" y="350" on="1"/>
        <pt x="180" y="226" on="0"/>
        <pt x="221" y="156" on="1"/>
      </contour>
      <contour>
        <pt x="475" y="75" on="0"/>
        <pt x="585" y="216" on="0"/>
        <pt x="585" y="355" on="1"/>
        <pt x="585" y="477" on="0"/>
        <pt x="542" y="546" on="1"/>
        <pt x="274" y="101" on="1"/>
        <pt x="315" y="75" on="0"/>
        <pt x="375" y="75" on="1"/>
      </contour>
    </TTGlyph>
    <TTGlyph name="Oslashacute" xMin="65" yMin="-105" xMax="700" yMax="933">
      <component glyphName="Oslash" x="0" y="0" flags="0x0"/>
      <component glyphName="acute.Cup" x="275" y="0" flags="0x0"/>
    </TTGlyph>
    <TTGlyph name="Otilde" xMin="60" yMin="-10" xMax="695" yMax="889">
      <component glyphName="O" x="0" y="0" flags="0x0"/>
      <component glyphName="tilde.Cup" x="185" y="-1" flags="0x4"/>
    </TTGlyph>
    <TTGlyph name="P" xMin="40" yMin="0" xMax="565" yMax="700">
      <contour>
        <pt x="40" y="60" on="1"/>
        <pt x="125" y="80" on="1"/>
        <pt x="125" y="620" on="1"/>
        <pt x="40" y="640" on="1"/>
        <pt x="40" y="695" on="1"/>
        <pt x="230" y="700" on="1"/>
        <pt x="335" y="700" on="1"/>
        <pt x="446" y="700" on="0"/>
        <pt x="565" y="590" on="0"/>
        <pt x="565" y="495" on="1"/>
        <pt x="565" y="380" on="0"/>
        <pt x="424" y="260" on="0"/>
        <pt x="295" y="260" on="1"/>
        <pt x="230" y="260" on="1"/>
        <pt x="230" y="80" on="1"/>
        <pt x="315" y="60" on="1"/>
        <pt x="315" y="0" on="1"/>
        <pt x="40" y="0" on="1"/>
      </contour>
      <contour>
        <pt x="295" y="340" on="1"/>
        <pt x="377" y="340" on="0"/>
        <pt x="460" y="412" on="0"/>
        <pt x="460" y="480" on="1"/>
        <pt x="460" y="542" on="0"/>
        <pt x="392" y="620" on="0"/>
        <pt x="330" y="620" on="1"/>
        <pt x="230" y="620" on="1"/>
        <pt x="230" y="340" on="1"/>
      </contour>
    </TTGlyph>
    <TTGlyph name="Pi" xMin="40" yMin="-10" xMax="715" yMax="700">
      <contour>
        <pt x="543" y="-10" on="0"/>
        <pt x="485" y="65" on="0"/>
        <pt x="485" y="145" on="1"/>
        <pt x="485" y="620" on="1"/>
        <pt x="230" y="620" on="1"/>
        <pt x="230" y="80" on="1"/>
        <pt x="330" y="60" on="1"/>
        <pt x="330" y="0" on="1"/>
        <pt x="40" y="0" on="1"/>
        <pt x="40" y="60" on="1"/>
        <pt x="125" y="80" on="1"/>
        <pt x="125" y="620" on="1"/>
        <pt x="40" y="640" on="1"/>
        <pt x="40" y="695" on="1"/>
        <pt x="230" y="700" on="1"/>
        <pt x="675" y="700" on="1"/>
        <pt x="675" y="640" on="1"/>
        <pt x="590" y="620" on="1"/>
        <pt x="590" y="134" on="1"/>
        <pt x="590" y="102" on="0"/>
        <pt x="614" y="73" on="0"/>
        <pt x="630" y="73" on="1"/>
        <pt x="648" y="73" on="0"/>
        <pt x="685" y="83" on="0"/>
        <pt x="690" y="85" on="1"/>
        <pt x="715" y="30" on="1"/>
        <pt x="711" y="27" on="0"/>
        <pt x="677" y="8" on="0"/>
        <pt x="624" y="-10" on="0"/>
        <pt x="595" y="-10" on="1"/>
      </contour>
    </TTGlyph>
    <TTGlyph name="Q" xMin="60" yMin="-185" xMax="825" yMax="710">
      <contour>
        <pt x="644" y="-185" on="0"/>
        <pt x="585" y="-157" on="0"/>
        <pt x="540" y="-130" on="1"/>
        <pt x="341" y="-8" on="1"/>
        <pt x="206" y="2" on="0"/>
        <pt x="60" y="183" on="0"/>
        <pt x="60" y="345" on="1"/>
        <pt x="60" y="454" on="0"/>
        <pt x="144" y="619" on="0"/>
        <pt x="296" y="710" on="0"/>
        <pt x="395" y="710" on="1"/>
        <pt x="543" y="710" on="0"/>
        <pt x="705" y="523" on="0"/>
        <pt x="705" y="360" on="1"/>
        <pt x="705" y="225" on="0"/>
        <pt x="583" y="37" on="0"/>
        <pt x="477" y="5" on="1"/>
        <pt x="516" y="-18" on="1"/>
        <pt x="568" y="-49" on="0"/>
        <pt x="638" y="-89" on="0"/>
        <pt x="671" y="-100" on="0"/>
        <pt x="690" y="-100" on="1"/>
        <pt x="706" y="-100" on="0"/>
        <pt x="748" y="-84" on="0"/>
        <pt x="780" y="-68" on="0"/>
        <pt x="785" y="-65" on="1"/>
        <pt x="825" y="-125" on="1"/>
        <pt x="817" y="-130" on="0"/>
        <pt x="763" y="-158" on="0"/>
        <pt x="694" y="-185" on="0"/>
        <pt x="670" y="-185" on="1"/>
      </contour>
      <contour>
        <pt x="485" y="75" on="0"/>
        <pt x="595" y="217" on="0"/>
        <pt x="595" y="355" on="1"/>
        <pt x="595" y="625" on="0"/>
        <pt x="390" y="625" on="1"/>
        <pt x="283" y="625" on="0"/>
        <pt x="170" y="487" on="0"/>
        <pt x="170" y="350" on="1"/>
        <pt x="170" y="217" on="0"/>
        <pt x="276" y="75" on="0"/>
        <pt x="380" y="75" on="1"/>
      </contour>
    </TTGlyph>
    <TTGlyph name="R" xMin="40" yMin="0" xMax="645" yMax="700">
      <contour>
        <pt x="40" y="60" on="1"/>
        <pt x="125" y="80" on="1"/>
        <pt x="125" y="620" on="1"/>
        <pt x="40" y="640" on="1"/>
        <pt x="40" y="695" on="1"/>
        <pt x="230" y="700" on="1"/>
        <pt x="340" y="700" on="1"/>
        <pt x="446" y="700" on="0"/>
        <pt x="565" y="604" on="0"/>
        <pt x="565" y="520" on="1"/>
        <pt x="565" y="373" on="0"/>
        <pt x="435" y="325" on="1"/>
        <pt x="459" y="304" on="0"/>
        <pt x="495" y="235" on="1"/>
        <pt x="574" y="76" on="1"/>
        <pt x="645" y="60" on="1"/>
        <pt x="645" y="0" on="1"/>
        <pt x="495" y="0" on="1"/>
        <pt x="410" y="185" on="1"/>
        <pt x="386" y="237" on="0"/>
        <pt x="350" y="286" on="0"/>
        <pt x="309" y="305" on="0"/>
        <pt x="275" y="305" on="1"/>
        <pt x="230" y="305" on="1"/>
        <pt x="230" y="80" on="1"/>
        <pt x="315" y="60" on="1"/>
        <pt x="315" y="0" on="1"/>
        <pt x="40" y="0" on="1"/>
      </contour>
      <contour>
        <pt x="305" y="380" on="1"/>
        <pt x="378" y="380" on="0"/>
        <pt x="460" y="446" on="0"/>
        <pt x="460" y="505" on="1"/>
        <pt x="460" y="555" on="0"/>
        <pt x="390" y="620" on="0"/>
        <pt x="335" y="620" on="1"/>
        <pt x="230" y="620" on="1"/>
        <pt x="230" y="380" on="1"/>
      </contour>
    </TTGlyph>
    <TTGlyph name="Racute" xMin="40" yMin="0" xMax="645" yMax="933">
      <component glyphName="R" x="0" y="0" flags="0x0"/>
      <component glyphName="acute.Cup" x="200" y="0" flags="0x0"/>
    </TTGlyph>
    <TTGlyph name="Rcaron" xMin="40" yMin="0" xMax="645" yMax="920">
      <component glyphName="R" x="0" y="0" flags="0x0"/>
      <component glyphName="caron.Cup" x="130" y="0" flags="0x0"/>
    </TTGlyph>
    <TTGlyph name="Rcommaaccent" xMin="40" yMin="-285" xMax="645" yMax="700">
      <component glyphName="R" x="0" y="0" flags="0x0"/>
      <component glyphName="uni0326" x="465" y="0" flags="0x0"/>
    </TTGlyph>
    <TTGlyph name="S" xMin="70" yMin="-10" xMax="537" yMax="710">
      <contour>
        <pt x="174" y="98" on="0"/>
        <pt x="202" y="86" on="0"/>
        <pt x="251" y="75" on="0"/>
        <pt x="280" y="75" on="1"/>
        <pt x="340" y="75" on="0"/>
        <pt x="433" y="132" on="0"/>
        <pt x="433" y="182" on="1"/>
        <pt x="433" y="214" on="0"/>
        <pt x="393" y="258" on="0"/>
        <pt x="334" y="285" on="0"/>
        <pt x="282" y="304" on="1"/>
        <pt x="214" y="328" on="0"/>
        <pt x="131" y="370" on="0"/>
        <pt x="72" y="449" on="0"/>
        <pt x="72" y="511" on="1"/>
        <pt x="72" y="610" on="0"/>
        <pt x="207" y="710" on="0"/>
        <pt x="309" y="710" on="1"/>
        <pt x="351" y="710" on="0"/>
        <pt x="445" y="692" on="0"/>
        <pt x="511" y="673" on="0"/>
        <pt x="520" y="670" on="1"/>
        <pt x="515" y="500" on="1"/>
        <pt x="450" y="500" on="1"/>
        <pt x="416" y="607" on="1"/>
        <pt x="412" y="608" on="0"/>
        <pt x="382" y="617" on="0"/>
        <pt x="334" y="625" on="0"/>
        <pt x="310" y="625" on="1"/>
        <pt x="246" y="625" on="0"/>
        <pt x="177" y="568" on="0"/>
        <pt x="177" y="528" on="1"/>
        <pt x="177" y="496" on="0"/>
        <pt x="217" y="452" on="0"/>
        <pt x="277" y="424" on="0"/>
        <pt x="331" y="405" on="1"/>
        <pt x="396" y="382" on="0"/>
        <pt x="479" y="341" on="0"/>
        <pt x="537" y="266" on="0"/>
        <pt x="537" y="209" on="1"/>
        <pt x="537" y="137" on="0"/>
        <pt x="467" y="38" on="0"/>
        <pt x="348" y="-10" on="0"/>
        <pt x="276" y="-10" on="1"/>
        <pt x="229" y="-10" on="0"/>
        <pt x="138" y="8" on="0"/>
        <pt x="78" y="27" on="0"/>
        <pt x="70" y="30" on="1"/>
        <pt x="70" y="205" on="1"/>
        <pt x="150" y="205" on="1"/>
        <pt x="170" y="100" on="1"/>
      </contour>
    </TTGlyph>
    <TTGlyph name="Sacute" xMin="70" yMin="-10" xMax="537" yMax="933">
      <component glyphName="S" x="0" y="0" flags="0x0"/>
      <component glyphName="acute.Cup" x="195" y="0" flags="0x0"/>
    </TTGlyph>
    <TTGlyph name="Scaron" xMin="70" yMin="-10" xMax="537" yMax="920">
      <component glyphName="S" x="0" y="0" flags="0x0"/>
      <component glyphName="caron.Cup" x="121" y="0" flags="0x0"/>
    </TTGlyph>
    <TTGlyph name="Scedilla" xMin="70" yMin="-219" xMax="537" yMax="710">
      <contour>
        <pt x="537" y="113" on="0"/>
        <pt x="415" y="2" on="0"/>
        <pt x="319" y="-8" on="1"/>
        <pt x="319" y="-43" on="1"/>
        <pt x="360" y="-50" on="0"/>
        <pt x="406" y="-96" on="0"/>
        <pt x="406" y="-130" on="1"/>
        <pt x="406" y="-170" on="0"/>
        <pt x="346" y="-219" on="0"/>
        <pt x="297" y="-219" on="1"/>
        <pt x="268" y="-219" on="0"/>
        <pt x="218" y="-207" on="0"/>
        <pt x="189" y="-193" on="0"/>
        <pt x="185" y="-191" on="1"/>
        <pt x="209" y="-150" on="1"/>
        <pt x="212" y="-152" on="0"/>
        <pt x="236" y="-162" on="0"/>
        <pt x="270" y="-171" on="0"/>
        <pt x="286" y="-171" on="1"/>
        <pt x="311" y="-171" on="0"/>
        <pt x="341" y="-147" on="0"/>
        <pt x="341" y="-128" on="1"/>
        <pt x="341" y="-105" on="0"/>
        <pt x="297" y="-79" on="0"/>
        <pt x="259" y="-79" on="1"/>
        <pt x="259" y="-10" on="1"/>
        <pt x="215" y="-8" on="0"/>
        <pt x="131" y="10" on="0"/>
        <pt x="77" y="27" on="0"/>
        <pt x="70" y="30" on="1"/>
        <pt x="70" y="205" on="1"/>
        <pt x="150" y="205" on="1"/>
        <pt x="170" y="100" on="1"/>
        <pt x="174" y="98" on="0"/>
        <pt x="202" y="86" on="0"/>
        <pt x="251" y="75" on="0"/>
        <pt x="280" y="75" on="1"/>
        <pt x="340" y="75" on="0"/>
        <pt x="433" y="132" on="0"/>
        <pt x="433" y="182" on="1"/>
        <pt x="433" y="214" on="0"/>
        <pt x="393" y="258" on="0"/>
        <pt x="334" y="285" on="0"/>
        <pt x="282" y="304" on="1"/>
        <pt x="214" y="328" on="0"/>
        <pt x="131" y="370" on="0"/>
        <pt x="72" y="449" on="0"/>
        <pt x="72" y="511" on="1"/>
        <pt x="72" y="610" on="0"/>
        <pt x="207" y="710" on="0"/>
        <pt x="309" y="710" on="1"/>
        <pt x="351" y="710" on="0"/>
        <pt x="445" y="692" on="0"/>
        <pt x="511" y="673" on="0"/>
        <pt x="520" y="670" on="1"/>
        <pt x="515" y="500" on="1"/>
        <pt x="450" y="500" on="1"/>
        <pt x="416" y="607" on="1"/>
        <pt x="412" y="608" on="0"/>
        <pt x="382" y="617" on="0"/>
        <pt x="334" y="625" on="0"/>
        <pt x="310" y="625" on="1"/>
        <pt x="246" y="625" on="0"/>
        <pt x="177" y="568" on="0"/>
        <pt x="177" y="528" on="1"/>
        <pt x="177" y="496" on="0"/>
        <pt x="217" y="452" on="0"/>
        <pt x="277" y="424" on="0"/>
        <pt x="331" y="405" on="1"/>
        <pt x="396" y="382" on="0"/>
        <pt x="479" y="341" on="0"/>
        <pt x="537" y="266" on="0"/>
        <pt x="537" y="209" on="1"/>
      </contour>
    </TTGlyph>
    <TTGlyph name="Scircumflex" xMin="70" yMin="-10" xMax="537" yMax="920">
      <component glyphName="S" x="0" y="0" flags="0x0"/>
      <component glyphName="circumflex" x="42" y="100" flags="0x4"/>
    </TTGlyph>
    <TTGlyph name="Scommaaccent" xMin="70" yMin="-285" xMax="537" yMax="710">
      <component glyphName="S" x="0" y="0" flags="0x0"/>
      <component glyphName="uni0326" x="425" y="0" flags="0x0"/>
    </TTGlyph>
    <TTGlyph name="ShortIcy" xMin="40" yMin="0" xMax="768" yMax="909">
      <component glyphName="uni0418" x="0" y="0" flags="0x0"/>
      <component glyphName="uniF6D4" x="180" y="145" flags="0x4"/>
    </TTGlyph>
    <TTGlyph name="T" xMin="10" yMin="0" xMax="555" yMax="700">
      <contour>
        <pt x="130" y="0" on="1"/>
        <pt x="130" y="60" on="1"/>
        <pt x="230" y="80" on="1"/>
        <pt x="230" y="620" on="1"/>
        <pt x="100" y="620" on="1"/>
        <pt x="75" y="520" on="1"/>
        <pt x="10" y="520" on="1"/>
        <pt x="10" y="700" on="1"/>
        <pt x="555" y="700" on="1"/>
        <pt x="555" y="520" on="1"/>
        <pt x="490" y="520" on="1"/>
        <pt x="465" y="620" on="1"/>
        <pt x="335" y="620" on="1"/>
        <pt x="335" y="80" on="1"/>
        <pt x="435" y="60" on="1"/>
        <pt x="435" y="0" on="1"/>
      </contour>
    </TTGlyph>
    <TTGlyph name="Tbar" xMin="10" yMin="0" xMax="555" yMax="700">
      <contour>
        <pt x="10" y="700" on="1"/>
        <pt x="555" y="700" on="1"/>
        <pt x="555" y="520" on="1"/>
        <pt x="490" y="520" on="1"/>
        <pt x="465" y="620" on="1"/>
        <pt x="335" y="620" on="1"/>
        <pt x="335" y="395" on="1"/>
        <pt x="483" y="395" on="1"/>
        <pt x="483" y="315" on="1"/>
        <pt x="335" y="315" on="1"/>
        <pt x="335" y="80" on="1"/>
        <pt x="435" y="60" on="1"/>
        <pt x="435" y="0" on="1"/>
        <pt x="130" y="0" on="1"/>
        <pt x="130" y="60" on="1"/>
        <pt x="230" y="80" on="1"/>
        <pt x="230" y="315" on="1"/>
        <pt x="83" y="315" on="1"/>
        <pt x="83" y="395" on="1"/>
        <pt x="230" y="395" on="1"/>
        <pt x="230" y="620" on="1"/>
        <pt x="100" y="620" on="1"/>
        <pt x="75" y="520" on="1"/>
        <pt x="10" y="520" on="1"/>
      </contour>
    </TTGlyph>
    <TTGlyph name="Tcaron" xMin="10" yMin="0" xMax="555" yMax="920">
      <component glyphName="T" x="0" y="0" flags="0x0"/>
      <component glyphName="caron.Cup" x="110" y="0" flags="0x0"/>
    </TTGlyph>
    <TTGlyph name="Thorn" xMin="40" yMin="0" xMax="565" yMax="700">
      <contour>
        <pt x="40" y="60" on="1"/>
        <pt x="125" y="80" on="1"/>
        <pt x="125" y="620" on="1"/>
        <pt x="40" y="640" on="1"/>
        <pt x="40" y="695" on="1"/>
        <pt x="315" y="700" on="1"/>
        <pt x="315" y="640" on="1"/>
        <pt x="230" y="620" on="1"/>
        <pt x="230" y="565" on="1"/>
        <pt x="335" y="565" on="1"/>
        <pt x="443" y="565" on="0"/>
        <pt x="565" y="467" on="0"/>
        <pt x="565" y="380" on="1"/>
        <pt x="565" y="271" on="0"/>
        <pt x="428" y="155" on="0"/>
        <pt x="300" y="155" on="1"/>
        <pt x="230" y="155" on="1"/>
        <pt x="230" y="80" on="1"/>
        <pt x="315" y="60" on="1"/>
        <pt x="315" y="0" on="1"/>
        <pt x="40" y="0" on="1"/>
      </contour>
      <contour>
        <pt x="300" y="235" on="1"/>
        <pt x="379" y="235" on="0"/>
        <pt x="465" y="302" on="0"/>
        <pt x="465" y="365" on="1"/>
        <pt x="465" y="419" on="0"/>
        <pt x="393" y="485" on="0"/>
        <pt x="330" y="485" on="1"/>
        <pt x="230" y="485" on="1"/>
        <pt x="230" y="235" on="1"/>
      </contour>
    </TTGlyph>
    <TTGlyph name="U" xMin="40" yMin="-10" xMax="750" yMax="700">
      <contour>
        <pt x="247" y="-10" on="0"/>
        <pt x="125" y="127" on="0"/>
        <pt x="125" y="270" on="1"/>
        <pt x="125" y="620" on="1"/>
        <pt x="40" y="640" on="1"/>
        <pt x="40" y="695" on="1"/>
        <pt x="325" y="700" on="1"/>
        <pt x="325" y="640" on="1"/>
        <pt x="230" y="620" on="1"/>
        <pt x="230" y="270" on="1"/>
        <pt x="230" y="195" on="0"/>
        <pt x="264" y="111" on="0"/>
        <pt x="336" y="75" on="0"/>
        <pt x="395" y="75" on="1"/>
        <pt x="458" y="75" on="0"/>
        <pt x="529" y="115" on="0"/>
        <pt x="560" y="206" on="0"/>
        <pt x="560" y="285" on="1"/>
        <pt x="560" y="620" on="1"/>
        <pt x="465" y="640" on="1"/>
        <pt x="465" y="695" on="1"/>
        <pt x="750" y="700" on="1"/>
        <pt x="750" y="640" on="1"/>
        <pt x="665" y="620" on="1"/>
        <pt x="665" y="285" on="1"/>
        <pt x="665" y="138" on="0"/>
        <pt x="541" y="-10" on="0"/>
        <pt x="390" y="-10" on="1"/>
      </contour>
    </TTGlyph>
    <TTGlyph name="Uacute" xMin="40" yMin="-10" xMax="750" yMax="933">
      <component glyphName="U" x="0" y="0" flags="0x0"/>
      <component glyphName="acute.Cup" x="319" y="0" flags="0x0"/>
    </TTGlyph>
    <TTGlyph name="Ubreve" xMin="40" yMin="-10" xMax="750" yMax="910">
      <component glyphName="U" x="0" y="0" flags="0x0"/>
      <component glyphName="breve" x="180" y="145" flags="0x4"/>
    </TTGlyph>
    <TTGlyph name="Ucircumflex" xMin="40" yMin="-10" xMax="750" yMax="920">
      <component glyphName="U" x="0" y="0" flags="0x0"/>
      <component glyphName="circumflex" x="135" y="100" flags="0x4"/>
    </TTGlyph>
    <TTGlyph name="Udieresis" xMin="40" yMin="-10" xMax="750" yMax="885">
      <component glyphName="U" x="0" y="0" flags="0x0"/>
      <component glyphName="dieresis" x="135" y="125" flags="0x4"/>
    </TTGlyph>
    <TTGlyph name="Ugrave" xMin="40" yMin="-10" xMax="750" yMax="935">
      <component glyphName="U" x="0" y="0" flags="0x0"/>
      <component glyphName="grave.Cup" x="235" y="0" flags="0x0"/>
    </TTGlyph>
    <TTGlyph name="Uhungarumlaut" xMin="40" yMin="-10" xMax="750" yMax="941">
      <contour>
        <pt x="275" y="733" on="1"/>
        <pt x="221" y="775" on="1"/>
        <pt x="351" y="941" on="1"/>
        <pt x="417" y="883" on="1"/>
      </contour>
      <contour>
        <pt x="470" y="733" on="1"/>
        <pt x="416" y="775" on="1"/>
        <pt x="546" y="941" on="1"/>
        <pt x="612" y="883" on="1"/>
      </contour>
      <contour>
        <pt x="247" y="-10" on="0"/>
        <pt x="125" y="127" on="0"/>
        <pt x="125" y="270" on="1"/>
        <pt x="125" y="620" on="1"/>
        <pt x="40" y="640" on="1"/>
        <pt x="40" y="695" on="1"/>
        <pt x="325" y="700" on="1"/>
        <pt x="325" y="640" on="1"/>
        <pt x="230" y="620" on="1"/>
        <pt x="230" y="270" on="1"/>
        <pt x="230" y="195" on="0"/>
        <pt x="264" y="111" on="0"/>
        <pt x="336" y="75" on="0"/>
        <pt x="395" y="75" on="1"/>
        <pt x="458" y="75" on="0"/>
        <pt x="529" y="115" on="0"/>
        <pt x="560" y="206" on="0"/>
        <pt x="560" y="285" on="1"/>
        <pt x="560" y="620" on="1"/>
        <pt x="465" y="640" on="1"/>
        <pt x="465" y="695" on="1"/>
        <pt x="750" y="700" on="1"/>
        <pt x="750" y="640" on="1"/>
        <pt x="665" y="620" on="1"/>
        <pt x="665" y="285" on="1"/>
        <pt x="665" y="138" on="0"/>
        <pt x="541" y="-10" on="0"/>
        <pt x="390" y="-10" on="1"/>
      </contour>
    </TTGlyph>
    <TTGlyph name="Umacron" xMin="40" yMin="-10" xMax="750" yMax="865">
      <component glyphName="U" x="0" y="0" flags="0x0"/>
      <component glyphName="macron" x="260" y="130" flags="0x4"/>
    </TTGlyph>
    <TTGlyph name="Uogonek" xMin="40" yMin="-220" xMax="750" yMax="700">
      <contour>
        <pt x="372" y="-220" on="0"/>
        <pt x="315" y="-169" on="0"/>
        <pt x="315" y="-125" on="1"/>
        <pt x="315" y="-87" on="0"/>
        <pt x="363" y="-28" on="0"/>
        <pt x="393" y="-10" on="1"/>
        <pt x="294" y="-10" on="0"/>
        <pt x="176" y="52" on="0"/>
        <pt x="125" y="174" on="0"/>
        <pt x="125" y="270" on="1"/>
        <pt x="125" y="620" on="1"/>
        <pt x="40" y="640" on="1"/>
        <pt x="40" y="695" on="1"/>
        <pt x="325" y="700" on="1"/>
        <pt x="325" y="640" on="1"/>
        <pt x="230" y="620" on="1"/>
        <pt x="230" y="270" on="1"/>
        <pt x="230" y="195" on="0"/>
        <pt x="264" y="111" on="0"/>
        <pt x="336" y="75" on="0"/>
        <pt x="395" y="75" on="1"/>
        <pt x="458" y="75" on="0"/>
        <pt x="529" y="115" on="0"/>
        <pt x="560" y="206" on="0"/>
        <pt x="560" y="285" on="1"/>
        <pt x="560" y="620" on="1"/>
        <pt x="465" y="640" on="1"/>
        <pt x="465" y="695" on="1"/>
        <pt x="750" y="700" on="1"/>
        <pt x="750" y="640" on="1"/>
        <pt x="665" y="620" on="1"/>
        <pt x="665" y="285" on="1"/>
        <pt x="665" y="178" on="0"/>
        <pt x="601" y="43" on="0"/>
        <pt x="527" y="12" on="1"/>
        <pt x="487" y="-5" on="0"/>
        <pt x="395" y="-76" on="0"/>
        <pt x="395" y="-115" on="1"/>
        <pt x="395" y="-137" on="0"/>
        <pt x="420" y="-160" on="0"/>
        <pt x="440" y="-160" on="1"/>
        <pt x="453" y="-160" on="0"/>
        <pt x="481" y="-154" on="0"/>
        <pt x="485" y="-153" on="1"/>
        <pt x="495" y="-200" on="1"/>
        <pt x="492" y="-202" on="0"/>
        <pt x="468" y="-211" on="0"/>
        <pt x="433" y="-220" on="0"/>
        <pt x="415" y="-220" on="1"/>
      </contour>
    </TTGlyph>
    <TTGlyph name="Uring" xMin="40" yMin="-10" xMax="750" yMax="960">
      <component glyphName="U" x="0" y="0" flags="0x0"/>
      <component glyphName="ring" x="205" y="140" flags="0x4"/>
    </TTGlyph>
    <TTGlyph name="Utilde" xMin="40" yMin="-10" xMax="750" yMax="890">
      <contour>
        <pt x="209" y="799" on="0"/>
        <pt x="239" y="848" on="0"/>
        <pt x="288" y="890" on="0"/>
        <pt x="319" y="890" on="1"/>
        <pt x="343" y="890" on="0"/>
        <pt x="386" y="878" on="0"/>
        <pt x="413" y="866" on="1"/>
        <pt x="442" y="854" on="0"/>
        <pt x="475" y="844" on="0"/>
        <pt x="494" y="844" on="1"/>
        <pt x="512" y="844" on="0"/>
        <pt x="541" y="863" on="0"/>
        <pt x="557" y="883" on="0"/>
        <pt x="559" y="886" on="1"/>
        <pt x="594" y="856" on="1"/>
        <pt x="594" y="853" on="0"/>
        <pt x="567" y="806" on="0"/>
        <pt x="520" y="766" on="0"/>
        <pt x="489" y="766" on="1"/>
        <pt x="465" y="766" on="0"/>
        <pt x="424" y="778" on="0"/>
        <pt x="395" y="789" on="1"/>
        <pt x="369" y="800" on="0"/>
        <pt x="333" y="810" on="0"/>
        <pt x="314" y="810" on="1"/>
        <pt x="296" y="810" on="0"/>
        <pt x="265" y="790" on="0"/>
        <pt x="246" y="769" on="0"/>
        <pt x="244" y="766" on="1"/>
        <pt x="209" y="796" on="1"/>
      </contour>
      <contour>
        <pt x="247" y="-10" on="0"/>
        <pt x="125" y="127" on="0"/>
        <pt x="125" y="270" on="1"/>
        <pt x="125" y="620" on="1"/>
        <pt x="40" y="640" on="1"/>
        <pt x="40" y="695" on="1"/>
        <pt x="325" y="700" on="1"/>
        <pt x="325" y="640" on="1"/>
        <pt x="230" y="620" on="1"/>
        <pt x="230" y="270" on="1"/>
        <pt x="230" y="195" on="0"/>
        <pt x="264" y="111" on="0"/>
        <pt x="336" y="75" on="0"/>
        <pt x="395" y="75" on="1"/>
        <pt x="458" y="75" on="0"/>
        <pt x="529" y="115" on="0"/>
        <pt x="560" y="206" on="0"/>
        <pt x="560" y="285" on="1"/>
        <pt x="560" y="620" on="1"/>
        <pt x="465" y="640" on="1"/>
        <pt x="465" y="695" on="1"/>
        <pt x="750" y="700" on="1"/>
        <pt x="750" y="640" on="1"/>
        <pt x="665" y="620" on="1"/>
        <pt x="665" y="285" on="1"/>
        <pt x="665" y="138" on="0"/>
        <pt x="541" y="-10" on="0"/>
        <pt x="390" y="-10" on="1"/>
      </contour>
    </TTGlyph>
    <TTGlyph name="V" xMin="5" yMin="0" xMax="695" yMax="700">
      <contour>
        <pt x="295" y="0" on="1"/>
        <pt x="82" y="620" on="1"/>
        <pt x="5" y="640" on="1"/>
        <pt x="5" y="695" on="1"/>
        <pt x="285" y="700" on="1"/>
        <pt x="285" y="640" on="1"/>
        <pt x="194" y="621" on="1"/>
        <pt x="336" y="183" on="1"/>
        <pt x="351" y="135" on="1"/>
        <pt x="368" y="183" on="1"/>
        <pt x="518" y="620" on="1"/>
        <pt x="425" y="640" on="1"/>
        <pt x="425" y="695" on="1"/>
        <pt x="695" y="700" on="1"/>
        <pt x="695" y="640" on="1"/>
        <pt x="617" y="620" on="1"/>
        <pt x="395" y="0" on="1"/>
      </contour>
    </TTGlyph>
    <TTGlyph name="W" xMin="5" yMin="0" xMax="1030" yMax="700">
      <contour>
        <pt x="83" y="620" on="1"/>
        <pt x="5" y="640" on="1"/>
        <pt x="5" y="695" on="1"/>
        <pt x="285" y="700" on="1"/>
        <pt x="285" y="640" on="1"/>
        <pt x="198" y="620" on="1"/>
        <pt x="305" y="167" on="1"/>
        <pt x="470" y="695" on="1"/>
        <pt x="565" y="700" on="1"/>
        <pt x="727" y="156" on="1"/>
        <pt x="851" y="620" on="1"/>
        <pt x="760" y="640" on="1"/>
        <pt x="760" y="695" on="1"/>
        <pt x="1030" y="700" on="1"/>
        <pt x="1030" y="640" on="1"/>
        <pt x="951" y="620" on="1"/>
        <pt x="775" y="0" on="1"/>
        <pt x="665" y="0" on="1"/>
        <pt x="516" y="568" on="1"/>
        <pt x="350" y="0" on="1"/>
        <pt x="250" y="0" on="1"/>
      </contour>
    </TTGlyph>
    <TTGlyph name="Wacute" xMin="5" yMin="0" xMax="1030" yMax="933">
      <component glyphName="W" x="0" y="0" flags="0x0"/>
      <component glyphName="acute.Cup" x="393" y="0" flags="0x0"/>
    </TTGlyph>
    <TTGlyph name="Wcircumflex" xMin="5" yMin="0" xMax="1030" yMax="920">
      <component glyphName="W" x="0" y="0" flags="0x0"/>
      <component glyphName="circumflex" x="260" y="100" flags="0x4"/>
    </TTGlyph>
    <TTGlyph name="Wdieresis" xMin="5" yMin="0" xMax="1030" yMax="885">
      <component glyphName="W" x="0" y="0" flags="0x0"/>
      <component glyphName="dieresis" x="260" y="125" flags="0x4"/>
    </TTGlyph>
    <TTGlyph name="Wgrave" xMin="5" yMin="0" xMax="1030" yMax="935">
      <component glyphName="W" x="0" y="0" flags="0x0"/>
      <component glyphName="grave.Cup" x="400" y="0" flags="0x0"/>
    </TTGlyph>
    <TTGlyph name="X" xMin="10" yMin="0" xMax="690" yMax="700">
      <contour>
        <pt x="10" y="0" on="1"/>
        <pt x="10" y="60" on="1"/>
        <pt x="75" y="75" on="1"/>
        <pt x="285" y="355" on="1"/>
        <pt x="100" y="620" on="1"/>
        <pt x="25" y="640" on="1"/>
        <pt x="25" y="695" on="1"/>
        <pt x="290" y="700" on="1"/>
        <pt x="290" y="640" on="1"/>
        <pt x="225" y="620" on="1"/>
        <pt x="355" y="430" on="1"/>
        <pt x="485" y="620" on="1"/>
        <pt x="415" y="640" on="1"/>
        <pt x="415" y="695" on="1"/>
        <pt x="680" y="700" on="1"/>
        <pt x="680" y="640" on="1"/>
        <pt x="590" y="620" on="1"/>
        <pt x="410" y="360" on="1"/>
        <pt x="605" y="80" on="1"/>
        <pt x="690" y="60" on="1"/>
        <pt x="690" y="0" on="1"/>
        <pt x="420" y="0" on="1"/>
        <pt x="420" y="60" on="1"/>
        <pt x="480" y="75" on="1"/>
        <pt x="340" y="280" on="1"/>
        <pt x="190" y="80" on="1"/>
        <pt x="275" y="60" on="1"/>
        <pt x="275" y="0" on="1"/>
      </contour>
    </TTGlyph>
    <TTGlyph name="Y" xMin="10" yMin="0" xMax="635" yMax="700">
      <contour>
        <pt x="185" y="0" on="1"/>
        <pt x="185" y="60" on="1"/>
        <pt x="270" y="80" on="1"/>
        <pt x="270" y="259" on="1"/>
        <pt x="77" y="621" on="1"/>
        <pt x="10" y="640" on="1"/>
        <pt x="10" y="695" on="1"/>
        <pt x="260" y="700" on="1"/>
        <pt x="260" y="640" on="1"/>
        <pt x="192" y="620" on="1"/>
        <pt x="325" y="340" on="1"/>
        <pt x="472" y="620" on="1"/>
        <pt x="395" y="640" on="1"/>
        <pt x="395" y="695" on="1"/>
        <pt x="635" y="700" on="1"/>
        <pt x="635" y="640" on="1"/>
        <pt x="573" y="622" on="1"/>
        <pt x="375" y="261" on="1"/>
        <pt x="375" y="80" on="1"/>
        <pt x="460" y="60" on="1"/>
        <pt x="460" y="0" on="1"/>
      </contour>
    </TTGlyph>
    <TTGlyph name="Yacute" xMin="10" yMin="0" xMax="635" yMax="933">
      <component glyphName="Y" x="0" y="0" flags="0x0"/>
      <component glyphName="acute.Cup" x="255" y="0" flags="0x0"/>
    </TTGlyph>
    <TTGlyph name="Ycircumflex" xMin="10" yMin="0" xMax="635" yMax="920">
      <component glyphName="Y" x="0" y="0" flags="0x0"/>
      <component glyphName="circumflex" x="71" y="100" flags="0x4"/>
    </TTGlyph>
    <TTGlyph name="Ydieresis" xMin="10" yMin="0" xMax="635" yMax="885">
      <component glyphName="Y" x="0" y="0" flags="0x0"/>
      <component glyphName="dieresis" x="60" y="125" flags="0x4"/>
    </TTGlyph>
    <TTGlyph name="Ygrave" xMin="10" yMin="0" xMax="635" yMax="935">
      <component glyphName="Y" x="0" y="0" flags="0x0"/>
      <component glyphName="grave.Cup" x="190" y="0" flags="0x0"/>
    </TTGlyph>
    <TTGlyph name="Z" xMin="40" yMin="0" xMax="575" yMax="700">
      <contour>
        <pt x="40" y="0" on="1"/>
        <pt x="40" y="70" on="1"/>
        <pt x="440" y="620" on="1"/>
        <pt x="160" y="620" on="1"/>
        <pt x="135" y="520" on="1"/>
        <pt x="70" y="520" on="1"/>
        <pt x="70" y="700" on="1"/>
        <pt x="575" y="700" on="1"/>
        <pt x="575" y="630" on="1"/>
        <pt x="175" y="80" on="1"/>
        <pt x="485" y="80" on="1"/>
        <pt x="505" y="180" on="1"/>
        <pt x="570" y="180" on="1"/>
        <pt x="570" y="0" on="1"/>
      </contour>
    </TTGlyph>
    <TTGlyph name="Zacute" xMin="40" yMin="0" xMax="575" yMax="933">
      <component glyphName="Z" x="0" y="0" flags="0x0"/>
      <component glyphName="acute.Cup" x="215" y="0" flags="0x0"/>
    </TTGlyph>
    <TTGlyph name="Zcaron" xMin="40" yMin="0" xMax="575" yMax="920">
      <component glyphName="Z" x="0" y="0" flags="0x0"/>
      <component glyphName="caron.Cup" x="129" y="0" flags="0x0"/>
    </TTGlyph>
    <TTGlyph name="Zdotaccent" xMin="40" yMin="0" xMax="575" yMax="885">
      <component glyphName="Z" x="0" y="0" flags="0x0"/>
      <component glyphName="dotaccent" x="160" y="125" flags="0x4"/>
    </TTGlyph>
    <TTGlyph name="a" xMin="45" yMin="-10" xMax="535" yMax="540">
      <contour>
        <pt x="124" y="-10" on="0"/>
        <pt x="45" y="69" on="0"/>
        <pt x="45" y="140" on="1"/>
        <pt x="45" y="223" on="0"/>
        <pt x="164" y="295" on="0"/>
        <pt x="275" y="295" on="1"/>
        <pt x="355" y="295" on="1"/>
        <pt x="355" y="375" on="1"/>
        <pt x="355" y="419" on="0"/>
        <pt x="306" y="465" on="0"/>
        <pt x="260" y="465" on="1"/>
        <pt x="233" y="465" on="0"/>
        <pt x="188" y="458" on="0"/>
        <pt x="162" y="451" on="0"/>
        <pt x="159" y="450" on="1"/>
        <pt x="145" y="375" on="1"/>
        <pt x="80" y="375" on="1"/>
        <pt x="75" y="500" on="1"/>
        <pt x="83" y="503" on="0"/>
        <pt x="146" y="522" on="0"/>
        <pt x="232" y="540" on="0"/>
        <pt x="270" y="540" on="1"/>
        <pt x="361" y="540" on="0"/>
        <pt x="455" y="468" on="0"/>
        <pt x="455" y="385" on="1"/>
        <pt x="455" y="80" on="1"/>
        <pt x="535" y="60" on="1"/>
        <pt x="535" y="5" on="1"/>
        <pt x="380" y="0" on="1"/>
        <pt x="359" y="70" on="1"/>
        <pt x="327" y="38" on="0"/>
        <pt x="242" y="-10" on="0"/>
        <pt x="195" y="-10" on="1"/>
      </contour>
      <contour>
        <pt x="253" y="70" on="0"/>
        <pt x="313" y="106" on="0"/>
        <pt x="355" y="148" on="0"/>
        <pt x="355" y="150" on="1"/>
        <pt x="355" y="230" on="1"/>
        <pt x="285" y="230" on="1"/>
        <pt x="211" y="230" on="0"/>
        <pt x="147" y="190" on="0"/>
        <pt x="147" y="145" on="1"/>
        <pt x="147" y="111" on="0"/>
        <pt x="186" y="70" on="0"/>
        <pt x="220" y="70" on="1"/>
      </contour>
    </TTGlyph>
    <TTGlyph name="aacute" xMin="45" yMin="-10" xMax="535" yMax="800">
      <component glyphName="a" x="0" y="0" flags="0x0"/>
      <component glyphName="acute" x="160" y="0" flags="0x0"/>
    </TTGlyph>
    <TTGlyph name="abreve" xMin="45" yMin="-10" xMax="535" yMax="765">
      <component glyphName="a" x="0" y="0" flags="0x0"/>
      <component glyphName="breve" x="45" y="0" flags="0x0"/>
    </TTGlyph>
    <TTGlyph name="acircumflex" xMin="45" yMin="-10" xMax="535" yMax="785">
      <component glyphName="a" x="0" y="0" flags="0x0"/>
      <component glyphName="circumflex.x" x="1" y="-35" flags="0x4"/>
    </TTGlyph>
    <TTGlyph name="acute" xMin="0" yMin="595" xMax="245" yMax="800">
      <contour>
        <pt x="35" y="595" on="1"/>
        <pt x="0" y="645" on="1"/>
        <pt x="195" y="800" on="1"/>
        <pt x="245" y="725" on="1"/>
      </contour>
    </TTGlyph>
    <TTGlyph name="acute.Cup" xMin="2" yMin="735" xMax="235" yMax="933">
      <contour>
        <pt x="235" y="860" on="1"/>
        <pt x="40" y="735" on="1"/>
        <pt x="2" y="788" on="1"/>
        <pt x="184" y="933" on="1"/>
      </contour>
    </TTGlyph>
    <TTGlyph name="acute.x" xMin="30" yMin="600" xMax="275" yMax="805">
      <contour>
        <pt x="65" y="600" on="1"/>
        <pt x="30" y="650" on="1"/>
        <pt x="225" y="805" on="1"/>
        <pt x="275" y="730" on="1"/>
      </contour>
    </TTGlyph>
    <TTGlyph name="adieresis" xMin="45" yMin="-10" xMax="535" yMax="760">
      <component glyphName="a" x="0" y="0" flags="0x0"/>
      <component glyphName="dieresis" x="5" y="0" flags="0x0"/>
    </TTGlyph>
    <TTGlyph name="ae" xMin="45" yMin="-10" xMax="800" yMax="540">
      <contour>
        <pt x="124" y="-10" on="0"/>
        <pt x="45" y="69" on="0"/>
        <pt x="45" y="140" on="1"/>
        <pt x="45" y="223" on="0"/>
        <pt x="164" y="295" on="0"/>
        <pt x="275" y="295" on="1"/>
        <pt x="355" y="295" on="1"/>
        <pt x="355" y="375" on="1"/>
        <pt x="355" y="419" on="0"/>
        <pt x="306" y="465" on="0"/>
        <pt x="260" y="465" on="1"/>
        <pt x="233" y="465" on="0"/>
        <pt x="188" y="458" on="0"/>
        <pt x="162" y="451" on="0"/>
        <pt x="159" y="450" on="1"/>
        <pt x="145" y="375" on="1"/>
        <pt x="80" y="375" on="1"/>
        <pt x="75" y="500" on="1"/>
        <pt x="83" y="503" on="0"/>
        <pt x="146" y="522" on="0"/>
        <pt x="232" y="540" on="0"/>
        <pt x="270" y="540" on="1"/>
        <pt x="390" y="540" on="0"/>
        <pt x="426" y="470" on="1"/>
        <pt x="457" y="504" on="0"/>
        <pt x="540" y="540" on="0"/>
        <pt x="590" y="540" on="1"/>
        <pt x="800" y="540" on="0"/>
        <pt x="800" y="305" on="1"/>
        <pt x="800" y="289" on="0"/>
        <pt x="796" y="257" on="0"/>
        <pt x="795" y="252" on="1"/>
        <pt x="450" y="250" on="1"/>
        <pt x="450" y="168" on="0"/>
        <pt x="530" y="70" on="0"/>
        <pt x="595" y="70" on="1"/>
        <pt x="639" y="70" on="0"/>
        <pt x="714" y="94" on="0"/>
        <pt x="763" y="123" on="0"/>
        <pt x="763" y="125" on="1"/>
        <pt x="798" y="73" on="1"/>
        <pt x="798" y="71" on="0"/>
        <pt x="733" y="27" on="0"/>
        <pt x="638" y="-10" on="0"/>
        <pt x="585" y="-10" on="1"/>
        <pt x="444" y="-10" on="0"/>
        <pt x="388" y="96" on="1"/>
        <pt x="361" y="61" on="0"/>
        <pt x="261" y="-10" on="0"/>
        <pt x="195" y="-10" on="1"/>
      </contour>
      <contour>
        <pt x="694" y="325" on="1"/>
        <pt x="694" y="386" on="0"/>
        <pt x="642" y="462" on="0"/>
        <pt x="585" y="462" on="1"/>
        <pt x="527" y="462" on="0"/>
        <pt x="459" y="384" on="0"/>
        <pt x="454" y="325" on="1"/>
      </contour>
      <contour>
        <pt x="253" y="70" on="0"/>
        <pt x="313" y="108" on="0"/>
        <pt x="355" y="153" on="0"/>
        <pt x="355" y="155" on="1"/>
        <pt x="355" y="230" on="1"/>
        <pt x="285" y="230" on="1"/>
        <pt x="210" y="230" on="0"/>
        <pt x="145" y="190" on="0"/>
        <pt x="145" y="145" on="1"/>
        <pt x="145" y="111" on="0"/>
        <pt x="186" y="70" on="0"/>
        <pt x="220" y="70" on="1"/>
      </contour>
    </TTGlyph>
    <TTGlyph name="aeacute" xMin="45" yMin="-10" xMax="800" yMax="800">
      <component glyphName="ae" x="0" y="0" flags="0x0"/>
      <component glyphName="acute" x="335" y="0" flags="0x0"/>
    </TTGlyph>
    <TTGlyph name="agrave" xMin="45" yMin="-10" xMax="535" yMax="800">
      <component glyphName="a" x="0" y="0" flags="0x0"/>
      <component glyphName="grave" x="135" y="0" flags="0x0"/>
    </TTGlyph>
    <TTGlyph name="amacron" xMin="45" yMin="-10" xMax="535" yMax="735">
      <component glyphName="a" x="0" y="0" flags="0x0"/>
      <component glyphName="macron" x="133" y="0" flags="0x0"/>
    </TTGlyph>
    <TTGlyph name="ampersand" xMin="70" yMin="-10" xMax="630" yMax="710">
      <contour>
        <pt x="186" y="-10" on="0"/>
        <pt x="70" y="100" on="0"/>
        <pt x="70" y="195" on="1"/>
        <pt x="70" y="248" on="0"/>
        <pt x="130" y="331" on="0"/>
        <pt x="205" y="383" on="0"/>
        <pt x="205" y="380" on="1"/>
        <pt x="205" y="377" on="0"/>
        <pt x="139" y="410" on="0"/>
        <pt x="87" y="477" on="0"/>
        <pt x="87" y="530" on="1"/>
        <pt x="87" y="620" on="0"/>
        <pt x="210" y="710" on="0"/>
        <pt x="320" y="710" on="1"/>
        <pt x="359" y="710" on="0"/>
        <pt x="444" y="692" on="0"/>
        <pt x="502" y="673" on="0"/>
        <pt x="510" y="670" on="1"/>
        <pt x="505" y="530" on="1"/>
        <pt x="441" y="530" on="1"/>
        <pt x="420" y="610" on="1"/>
        <pt x="417" y="611" on="0"/>
        <pt x="390" y="618" on="0"/>
        <pt x="341" y="625" on="0"/>
        <pt x="310" y="625" on="1"/>
        <pt x="251" y="625" on="0"/>
        <pt x="190" y="571" on="0"/>
        <pt x="190" y="525" on="1"/>
        <pt x="190" y="474" on="0"/>
        <pt x="266" y="410" on="0"/>
        <pt x="320" y="410" on="1"/>
        <pt x="630" y="410" on="1"/>
        <pt x="630" y="350" on="1"/>
        <pt x="550" y="330" on="1"/>
        <pt x="550" y="210" on="1"/>
        <pt x="550" y="106" on="0"/>
        <pt x="419" y="-10" on="0"/>
        <pt x="305" y="-10" on="1"/>
      </contour>
      <contour>
        <pt x="379" y="75" on="0"/>
        <pt x="450" y="142" on="0"/>
        <pt x="450" y="205" on="1"/>
        <pt x="450" y="330" on="1"/>
        <pt x="315" y="330" on="1"/>
        <pt x="278" y="330" on="0"/>
        <pt x="213" y="296" on="0"/>
        <pt x="175" y="237" on="0"/>
        <pt x="175" y="200" on="1"/>
        <pt x="175" y="138" on="0"/>
        <pt x="249" y="75" on="0"/>
        <pt x="315" y="75" on="1"/>
      </contour>
    </TTGlyph>
    <TTGlyph name="aogonek" xMin="45" yMin="-220" xMax="535" yMax="540">
      <contour>
        <pt x="535" y="7" on="0"/>
        <pt x="468" y="-33" on="0"/>
        <pt x="415" y="-86" on="0"/>
        <pt x="415" y="-115" on="1"/>
        <pt x="415" y="-137" on="0"/>
        <pt x="440" y="-160" on="0"/>
        <pt x="460" y="-160" on="1"/>
        <pt x="473" y="-160" on="0"/>
        <pt x="501" y="-154" on="0"/>
        <pt x="505" y="-153" on="1"/>
        <pt x="515" y="-200" on="1"/>
        <pt x="512" y="-202" on="0"/>
        <pt x="488" y="-211" on="0"/>
        <pt x="453" y="-220" on="0"/>
        <pt x="435" y="-220" on="1"/>
        <pt x="392" y="-220" on="0"/>
        <pt x="335" y="-169" on="0"/>
        <pt x="335" y="-125" on="1"/>
        <pt x="335" y="-77" on="0"/>
        <pt x="405" y="-12" on="0"/>
        <pt x="438" y="2" on="1"/>
        <pt x="380" y="0" on="1"/>
        <pt x="359" y="70" on="1"/>
        <pt x="327" y="38" on="0"/>
        <pt x="242" y="-10" on="0"/>
        <pt x="195" y="-10" on="1"/>
        <pt x="124" y="-10" on="0"/>
        <pt x="45" y="69" on="0"/>
        <pt x="45" y="140" on="1"/>
        <pt x="45" y="223" on="0"/>
        <pt x="164" y="295" on="0"/>
        <pt x="275" y="295" on="1"/>
        <pt x="355" y="295" on="1"/>
        <pt x="355" y="375" on="1"/>
        <pt x="355" y="419" on="0"/>
        <pt x="306" y="465" on="0"/>
        <pt x="260" y="465" on="1"/>
        <pt x="233" y="465" on="0"/>
        <pt x="188" y="458" on="0"/>
        <pt x="162" y="451" on="0"/>
        <pt x="159" y="450" on="1"/>
        <pt x="145" y="375" on="1"/>
        <pt x="80" y="375" on="1"/>
        <pt x="75" y="500" on="1"/>
        <pt x="83" y="503" on="0"/>
        <pt x="146" y="522" on="0"/>
        <pt x="232" y="540" on="0"/>
        <pt x="270" y="540" on="1"/>
        <pt x="361" y="540" on="0"/>
        <pt x="455" y="468" on="0"/>
        <pt x="455" y="385" on="1"/>
        <pt x="455" y="80" on="1"/>
        <pt x="535" y="60" on="1"/>
        <pt x="535" y="5" on="1"/>
      </contour>
      <contour>
        <pt x="147" y="111" on="0"/>
        <pt x="186" y="70" on="0"/>
        <pt x="220" y="70" on="1"/>
        <pt x="253" y="70" on="0"/>
        <pt x="313" y="106" on="0"/>
        <pt x="355" y="148" on="0"/>
        <pt x="355" y="150" on="1"/>
        <pt x="355" y="230" on="1"/>
        <pt x="285" y="230" on="1"/>
        <pt x="211" y="230" on="0"/>
        <pt x="147" y="190" on="0"/>
        <pt x="147" y="145" on="1"/>
      </contour>
    </TTGlyph>
    <TTGlyph name="approxequal" xMin="60" yMin="100" xMax="566" yMax="410">
      <contour>
        <pt x="60" y="314" on="0"/>
        <pt x="97" y="366" on="0"/>
        <pt x="164" y="410" on="0"/>
        <pt x="211" y="410" on="1"/>
        <pt x="243" y="410" on="0"/>
        <pt x="294" y="391" on="0"/>
        <pt x="327" y="373" on="1"/>
        <pt x="357" y="357" on="0"/>
        <pt x="401" y="340" on="0"/>
        <pt x="426" y="340" on="1"/>
        <pt x="450" y="340" on="0"/>
        <pt x="492" y="367" on="0"/>
        <pt x="520" y="398" on="0"/>
        <pt x="520" y="400" on="1"/>
        <pt x="566" y="369" on="1"/>
        <pt x="566" y="366" on="0"/>
        <pt x="526" y="311" on="0"/>
        <pt x="461" y="265" on="0"/>
        <pt x="421" y="265" on="1"/>
        <pt x="389" y="265" on="0"/>
        <pt x="335" y="284" on="0"/>
        <pt x="299" y="302" on="1"/>
        <pt x="266" y="319" on="0"/>
        <pt x="221" y="335" on="0"/>
        <pt x="196" y="335" on="1"/>
        <pt x="172" y="335" on="0"/>
        <pt x="132" y="310" on="0"/>
        <pt x="106" y="281" on="0"/>
        <pt x="106" y="279" on="1"/>
        <pt x="60" y="310" on="1"/>
      </contour>
      <contour>
        <pt x="60" y="149" on="0"/>
        <pt x="97" y="201" on="0"/>
        <pt x="164" y="245" on="0"/>
        <pt x="211" y="245" on="1"/>
        <pt x="243" y="245" on="0"/>
        <pt x="294" y="226" on="0"/>
        <pt x="327" y="208" on="1"/>
        <pt x="357" y="192" on="0"/>
        <pt x="401" y="175" on="0"/>
        <pt x="426" y="175" on="1"/>
        <pt x="450" y="175" on="0"/>
        <pt x="492" y="202" on="0"/>
        <pt x="520" y="233" on="0"/>
        <pt x="520" y="235" on="1"/>
        <pt x="566" y="204" on="1"/>
        <pt x="566" y="201" on="0"/>
        <pt x="526" y="146" on="0"/>
        <pt x="461" y="100" on="0"/>
        <pt x="421" y="100" on="1"/>
        <pt x="389" y="100" on="0"/>
        <pt x="335" y="119" on="0"/>
        <pt x="299" y="137" on="1"/>
        <pt x="266" y="154" on="0"/>
        <pt x="221" y="170" on="0"/>
        <pt x="196" y="170" on="1"/>
        <pt x="172" y="170" on="0"/>
        <pt x="132" y="145" on="0"/>
        <pt x="106" y="116" on="0"/>
        <pt x="106" y="114" on="1"/>
        <pt x="60" y="145" on="1"/>
      </contour>
    </TTGlyph>
    <TTGlyph name="aring" xMin="45" yMin="-10" xMax="535" yMax="820">
      <component glyphName="a" x="0" y="0" flags="0x0"/>
      <component glyphName="ring" x="87" y="0" flags="0x0"/>
    </TTGlyph>
    <TTGlyph name="aringacute" xMin="0" yMin="-10" xMax="535" yMax="805">
      <contour>
        <pt x="167" y="724" on="0"/>
        <pt x="200" y="777" on="0"/>
        <pt x="253" y="805" on="0"/>
        <pt x="282" y="805" on="1"/>
        <pt x="328" y="805" on="0"/>
        <pt x="397" y="746" on="0"/>
        <pt x="397" y="695" on="1"/>
        <pt x="397" y="661" on="0"/>
        <pt x="364" y="608" on="0"/>
        <pt x="311" y="580" on="0"/>
        <pt x="282" y="580" on="1"/>
        <pt x="236" y="580" on="0"/>
        <pt x="167" y="639" on="0"/>
        <pt x="167" y="690" on="1"/>
      </contour>
      <contour>
        <pt x="227" y="662" on="0"/>
        <pt x="256" y="630" on="0"/>
        <pt x="282" y="630" on="1"/>
        <pt x="306" y="630" on="0"/>
        <pt x="337" y="664" on="0"/>
        <pt x="337" y="693" on="1"/>
        <pt x="337" y="723" on="0"/>
        <pt x="308" y="755" on="0"/>
        <pt x="282" y="755" on="1"/>
        <pt x="258" y="755" on="0"/>
        <pt x="227" y="721" on="0"/>
        <pt x="227" y="692" on="1"/>
      </contour>
      <contour>
        <pt x="124" y="-10" on="0"/>
        <pt x="45" y="69" on="0"/>
        <pt x="45" y="140" on="1"/>
        <pt x="45" y="223" on="0"/>
        <pt x="164" y="295" on="0"/>
        <pt x="275" y="295" on="1"/>
        <pt x="355" y="295" on="1"/>
        <pt x="355" y="375" on="1"/>
        <pt x="355" y="419" on="0"/>
        <pt x="306" y="465" on="0"/>
        <pt x="260" y="465" on="1"/>
        <pt x="233" y="465" on="0"/>
        <pt x="188" y="458" on="0"/>
        <pt x="162" y="451" on="0"/>
        <pt x="159" y="450" on="1"/>
        <pt x="145" y="375" on="1"/>
        <pt x="80" y="375" on="1"/>
        <pt x="75" y="500" on="1"/>
        <pt x="83" y="503" on="0"/>
        <pt x="146" y="522" on="0"/>
        <pt x="232" y="540" on="0"/>
        <pt x="270" y="540" on="1"/>
        <pt x="361" y="540" on="0"/>
        <pt x="455" y="468" on="0"/>
        <pt x="455" y="385" on="1"/>
        <pt x="455" y="80" on="1"/>
        <pt x="535" y="60" on="1"/>
        <pt x="535" y="5" on="1"/>
        <pt x="380" y="0" on="1"/>
        <pt x="359" y="70" on="1"/>
        <pt x="327" y="38" on="0"/>
        <pt x="242" y="-10" on="0"/>
        <pt x="195" y="-10" on="1"/>
      </contour>
      <contour>
        <pt x="253" y="70" on="0"/>
        <pt x="313" y="106" on="0"/>
        <pt x="355" y="148" on="0"/>
        <pt x="355" y="150" on="1"/>
        <pt x="355" y="230" on="1"/>
        <pt x="285" y="230" on="1"/>
        <pt x="211" y="230" on="0"/>
        <pt x="147" y="190" on="0"/>
        <pt x="147" y="145" on="1"/>
        <pt x="147" y="111" on="0"/>
        <pt x="186" y="70" on="0"/>
        <pt x="220" y="70" on="1"/>
      </contour>
      <contour>
        <pt x="4" y="60" on="1"/>
        <pt x="0" y="65" on="1"/>
        <pt x="20" y="80" on="1"/>
        <pt x="25" y="73" on="1"/>
      </contour>
    </TTGlyph>
    <TTGlyph name="arrowboth" xMin="50" yMin="117" xMax="635" yMax="515">
      <contour>
        <pt x="464" y="117" on="1"/>
        <pt x="418" y="161" on="1"/>
        <pt x="525" y="280" on="1"/>
        <pt x="162" y="280" on="1"/>
        <pt x="264" y="164" on="1"/>
        <pt x="217" y="119" on="1"/>
        <pt x="50" y="296" on="1"/>
        <pt x="50" y="338" on="1"/>
        <pt x="221" y="515" on="1"/>
        <pt x="267" y="471" on="1"/>
        <pt x="160" y="352" on="1"/>
        <pt x="523" y="352" on="1"/>
        <pt x="421" y="468" on="1"/>
        <pt x="468" y="513" on="1"/>
        <pt x="635" y="336" on="1"/>
        <pt x="635" y="294" on="1"/>
      </contour>
    </TTGlyph>
    <TTGlyph name="arrowdown" xMin="30" yMin="-10" xMax="550" yMax="565">
      <contour>
        <pt x="329" y="565" on="1"/>
        <pt x="329" y="115" on="1"/>
        <pt x="505" y="270" on="1"/>
        <pt x="550" y="215" on="1"/>
        <pt x="315" y="-10" on="1"/>
        <pt x="265" y="-10" on="1"/>
        <pt x="30" y="210" on="1"/>
        <pt x="80" y="265" on="1"/>
        <pt x="249" y="116" on="1"/>
        <pt x="249" y="565" on="1"/>
      </contour>
    </TTGlyph>
    <TTGlyph name="arrowleft" xMin="50" yMin="55" xMax="625" yMax="575">
      <contour>
        <pt x="625" y="276" on="1"/>
        <pt x="174" y="276" on="1"/>
        <pt x="330" y="100" on="1"/>
        <pt x="275" y="55" on="1"/>
        <pt x="50" y="290" on="1"/>
        <pt x="50" y="340" on="1"/>
        <pt x="270" y="575" on="1"/>
        <pt x="325" y="525" on="1"/>
        <pt x="176" y="356" on="1"/>
        <pt x="625" y="356" on="1"/>
      </contour>
    </TTGlyph>
    <TTGlyph name="arrowright" xMin="-1" yMin="55" xMax="574" yMax="575">
      <contour>
        <pt x="-1" y="356" on="1"/>
        <pt x="448" y="356" on="1"/>
        <pt x="299" y="525" on="1"/>
        <pt x="354" y="575" on="1"/>
        <pt x="574" y="340" on="1"/>
        <pt x="574" y="290" on="1"/>
        <pt x="349" y="55" on="1"/>
        <pt x="294" y="100" on="1"/>
        <pt x="449" y="276" on="1"/>
        <pt x="-1" y="276" on="1"/>
      </contour>
    </TTGlyph>
    <TTGlyph name="arrowup" xMin="30" yMin="0" xMax="550" yMax="575">
      <contour>
        <pt x="251" y="0" on="1"/>
        <pt x="251" y="450" on="1"/>
        <pt x="75" y="295" on="1"/>
        <pt x="30" y="350" on="1"/>
        <pt x="265" y="575" on="1"/>
        <pt x="315" y="575" on="1"/>
        <pt x="550" y="355" on="1"/>
        <pt x="500" y="300" on="1"/>
        <pt x="331" y="449" on="1"/>
        <pt x="331" y="0" on="1"/>
      </contour>
    </TTGlyph>
    <TTGlyph name="arrowupdn" xMin="30" yMin="-10" xMax="428" yMax="575">
      <contour>
        <pt x="209" y="-10" on="1"/>
        <pt x="32" y="157" on="1"/>
        <pt x="77" y="204" on="1"/>
        <pt x="193" y="102" on="1"/>
        <pt x="193" y="465" on="1"/>
        <pt x="74" y="358" on="1"/>
        <pt x="30" y="404" on="1"/>
        <pt x="207" y="575" on="1"/>
        <pt x="249" y="575" on="1"/>
        <pt x="426" y="408" on="1"/>
        <pt x="381" y="361" on="1"/>
        <pt x="265" y="463" on="1"/>
        <pt x="265" y="100" on="1"/>
        <pt x="384" y="207" on="1"/>
        <pt x="428" y="161" on="1"/>
        <pt x="251" y="-10" on="1"/>
      </contour>
    </TTGlyph>
    <TTGlyph name="arrowupdnbse" xMin="30" yMin="-150" xMax="428" yMax="575">
      <contour>
        <pt x="209" y="-10" on="1"/>
        <pt x="32" y="157" on="1"/>
        <pt x="77" y="204" on="1"/>
        <pt x="193" y="102" on="1"/>
        <pt x="193" y="465" on="1"/>
        <pt x="74" y="358" on="1"/>
        <pt x="30" y="404" on="1"/>
        <pt x="207" y="575" on="1"/>
        <pt x="249" y="575" on="1"/>
        <pt x="426" y="408" on="1"/>
        <pt x="381" y="361" on="1"/>
        <pt x="265" y="463" on="1"/>
        <pt x="265" y="100" on="1"/>
        <pt x="384" y="207" on="1"/>
        <pt x="428" y="161" on="1"/>
        <pt x="251" y="-10" on="1"/>
      </contour>
      <contour>
        <pt x="32" y="-150" on="1"/>
        <pt x="32" y="-80" on="1"/>
        <pt x="426" y="-80" on="1"/>
        <pt x="426" y="-150" on="1"/>
      </contour>
    </TTGlyph>
    <TTGlyph name="asciicircum" xMin="60" yMin="320" xMax="510" yMax="700">
      <contour>
        <pt x="145" y="320" on="1"/>
        <pt x="60" y="320" on="1"/>
        <pt x="250" y="700" on="1"/>
        <pt x="320" y="700" on="1"/>
        <pt x="510" y="320" on="1"/>
        <pt x="423" y="320" on="1"/>
        <pt x="282" y="600" on="1"/>
      </contour>
    </TTGlyph>
    <TTGlyph name="asciitilde" xMin="60" yMin="195" xMax="566" yMax="345">
      <contour>
        <pt x="60" y="249" on="0"/>
        <pt x="97" y="301" on="0"/>
        <pt x="164" y="345" on="0"/>
        <pt x="211" y="345" on="1"/>
        <pt x="243" y="345" on="0"/>
        <pt x="294" y="326" on="0"/>
        <pt x="327" y="308" on="1"/>
        <pt x="357" y="292" on="0"/>
        <pt x="401" y="275" on="0"/>
        <pt x="426" y="275" on="1"/>
        <pt x="450" y="275" on="0"/>
        <pt x="492" y="302" on="0"/>
        <pt x="520" y="333" on="0"/>
        <pt x="520" y="335" on="1"/>
        <pt x="566" y="299" on="1"/>
        <pt x="566" y="296" on="0"/>
        <pt x="526" y="241" on="0"/>
        <pt x="461" y="195" on="0"/>
        <pt x="421" y="195" on="1"/>
        <pt x="389" y="195" on="0"/>
        <pt x="335" y="214" on="0"/>
        <pt x="299" y="232" on="1"/>
        <pt x="266" y="249" on="0"/>
        <pt x="221" y="265" on="0"/>
        <pt x="196" y="265" on="1"/>
        <pt x="172" y="265" on="0"/>
        <pt x="132" y="240" on="0"/>
        <pt x="106" y="211" on="0"/>
        <pt x="106" y="209" on="1"/>
        <pt x="60" y="245" on="1"/>
      </contour>
    </TTGlyph>
    <TTGlyph name="asterisk" xMin="25" yMin="415" xMax="363" yMax="735">
      <contour>
        <pt x="223" y="608" on="1"/>
        <pt x="196" y="586" on="1"/>
        <pt x="170" y="609" on="1"/>
        <pt x="157" y="733" on="1"/>
        <pt x="230" y="735" on="1"/>
      </contour>
      <contour>
        <pt x="238" y="558" on="1"/>
        <pt x="209" y="577" on="1"/>
        <pt x="223" y="608" on="1"/>
        <pt x="338" y="657" on="1"/>
        <pt x="363" y="587" on="1"/>
      </contour>
      <contour>
        <pt x="170" y="609" on="1"/>
        <pt x="183" y="577" on="1"/>
        <pt x="153" y="560" on="1"/>
        <pt x="25" y="585" on="1"/>
        <pt x="49" y="655" on="1"/>
      </contour>
      <contour>
        <pt x="153" y="560" on="1"/>
        <pt x="188" y="562" on="1"/>
        <pt x="195" y="528" on="1"/>
        <pt x="130" y="415" on="1"/>
        <pt x="70" y="457" on="1"/>
      </contour>
      <contour>
        <pt x="204" y="562" on="1"/>
        <pt x="238" y="558" on="1"/>
        <pt x="322" y="459" on="1"/>
        <pt x="264" y="415" on="1"/>
        <pt x="195" y="528" on="1"/>
      </contour>
    </TTGlyph>
    <TTGlyph name="asterisk.alt" xMin="25" yMin="414" xMax="361" yMax="736">
      <contour>
        <pt x="219" y="619" on="1"/>
        <pt x="192" y="588" on="1"/>
        <pt x="167" y="619" on="1"/>
        <pt x="153" y="736" on="1"/>
        <pt x="233" y="736" on="1"/>
      </contour>
      <contour>
        <pt x="167" y="619" on="1"/>
        <pt x="182" y="581" on="1"/>
        <pt x="142" y="575" on="1"/>
        <pt x="25" y="626" on="1"/>
        <pt x="64" y="695" on="1"/>
      </contour>
      <contour>
        <pt x="244" y="575" on="1"/>
        <pt x="203" y="581" on="1"/>
        <pt x="219" y="619" on="1"/>
        <pt x="322" y="695" on="1"/>
        <pt x="361" y="626" on="1"/>
      </contour>
      <contour>
        <pt x="142" y="575" on="1"/>
        <pt x="182" y="570" on="1"/>
        <pt x="167" y="532" on="1"/>
        <pt x="64" y="456" on="1"/>
        <pt x="25" y="525" on="1"/>
      </contour>
      <contour>
        <pt x="203" y="570" on="1"/>
        <pt x="244" y="575" on="1"/>
        <pt x="361" y="525" on="1"/>
        <pt x="322" y="456" on="1"/>
        <pt x="219" y="531" on="1"/>
      </contour>
      <contour>
        <pt x="167" y="532" on="1"/>
        <pt x="192" y="563" on="1"/>
        <pt x="219" y="531" on="1"/>
        <pt x="233" y="414" on="1"/>
        <pt x="153" y="414" on="1"/>
      </contour>
    </TTGlyph>
    <TTGlyph name="at" xMin="65" yMin="-10" xMax="760" yMax="710">
      <contour>
        <pt x="233" y="-10" on="0"/>
        <pt x="65" y="173" on="0"/>
        <pt x="65" y="345" on="1"/>
        <pt x="65" y="454" on="0"/>
        <pt x="153" y="619" on="0"/>
        <pt x="314" y="710" on="0"/>
        <pt x="420" y="710" on="1"/>
        <pt x="524" y="710" on="0"/>
        <pt x="677" y="625" on="0"/>
        <pt x="760" y="467" on="0"/>
        <pt x="760" y="360" on="1"/>
        <pt x="760" y="265" on="0"/>
        <pt x="669" y="155" on="0"/>
        <pt x="591" y="155" on="1"/>
        <pt x="551" y="155" on="0"/>
        <pt x="502" y="184" on="0"/>
        <pt x="482" y="217" on="0"/>
        <pt x="482" y="221" on="1"/>
        <pt x="482" y="220" on="0"/>
        <pt x="444" y="187" on="0"/>
        <pt x="392" y="159" on="0"/>
        <pt x="364" y="159" on="1"/>
        <pt x="310" y="159" on="0"/>
        <pt x="253" y="216" on="0"/>
        <pt x="253" y="271" on="1"/>
        <pt x="253" y="327" on="0"/>
        <pt x="333" y="382" on="0"/>
        <pt x="415" y="382" on="1"/>
        <pt x="469" y="382" on="1"/>
        <pt x="469" y="430" on="1"/>
        <pt x="469" y="485" on="0"/>
        <pt x="401" y="485" on="1"/>
        <pt x="384" y="485" on="0"/>
        <pt x="336" y="475" on="0"/>
        <pt x="304" y="467" on="0"/>
        <pt x="299" y="465" on="1"/>
        <pt x="281" y="522" on="1"/>
        <pt x="287" y="524" on="0"/>
        <pt x="330" y="539" on="0"/>
        <pt x="392" y="553" on="0"/>
        <pt x="421" y="553" on="1"/>
        <pt x="486" y="553" on="0"/>
        <pt x="549" y="497" on="0"/>
        <pt x="549" y="438" on="1"/>
        <pt x="549" y="259" on="1"/>
        <pt x="549" y="238" on="0"/>
        <pt x="574" y="215" on="0"/>
        <pt x="596" y="215" on="1"/>
        <pt x="635" y="215" on="0"/>
        <pt x="680" y="290" on="0"/>
        <pt x="680" y="355" on="1"/>
        <pt x="680" y="440" on="0"/>
        <pt x="615" y="567" on="0"/>
        <pt x="495" y="635" on="0"/>
        <pt x="415" y="635" on="1"/>
        <pt x="332" y="635" on="0"/>
        <pt x="210" y="566" on="0"/>
        <pt x="145" y="438" on="0"/>
        <pt x="145" y="350" on="1"/>
        <pt x="145" y="215" on="0"/>
        <pt x="277" y="65" on="0"/>
        <pt x="395" y="65" on="1"/>
        <pt x="424" y="65" on="0"/>
        <pt x="477" y="76" on="0"/>
        <pt x="511" y="88" on="0"/>
        <pt x="515" y="90" on="1"/>
        <pt x="555" y="30" on="1"/>
        <pt x="555" y="29" on="0"/>
        <pt x="510" y="8" on="0"/>
        <pt x="436" y="-10" on="0"/>
        <pt x="390" y="-10" on="1"/>
      </contour>
      <contour>
        <pt x="404" y="225" on="0"/>
        <pt x="442" y="245" on="0"/>
        <pt x="466" y="267" on="0"/>
        <pt x="469" y="270" on="1"/>
        <pt x="469" y="328" on="1"/>
        <pt x="421" y="328" on="1"/>
        <pt x="372" y="328" on="0"/>
        <pt x="331" y="302" on="0"/>
        <pt x="331" y="271" on="1"/>
        <pt x="331" y="250" on="0"/>
        <pt x="359" y="225" on="0"/>
        <pt x="383" y="225" on="1"/>
      </contour>
    </TTGlyph>
    <TTGlyph name="atilde" xMin="45" yMin="-10" xMax="535" yMax="764">
      <component glyphName="a" x="0" y="0" flags="0x0"/>
      <component glyphName="tilde" x="-22" y="0" flags="0x0"/>
    </TTGlyph>
    <TTGlyph name="b" xMin="15" yMin="-10" xMax="555" yMax="770">
      <contour>
        <pt x="231" y="-10" on="0"/>
        <pt x="149" y="1" on="0"/>
        <pt x="101" y="13" on="0"/>
        <pt x="95" y="15" on="1"/>
        <pt x="95" y="690" on="1"/>
        <pt x="15" y="710" on="1"/>
        <pt x="15" y="765" on="1"/>
        <pt x="195" y="770" on="1"/>
        <pt x="195" y="482" on="1"/>
        <pt x="269" y="540" on="0"/>
        <pt x="345" y="540" on="1"/>
        <pt x="450" y="540" on="0"/>
        <pt x="555" y="401" on="0"/>
        <pt x="555" y="280" on="1"/>
        <pt x="555" y="194" on="0"/>
        <pt x="492" y="63" on="0"/>
        <pt x="368" y="-10" on="0"/>
        <pt x="280" y="-10" on="1"/>
      </contour>
      <contour>
        <pt x="377" y="70" on="0"/>
        <pt x="450" y="180" on="0"/>
        <pt x="450" y="270" on="1"/>
        <pt x="450" y="358" on="0"/>
        <pt x="389" y="460" on="0"/>
        <pt x="325" y="460" on="1"/>
        <pt x="285" y="460" on="0"/>
        <pt x="227" y="431" on="0"/>
        <pt x="195" y="398" on="0"/>
        <pt x="195" y="395" on="1"/>
        <pt x="195" y="80" on="1"/>
        <pt x="195" y="79" on="0"/>
        <pt x="249" y="70" on="0"/>
        <pt x="295" y="70" on="1"/>
      </contour>
    </TTGlyph>
    <TTGlyph name="backslash" xMin="30" yMin="0" xMax="466" yMax="700">
      <contour>
        <pt x="466" y="0" on="1"/>
        <pt x="361" y="0" on="1"/>
        <pt x="30" y="700" on="1"/>
        <pt x="135" y="700" on="1"/>
      </contour>
    </TTGlyph>
    <TTGlyph name="bar" xMin="100" yMin="-230" xMax="180" yMax="755">
      <contour>
        <pt x="100" y="-230" on="1"/>
        <pt x="100" y="755" on="1"/>
        <pt x="180" y="755" on="1"/>
        <pt x="180" y="-230" on="1"/>
      </contour>
    </TTGlyph>
    <TTGlyph name="braceleft" xMin="30" yMin="-225" xMax="340" yMax="775">
      <contour>
        <pt x="204" y="-225" on="0"/>
        <pt x="125" y="-148" on="0"/>
        <pt x="125" y="-55" on="1"/>
        <pt x="125" y="156" on="1"/>
        <pt x="125" y="206" on="0"/>
        <pt x="83" y="260" on="0"/>
        <pt x="30" y="260" on="1"/>
        <pt x="30" y="330" on="1"/>
        <pt x="83" y="330" on="0"/>
        <pt x="125" y="384" on="0"/>
        <pt x="125" y="434" on="1"/>
        <pt x="125" y="605" on="1"/>
        <pt x="125" y="698" on="0"/>
        <pt x="204" y="775" on="0"/>
        <pt x="295" y="775" on="1"/>
        <pt x="340" y="775" on="1"/>
        <pt x="340" y="710" on="1"/>
        <pt x="292" y="710" on="0"/>
        <pt x="239" y="691" on="0"/>
        <pt x="217" y="646" on="0"/>
        <pt x="217" y="605" on="1"/>
        <pt x="217" y="434" on="1"/>
        <pt x="217" y="383" on="0"/>
        <pt x="170" y="312" on="0"/>
        <pt x="124" y="295" on="1"/>
        <pt x="170" y="278" on="0"/>
        <pt x="217" y="207" on="0"/>
        <pt x="217" y="156" on="1"/>
        <pt x="217" y="-55" on="1"/>
        <pt x="217" y="-96" on="0"/>
        <pt x="239" y="-141" on="0"/>
        <pt x="292" y="-160" on="0"/>
        <pt x="340" y="-160" on="1"/>
        <pt x="340" y="-225" on="1"/>
        <pt x="295" y="-225" on="1"/>
      </contour>
    </TTGlyph>
    <TTGlyph name="braceright" xMin="40" yMin="-225" xMax="350" yMax="775">
      <contour>
        <pt x="40" y="-160" on="1"/>
        <pt x="88" y="-160" on="0"/>
        <pt x="141" y="-141" on="0"/>
        <pt x="163" y="-96" on="0"/>
        <pt x="163" y="-55" on="1"/>
        <pt x="163" y="156" on="1"/>
        <pt x="163" y="207" on="0"/>
        <pt x="210" y="278" on="0"/>
        <pt x="256" y="295" on="1"/>
        <pt x="210" y="312" on="0"/>
        <pt x="163" y="383" on="0"/>
        <pt x="163" y="434" on="1"/>
        <pt x="163" y="605" on="1"/>
        <pt x="163" y="646" on="0"/>
        <pt x="141" y="691" on="0"/>
        <pt x="88" y="710" on="0"/>
        <pt x="40" y="710" on="1"/>
        <pt x="40" y="775" on="1"/>
        <pt x="85" y="775" on="1"/>
        <pt x="176" y="775" on="0"/>
        <pt x="255" y="698" on="0"/>
        <pt x="255" y="605" on="1"/>
        <pt x="255" y="434" on="1"/>
        <pt x="255" y="384" on="0"/>
        <pt x="297" y="330" on="0"/>
        <pt x="350" y="330" on="1"/>
        <pt x="350" y="260" on="1"/>
        <pt x="297" y="260" on="0"/>
        <pt x="255" y="206" on="0"/>
        <pt x="255" y="156" on="1"/>
        <pt x="255" y="-55" on="1"/>
        <pt x="255" y="-148" on="0"/>
        <pt x="176" y="-225" on="0"/>
        <pt x="85" y="-225" on="1"/>
        <pt x="40" y="-225" on="1"/>
      </contour>
    </TTGlyph>
    <TTGlyph name="bracketleft" xMin="90" yMin="-230" xMax="305" yMax="770">
      <contour>
        <pt x="305" y="-225" on="1"/>
        <pt x="90" y="-230" on="1"/>
        <pt x="90" y="770" on="1"/>
        <pt x="305" y="765" on="1"/>
        <pt x="305" y="700" on="1"/>
        <pt x="185" y="689" on="1"/>
        <pt x="185" y="-149" on="1"/>
        <pt x="305" y="-160" on="1"/>
      </contour>
    </TTGlyph>
    <TTGlyph name="bracketright" xMin="40" yMin="-230" xMax="255" yMax="770">
      <contour>
        <pt x="255" y="-230" on="1"/>
        <pt x="40" y="-225" on="1"/>
        <pt x="40" y="-160" on="1"/>
        <pt x="160" y="-149" on="1"/>
        <pt x="160" y="689" on="1"/>
        <pt x="40" y="700" on="1"/>
        <pt x="40" y="765" on="1"/>
        <pt x="255" y="770" on="1"/>
      </contour>
    </TTGlyph>
    <TTGlyph name="breve" xMin="80" yMin="615" xMax="360" yMax="765">
      <contour>
        <pt x="184" y="615" on="0"/>
        <pt x="121" y="648" on="0"/>
        <pt x="81" y="714" on="0"/>
        <pt x="80" y="760" on="1"/>
        <pt x="140" y="765" on="1"/>
        <pt x="148" y="727" on="0"/>
        <pt x="193" y="689" on="0"/>
        <pt x="221" y="689" on="1"/>
        <pt x="251" y="689" on="0"/>
        <pt x="296" y="728" on="0"/>
        <pt x="300" y="760" on="1"/>
        <pt x="360" y="765" on="1"/>
        <pt x="359" y="717" on="0"/>
        <pt x="319" y="649" on="0"/>
        <pt x="255" y="615" on="0"/>
        <pt x="219" y="615" on="1"/>
      </contour>
    </TTGlyph>
    <TTGlyph name="brokenbar" xMin="105" yMin="-265" xMax="185" yMax="765">
      <contour>
        <pt x="105" y="365" on="1"/>
        <pt x="105" y="765" on="1"/>
        <pt x="185" y="765" on="1"/>
        <pt x="185" y="365" on="1"/>
      </contour>
      <contour>
        <pt x="105" y="-265" on="1"/>
        <pt x="105" y="145" on="1"/>
        <pt x="185" y="145" on="1"/>
        <pt x="185" y="-265" on="1"/>
      </contour>
    </TTGlyph>
    <TTGlyph name="bullet" xMin="85" yMin="155" xMax="405" yMax="475">
      <contour>
        <pt x="85" y="358" on="0"/>
        <pt x="128" y="432" on="0"/>
        <pt x="202" y="475" on="0"/>
        <pt x="245" y="475" on="1"/>
        <pt x="288" y="475" on="0"/>
        <pt x="362" y="432" on="0"/>
        <pt x="405" y="358" on="0"/>
        <pt x="405" y="315" on="1"/>
        <pt x="405" y="272" on="0"/>
        <pt x="362" y="198" on="0"/>
        <pt x="288" y="155" on="0"/>
        <pt x="245" y="155" on="1"/>
        <pt x="202" y="155" on="0"/>
        <pt x="128" y="198" on="0"/>
        <pt x="85" y="272" on="0"/>
        <pt x="85" y="315" on="1"/>
      </contour>
    </TTGlyph>
    <TTGlyph name="c" xMin="40" yMin="-10" xMax="490" yMax="540">
      <contour>
        <pt x="168" y="-10" on="0"/>
        <pt x="40" y="135" on="0"/>
        <pt x="40" y="265" on="1"/>
        <pt x="40" y="345" on="0"/>
        <pt x="104" y="470" on="0"/>
        <pt x="221" y="540" on="0"/>
        <pt x="300" y="540" on="1"/>
        <pt x="340" y="540" on="0"/>
        <pt x="416" y="522" on="0"/>
        <pt x="464" y="503" on="0"/>
        <pt x="470" y="500" on="1"/>
        <pt x="465" y="365" on="1"/>
        <pt x="400" y="365" on="1"/>
        <pt x="385" y="450" on="1"/>
        <pt x="378" y="452" on="0"/>
        <pt x="326" y="460" on="0"/>
        <pt x="295" y="460" on="1"/>
        <pt x="223" y="460" on="0"/>
        <pt x="145" y="367" on="0"/>
        <pt x="145" y="275" on="1"/>
        <pt x="145" y="175" on="0"/>
        <pt x="227" y="70" on="0"/>
        <pt x="300" y="70" on="1"/>
        <pt x="342" y="70" on="0"/>
        <pt x="411" y="97" on="0"/>
        <pt x="455" y="128" on="0"/>
        <pt x="455" y="130" on="1"/>
        <pt x="490" y="70" on="1"/>
        <pt x="490" y="68" on="0"/>
        <pt x="428" y="26" on="0"/>
        <pt x="339" y="-10" on="0"/>
        <pt x="290" y="-10" on="1"/>
      </contour>
    </TTGlyph>
    <TTGlyph name="cacute" xMin="40" yMin="-10" xMax="490" yMax="800">
      <component glyphName="c" x="0" y="0" flags="0x0"/>
      <component glyphName="acute" x="190" y="0" flags="0x0"/>
    </TTGlyph>
    <TTGlyph name="caron" xMin="0" yMin="600" xMax="360" yMax="785">
      <contour>
        <pt x="150" y="600" on="1"/>
        <pt x="0" y="740" on="1"/>
        <pt x="40" y="785" on="1"/>
        <pt x="178" y="677" on="1"/>
        <pt x="320" y="785" on="1"/>
        <pt x="360" y="740" on="1"/>
        <pt x="210" y="605" on="1"/>
      </contour>
    </TTGlyph>
    <TTGlyph name="caron.Cup" xMin="0" yMin="750" xMax="350" yMax="920">
      <contour>
        <pt x="145" y="750" on="1"/>
        <pt x="0" y="875" on="1"/>
        <pt x="40" y="920" on="1"/>
        <pt x="173" y="827" on="1"/>
        <pt x="310" y="920" on="1"/>
        <pt x="350" y="875" on="1"/>
        <pt x="205" y="755" on="1"/>
      </contour>
    </TTGlyph>
    <TTGlyph name="caron.x" xMin="0" yMin="552" xMax="131" yMax="780">
      <contour>
        <pt x="19" y="632" on="0"/>
        <pt x="35" y="729" on="0"/>
        <pt x="33" y="775" on="1"/>
        <pt x="131" y="780" on="1"/>
        <pt x="131" y="737" on="0"/>
        <pt x="94" y="627" on="0"/>
        <pt x="59" y="552" on="1"/>
        <pt x="0" y="573" on="1"/>
      </contour>
    </TTGlyph>
    <TTGlyph name="ccaron" xMin="40" yMin="-10" xMax="490" yMax="785">
      <component glyphName="c" x="0" y="0" flags="0x0"/>
      <component glyphName="caron" x="112" y="0" flags="0x0"/>
    </TTGlyph>
    <TTGlyph name="ccedilla" xMin="40" yMin="-219" xMax="490" yMax="540">
      <contour>
        <pt x="271" y="-219" on="0"/>
        <pt x="220" y="-207" on="0"/>
        <pt x="190" y="-193" on="0"/>
        <pt x="186" y="-191" on="1"/>
        <pt x="210" y="-150" on="1"/>
        <pt x="213" y="-152" on="0"/>
        <pt x="239" y="-162" on="0"/>
        <pt x="277" y="-171" on="0"/>
        <pt x="295" y="-171" on="1"/>
        <pt x="315" y="-171" on="0"/>
        <pt x="342" y="-149" on="0"/>
        <pt x="342" y="-130" on="1"/>
        <pt x="342" y="-107" on="0"/>
        <pt x="297" y="-79" on="0"/>
        <pt x="260" y="-79" on="1"/>
        <pt x="260" y="-8" on="1"/>
        <pt x="152" y="0" on="0"/>
        <pt x="40" y="143" on="0"/>
        <pt x="40" y="265" on="1"/>
        <pt x="40" y="345" on="0"/>
        <pt x="104" y="470" on="0"/>
        <pt x="221" y="540" on="0"/>
        <pt x="300" y="540" on="1"/>
        <pt x="340" y="540" on="0"/>
        <pt x="416" y="522" on="0"/>
        <pt x="464" y="503" on="0"/>
        <pt x="470" y="500" on="1"/>
        <pt x="465" y="365" on="1"/>
        <pt x="400" y="365" on="1"/>
        <pt x="385" y="450" on="1"/>
        <pt x="378" y="452" on="0"/>
        <pt x="326" y="460" on="0"/>
        <pt x="295" y="460" on="1"/>
        <pt x="223" y="460" on="0"/>
        <pt x="145" y="367" on="0"/>
        <pt x="145" y="275" on="1"/>
        <pt x="145" y="175" on="0"/>
        <pt x="227" y="70" on="0"/>
        <pt x="300" y="70" on="1"/>
        <pt x="342" y="70" on="0"/>
        <pt x="411" y="97" on="0"/>
        <pt x="455" y="128" on="0"/>
        <pt x="455" y="130" on="1"/>
        <pt x="490" y="70" on="1"/>
        <pt x="490" y="68" on="0"/>
        <pt x="438" y="32" on="0"/>
        <pt x="362" y="-3" on="0"/>
        <pt x="320" y="-8" on="1"/>
        <pt x="320" y="-44" on="1"/>
        <pt x="360" y="-52" on="0"/>
        <pt x="407" y="-98" on="0"/>
        <pt x="407" y="-133" on="1"/>
        <pt x="407" y="-171" on="0"/>
        <pt x="346" y="-219" on="0"/>
        <pt x="300" y="-219" on="1"/>
      </contour>
    </TTGlyph>
    <TTGlyph name="ccircumflex" xMin="40" yMin="-10" xMax="490" yMax="785">
      <component glyphName="c" x="0" y="0" flags="0x0"/>
      <component glyphName="circumflex.x" x="21" y="-35" flags="0x4"/>
    </TTGlyph>
    <TTGlyph name="cdotaccent" xMin="40" yMin="-10" xMax="490" yMax="760">
      <component glyphName="c" x="0" y="0" flags="0x0"/>
      <component glyphName="dotaccent" x="150" y="0" flags="0x0"/>
    </TTGlyph>
    <TTGlyph name="cedilla" xMin="110" yMin="-219" xMax="331" yMax="0">
      <contour>
        <pt x="193" y="-219" on="0"/>
        <pt x="143" y="-207" on="0"/>
        <pt x="114" y="-193" on="0"/>
        <pt x="110" y="-191" on="1"/>
        <pt x="134" y="-150" on="1"/>
        <pt x="137" y="-152" on="0"/>
        <pt x="161" y="-162" on="0"/>
        <pt x="195" y="-171" on="0"/>
        <pt x="211" y="-171" on="1"/>
        <pt x="236" y="-171" on="0"/>
        <pt x="266" y="-147" on="0"/>
        <pt x="266" y="-128" on="1"/>
        <pt x="266" y="-105" on="0"/>
        <pt x="222" y="-79" on="0"/>
        <pt x="184" y="-79" on="1"/>
        <pt x="184" y="0" on="1"/>
        <pt x="244" y="0" on="1"/>
        <pt x="244" y="-43" on="1"/>
        <pt x="285" y="-50" on="0"/>
        <pt x="331" y="-96" on="0"/>
        <pt x="331" y="-130" on="1"/>
        <pt x="331" y="-170" on="0"/>
        <pt x="271" y="-219" on="0"/>
        <pt x="222" y="-219" on="1"/>
      </contour>
    </TTGlyph>
    <TTGlyph name="cent" xMin="45" yMin="0" xMax="479" yMax="700">
      <contour>
        <pt x="240" y="113" on="1"/>
        <pt x="144" y="127" on="0"/>
        <pt x="45" y="257" on="0"/>
        <pt x="45" y="360" on="1"/>
        <pt x="45" y="455" on="0"/>
        <pt x="146" y="588" on="0"/>
        <pt x="240" y="604" on="1"/>
        <pt x="240" y="700" on="1"/>
        <pt x="315" y="700" on="1"/>
        <pt x="315" y="608" on="1"/>
        <pt x="351" y="606" on="0"/>
        <pt x="418" y="587" on="0"/>
        <pt x="460" y="568" on="0"/>
        <pt x="465" y="565" on="1"/>
        <pt x="460" y="435" on="1"/>
        <pt x="395" y="435" on="1"/>
        <pt x="380" y="520" on="1"/>
        <pt x="380" y="521" on="0"/>
        <pt x="326" y="530" on="0"/>
        <pt x="295" y="530" on="1"/>
        <pt x="220" y="530" on="0"/>
        <pt x="150" y="453" on="0"/>
        <pt x="150" y="370" on="1"/>
        <pt x="150" y="190" on="0"/>
        <pt x="300" y="190" on="1"/>
        <pt x="338" y="190" on="0"/>
        <pt x="400" y="212" on="0"/>
        <pt x="440" y="238" on="0"/>
        <pt x="440" y="240" on="1"/>
        <pt x="479" y="185" on="1"/>
        <pt x="479" y="184" on="0"/>
        <pt x="427" y="149" on="0"/>
        <pt x="355" y="116" on="0"/>
        <pt x="315" y="111" on="1"/>
        <pt x="315" y="0" on="1"/>
        <pt x="240" y="0" on="1"/>
      </contour>
    </TTGlyph>
    <TTGlyph name="circumflex" xMin="85" yMin="650" xMax="435" yMax="820">
      <contour>
        <pt x="125" y="650" on="1"/>
        <pt x="85" y="695" on="1"/>
        <pt x="230" y="815" on="1"/>
        <pt x="290" y="820" on="1"/>
        <pt x="435" y="695" on="1"/>
        <pt x="395" y="650" on="1"/>
        <pt x="262" y="743" on="1"/>
      </contour>
    </TTGlyph>
    <TTGlyph name="circumflex.Cup" xMin="0" yMin="750" xMax="350" yMax="920">
      <contour>
        <pt x="40" y="750" on="1"/>
        <pt x="0" y="795" on="1"/>
        <pt x="145" y="915" on="1"/>
        <pt x="205" y="920" on="1"/>
        <pt x="350" y="795" on="1"/>
        <pt x="310" y="750" on="1"/>
        <pt x="177" y="843" on="1"/>
      </contour>
    </TTGlyph>
    <TTGlyph name="circumflex.x" xMin="80" yMin="635" xMax="440" yMax="820">
      <contour>
        <pt x="120" y="635" on="1"/>
        <pt x="80" y="680" on="1"/>
        <pt x="230" y="815" on="1"/>
        <pt x="290" y="820" on="1"/>
        <pt x="440" y="680" on="1"/>
        <pt x="400" y="635" on="1"/>
        <pt x="262" y="743" on="1"/>
      </contour>
    </TTGlyph>
    <TTGlyph name="colon" xMin="75" yMin="-10" xMax="205" yMax="455">
      <contour>
        <pt x="75" y="418" on="0"/>
        <pt x="113" y="455" on="0"/>
        <pt x="140" y="455" on="1"/>
        <pt x="170" y="455" on="0"/>
        <pt x="205" y="418" on="0"/>
        <pt x="205" y="385" on="1"/>
        <pt x="205" y="353" on="0"/>
        <pt x="168" y="315" on="0"/>
        <pt x="140" y="315" on="1"/>
        <pt x="110" y="315" on="0"/>
        <pt x="75" y="352" on="0"/>
        <pt x="75" y="385" on="1"/>
      </contour>
      <contour>
        <pt x="75" y="93" on="0"/>
        <pt x="113" y="130" on="0"/>
        <pt x="140" y="130" on="1"/>
        <pt x="170" y="130" on="0"/>
        <pt x="205" y="93" on="0"/>
        <pt x="205" y="60" on="1"/>
        <pt x="205" y="28" on="0"/>
        <pt x="168" y="-10" on="0"/>
        <pt x="140" y="-10" on="1"/>
        <pt x="110" y="-10" on="0"/>
        <pt x="75" y="27" on="0"/>
        <pt x="75" y="60" on="1"/>
      </contour>
    </TTGlyph>
    <TTGlyph name="comma" xMin="40" yMin="-154" xMax="200" yMax="130">
      <contour>
        <pt x="70" y="92" on="0"/>
        <pt x="106" y="130" on="0"/>
        <pt x="135" y="130" on="1"/>
        <pt x="164" y="130" on="0"/>
        <pt x="200" y="95" on="0"/>
        <pt x="200" y="56" on="1"/>
        <pt x="200" y="15" on="0"/>
        <pt x="138" y="-97" on="0"/>
        <pt x="85" y="-154" on="1"/>
        <pt x="40" y="-116" on="1"/>
        <pt x="44" y="-111" on="0"/>
        <pt x="69" y="-73" on="0"/>
        <pt x="93" y="-26" on="0"/>
        <pt x="93" y="-10" on="1"/>
        <pt x="93" y="0" on="0"/>
        <pt x="84" y="16" on="1"/>
        <pt x="70" y="42" on="0"/>
        <pt x="70" y="63" on="1"/>
      </contour>
    </TTGlyph>
    <TTGlyph name="copyright" xMin="45" yMin="-10" xMax="775" yMax="710">
      <contour>
        <pt x="296" y="-10" on="0"/>
        <pt x="135" y="80" on="0"/>
        <pt x="45" y="241" on="0"/>
        <pt x="45" y="345" on="1"/>
        <pt x="45" y="449" on="0"/>
        <pt x="140" y="615" on="0"/>
        <pt x="306" y="710" on="0"/>
        <pt x="410" y="710" on="1"/>
        <pt x="514" y="710" on="0"/>
        <pt x="681" y="620" on="0"/>
        <pt x="775" y="458" on="0"/>
        <pt x="775" y="355" on="1"/>
        <pt x="775" y="252" on="0"/>
        <pt x="676" y="85" on="0"/>
        <pt x="504" y="-10" on="0"/>
        <pt x="400" y="-10" on="1"/>
      </contour>
      <contour>
        <pt x="489" y="62" on="0"/>
        <pt x="621" y="135" on="0"/>
        <pt x="695" y="266" on="0"/>
        <pt x="695" y="350" on="1"/>
        <pt x="695" y="434" on="0"/>
        <pt x="621" y="565" on="0"/>
        <pt x="489" y="638" on="0"/>
        <pt x="405" y="638" on="1"/>
        <pt x="321" y="638" on="0"/>
        <pt x="194" y="565" on="0"/>
        <pt x="125" y="434" on="0"/>
        <pt x="125" y="350" on="1"/>
        <pt x="125" y="266" on="0"/>
        <pt x="194" y="135" on="0"/>
        <pt x="321" y="62" on="0"/>
        <pt x="405" y="62" on="1"/>
      </contour>
      <contour>
        <pt x="326" y="155" on="0"/>
        <pt x="230" y="251" on="0"/>
        <pt x="230" y="343" on="1"/>
        <pt x="230" y="438" on="0"/>
        <pt x="330" y="551" on="0"/>
        <pt x="417" y="551" on="1"/>
        <pt x="445" y="551" on="0"/>
        <pt x="501" y="537" on="0"/>
        <pt x="539" y="522" on="0"/>
        <pt x="544" y="520" on="1"/>
        <pt x="542" y="414" on="1"/>
        <pt x="486" y="414" on="1"/>
        <pt x="472" y="482" on="1"/>
        <pt x="445" y="490" on="0"/>
        <pt x="410" y="490" on="1"/>
        <pt x="362" y="490" on="0"/>
        <pt x="315" y="417" on="0"/>
        <pt x="315" y="348" on="1"/>
        <pt x="315" y="283" on="0"/>
        <pt x="368" y="220" on="0"/>
        <pt x="415" y="220" on="1"/>
        <pt x="439" y="220" on="0"/>
        <pt x="487" y="240" on="0"/>
        <pt x="518" y="261" on="0"/>
        <pt x="522" y="264" on="1"/>
        <pt x="549" y="218" on="1"/>
        <pt x="549" y="216" on="0"/>
        <pt x="507" y="183" on="0"/>
        <pt x="446" y="155" on="0"/>
        <pt x="410" y="155" on="1"/>
      </contour>
    </TTGlyph>
    <TTGlyph name="currency" xMin="50" yMin="58" xMax="528" yMax="538">
      <contour>
        <pt x="50" y="110" on="1"/>
        <pt x="128" y="188" on="1"/>
        <pt x="101" y="233" on="0"/>
        <pt x="101" y="295" on="1"/>
        <pt x="101" y="356" on="0"/>
        <pt x="132" y="404" on="1"/>
        <pt x="50" y="486" on="1"/>
        <pt x="99" y="538" on="1"/>
        <pt x="182" y="456" on="1"/>
        <pt x="232" y="490" on="0"/>
        <pt x="296" y="490" on="1"/>
        <pt x="356" y="490" on="0"/>
        <pt x="401" y="461" on="1"/>
        <pt x="479" y="538" on="1"/>
        <pt x="528" y="486" on="1"/>
        <pt x="452" y="410" on="1"/>
        <pt x="481" y="363" on="0"/>
        <pt x="481" y="300" on="1"/>
        <pt x="481" y="239" on="0"/>
        <pt x="449" y="189" on="1"/>
        <pt x="528" y="110" on="1"/>
        <pt x="479" y="58" on="1"/>
        <pt x="398" y="138" on="1"/>
        <pt x="349" y="105" on="0"/>
        <pt x="286" y="105" on="1"/>
        <pt x="223" y="105" on="0"/>
        <pt x="177" y="135" on="1"/>
        <pt x="99" y="58" on="1"/>
      </contour>
      <contour>
        <pt x="344" y="175" on="0"/>
        <pt x="396" y="240" on="0"/>
        <pt x="396" y="298" on="1"/>
        <pt x="396" y="356" on="0"/>
        <pt x="344" y="420" on="0"/>
        <pt x="291" y="420" on="1"/>
        <pt x="238" y="420" on="0"/>
        <pt x="186" y="356" on="0"/>
        <pt x="186" y="298" on="1"/>
        <pt x="186" y="240" on="0"/>
        <pt x="238" y="175" on="0"/>
        <pt x="291" y="175" on="1"/>
      </contour>
    </TTGlyph>
    <TTGlyph name="d" xMin="45" yMin="-10" xMax="590" yMax="770">
      <contour>
        <pt x="150" y="-10" on="0"/>
        <pt x="45" y="129" on="0"/>
        <pt x="45" y="250" on="1"/>
        <pt x="45" y="383" on="0"/>
        <pt x="179" y="540" on="0"/>
        <pt x="310" y="540" on="1"/>
        <pt x="359" y="540" on="0"/>
        <pt x="405" y="524" on="1"/>
        <pt x="405" y="690" on="1"/>
        <pt x="320" y="710" on="1"/>
        <pt x="320" y="765" on="1"/>
        <pt x="505" y="770" on="1"/>
        <pt x="505" y="80" on="1"/>
        <pt x="590" y="60" on="1"/>
        <pt x="590" y="5" on="1"/>
        <pt x="420" y="0" on="1"/>
        <pt x="412" y="57" on="1"/>
        <pt x="345" y="-10" on="0"/>
        <pt x="255" y="-10" on="1"/>
      </contour>
      <contour>
        <pt x="313" y="70" on="0"/>
        <pt x="371" y="103" on="0"/>
        <pt x="405" y="142" on="0"/>
        <pt x="405" y="145" on="1"/>
        <pt x="405" y="440" on="1"/>
        <pt x="402" y="442" on="0"/>
        <pt x="378" y="451" on="0"/>
        <pt x="331" y="460" on="0"/>
        <pt x="300" y="460" on="1"/>
        <pt x="150" y="460" on="0"/>
        <pt x="150" y="260" on="1"/>
        <pt x="150" y="172" on="0"/>
        <pt x="211" y="70" on="0"/>
        <pt x="275" y="70" on="1"/>
      </contour>
    </TTGlyph>
    <TTGlyph name="dagger" xMin="40" yMin="0" xMax="455" yMax="755">
      <contour>
        <pt x="247" y="505" on="1"/>
        <pt x="40" y="530" on="1"/>
        <pt x="40" y="600" on="1"/>
        <pt x="209" y="600" on="1"/>
        <pt x="205" y="750" on="1"/>
        <pt x="290" y="755" on="1"/>
        <pt x="285" y="600" on="1"/>
        <pt x="455" y="600" on="1"/>
        <pt x="455" y="530" on="1"/>
      </contour>
      <contour>
        <pt x="247" y="0" on="1"/>
        <pt x="205" y="40" on="1"/>
        <pt x="195" y="455" on="1"/>
        <pt x="247" y="445" on="1"/>
        <pt x="300" y="455" on="1"/>
        <pt x="290" y="40" on="1"/>
      </contour>
    </TTGlyph>
    <TTGlyph name="daggerdbl" xMin="40" yMin="0" xMax="455" yMax="755">
      <contour>
        <pt x="247" y="505" on="1"/>
        <pt x="40" y="530" on="1"/>
        <pt x="40" y="600" on="1"/>
        <pt x="209" y="600" on="1"/>
        <pt x="205" y="750" on="1"/>
        <pt x="290" y="755" on="1"/>
        <pt x="285" y="600" on="1"/>
        <pt x="455" y="600" on="1"/>
        <pt x="455" y="530" on="1"/>
      </contour>
      <contour>
        <pt x="247" y="354" on="1"/>
        <pt x="81" y="396" on="1"/>
        <pt x="81" y="469" on="1"/>
        <pt x="247" y="445" on="1"/>
        <pt x="413" y="469" on="1"/>
        <pt x="413" y="396" on="1"/>
      </contour>
      <contour>
        <pt x="247" y="0" on="1"/>
        <pt x="205" y="40" on="1"/>
        <pt x="199" y="303" on="1"/>
        <pt x="247" y="293" on="1"/>
        <pt x="296" y="303" on="1"/>
        <pt x="290" y="40" on="1"/>
      </contour>
    </TTGlyph>
    <TTGlyph name="dcaron" xMin="45" yMin="-10" xMax="691" yMax="780">
      <contour>
        <pt x="579" y="632" on="0"/>
        <pt x="595" y="729" on="0"/>
        <pt x="593" y="775" on="1"/>
        <pt x="691" y="780" on="1"/>
        <pt x="691" y="737" on="0"/>
        <pt x="654" y="627" on="0"/>
        <pt x="619" y="552" on="1"/>
        <pt x="560" y="573" on="1"/>
      </contour>
      <contour>
        <pt x="150" y="-10" on="0"/>
        <pt x="45" y="129" on="0"/>
        <pt x="45" y="250" on="1"/>
        <pt x="45" y="383" on="0"/>
        <pt x="179" y="540" on="0"/>
        <pt x="310" y="540" on="1"/>
        <pt x="359" y="540" on="0"/>
        <pt x="405" y="524" on="1"/>
        <pt x="405" y="690" on="1"/>
        <pt x="320" y="710" on="1"/>
        <pt x="320" y="765" on="1"/>
        <pt x="505" y="770" on="1"/>
        <pt x="505" y="80" on="1"/>
        <pt x="590" y="60" on="1"/>
        <pt x="590" y="5" on="1"/>
        <pt x="420" y="0" on="1"/>
        <pt x="412" y="57" on="1"/>
        <pt x="345" y="-10" on="0"/>
        <pt x="255" y="-10" on="1"/>
      </contour>
      <contour>
        <pt x="313" y="70" on="0"/>
        <pt x="371" y="103" on="0"/>
        <pt x="405" y="142" on="0"/>
        <pt x="405" y="145" on="1"/>
        <pt x="405" y="440" on="1"/>
        <pt x="402" y="442" on="0"/>
        <pt x="378" y="451" on="0"/>
        <pt x="331" y="460" on="0"/>
        <pt x="300" y="460" on="1"/>
        <pt x="150" y="460" on="0"/>
        <pt x="150" y="260" on="1"/>
        <pt x="150" y="172" on="0"/>
        <pt x="211" y="70" on="0"/>
        <pt x="275" y="70" on="1"/>
      </contour>
    </TTGlyph>
    <TTGlyph name="dcroat" xMin="45" yMin="-10" xMax="590" yMax="770">
      <contour>
        <pt x="505" y="575" on="1"/>
        <pt x="505" y="80" on="1"/>
        <pt x="590" y="60" on="1"/>
        <pt x="590" y="5" on="1"/>
        <pt x="420" y="0" on="1"/>
        <pt x="412" y="57" on="1"/>
        <pt x="345" y="-10" on="0"/>
        <pt x="255" y="-10" on="1"/>
        <pt x="150" y="-10" on="0"/>
        <pt x="45" y="129" on="0"/>
        <pt x="45" y="250" on="1"/>
        <pt x="45" y="383" on="0"/>
        <pt x="179" y="540" on="0"/>
        <pt x="310" y="540" on="1"/>
        <pt x="359" y="540" on="0"/>
        <pt x="405" y="524" on="1"/>
        <pt x="405" y="575" on="1"/>
        <pt x="300" y="575" on="1"/>
        <pt x="300" y="650" on="1"/>
        <pt x="405" y="650" on="1"/>
        <pt x="405" y="690" on="1"/>
        <pt x="320" y="710" on="1"/>
        <pt x="320" y="765" on="1"/>
        <pt x="505" y="770" on="1"/>
        <pt x="505" y="650" on="1"/>
        <pt x="590" y="650" on="1"/>
        <pt x="590" y="575" on="1"/>
      </contour>
      <contour>
        <pt x="405" y="440" on="1"/>
        <pt x="402" y="442" on="0"/>
        <pt x="378" y="451" on="0"/>
        <pt x="331" y="460" on="0"/>
        <pt x="300" y="460" on="1"/>
        <pt x="150" y="460" on="0"/>
        <pt x="150" y="260" on="1"/>
        <pt x="150" y="172" on="0"/>
        <pt x="211" y="70" on="0"/>
        <pt x="275" y="70" on="1"/>
        <pt x="313" y="70" on="0"/>
        <pt x="371" y="103" on="0"/>
        <pt x="405" y="142" on="0"/>
        <pt x="405" y="145" on="1"/>
      </contour>
    </TTGlyph>
    <TTGlyph name="degree" xMin="50" yMin="435" xMax="360" yMax="735">
      <contour>
        <pt x="50" y="652" on="0"/>
        <pt x="137" y="735" on="0"/>
        <pt x="205" y="735" on="1"/>
        <pt x="274" y="735" on="0"/>
        <pt x="360" y="656" on="0"/>
        <pt x="360" y="590" on="1"/>
        <pt x="360" y="520" on="0"/>
        <pt x="273" y="435" on="0"/>
        <pt x="205" y="435" on="1"/>
        <pt x="136" y="435" on="0"/>
        <pt x="50" y="515" on="0"/>
        <pt x="50" y="585" on="1"/>
      </contour>
      <contour>
        <pt x="120" y="545" on="0"/>
        <pt x="164" y="495" on="0"/>
        <pt x="205" y="495" on="1"/>
        <pt x="246" y="495" on="0"/>
        <pt x="290" y="545" on="0"/>
        <pt x="290" y="590" on="1"/>
        <pt x="290" y="630" on="0"/>
        <pt x="243" y="675" on="0"/>
        <pt x="205" y="675" on="1"/>
        <pt x="167" y="675" on="0"/>
        <pt x="120" y="630" on="0"/>
        <pt x="120" y="590" on="1"/>
      </contour>
    </TTGlyph>
    <TTGlyph name="dieresis" xMin="100" yMin="640" xMax="415" yMax="760">
      <contour>
        <pt x="100" y="728" on="0"/>
        <pt x="132" y="760" on="0"/>
        <pt x="155" y="760" on="1"/>
        <pt x="181" y="760" on="0"/>
        <pt x="210" y="728" on="0"/>
        <pt x="210" y="700" on="1"/>
        <pt x="210" y="672" on="0"/>
        <pt x="178" y="640" on="0"/>
        <pt x="155" y="640" on="1"/>
        <pt x="129" y="640" on="0"/>
        <pt x="100" y="672" on="0"/>
        <pt x="100" y="700" on="1"/>
      </contour>
      <contour>
        <pt x="305" y="728" on="0"/>
        <pt x="337" y="760" on="0"/>
        <pt x="360" y="760" on="1"/>
        <pt x="386" y="760" on="0"/>
        <pt x="415" y="728" on="0"/>
        <pt x="415" y="700" on="1"/>
        <pt x="415" y="672" on="0"/>
        <pt x="383" y="640" on="0"/>
        <pt x="360" y="640" on="1"/>
        <pt x="334" y="640" on="0"/>
        <pt x="305" y="672" on="0"/>
        <pt x="305" y="700" on="1"/>
      </contour>
    </TTGlyph>
    <TTGlyph name="divide" xMin="50" yMin="-10" xMax="570" yMax="540">
      <contour>
        <pt x="245" y="503" on="0"/>
        <pt x="283" y="540" on="0"/>
        <pt x="310" y="540" on="1"/>
        <pt x="340" y="540" on="0"/>
        <pt x="375" y="503" on="0"/>
        <pt x="375" y="470" on="1"/>
        <pt x="375" y="438" on="0"/>
        <pt x="338" y="400" on="0"/>
        <pt x="310" y="400" on="1"/>
        <pt x="280" y="400" on="0"/>
        <pt x="245" y="437" on="0"/>
        <pt x="245" y="470" on="1"/>
      </contour>
      <contour>
        <pt x="50" y="305" on="1"/>
        <pt x="570" y="305" on="1"/>
        <pt x="570" y="225" on="1"/>
        <pt x="50" y="225" on="1"/>
      </contour>
      <contour>
        <pt x="245" y="93" on="0"/>
        <pt x="283" y="130" on="0"/>
        <pt x="310" y="130" on="1"/>
        <pt x="340" y="130" on="0"/>
        <pt x="375" y="93" on="0"/>
        <pt x="375" y="60" on="1"/>
        <pt x="375" y="28" on="0"/>
        <pt x="338" y="-10" on="0"/>
        <pt x="310" y="-10" on="1"/>
        <pt x="280" y="-10" on="0"/>
        <pt x="245" y="27" on="0"/>
        <pt x="245" y="60" on="1"/>
      </contour>
    </TTGlyph>
    <TTGlyph name="dollar" xMin="65" yMin="-140" xMax="490" yMax="750">
      <contour>
        <pt x="240" y="-10" on="1"/>
        <pt x="198" y="-9" on="0"/>
        <pt x="120" y="6" on="0"/>
        <pt x="71" y="22" on="0"/>
        <pt x="65" y="25" on="1"/>
        <pt x="65" y="185" on="1"/>
        <pt x="135" y="185" on="1"/>
        <pt x="155" y="93" on="1"/>
        <pt x="158" y="91" on="0"/>
        <pt x="182" y="82" on="0"/>
        <pt x="224" y="73" on="0"/>
        <pt x="250" y="73" on="1"/>
        <pt x="308" y="73" on="0"/>
        <pt x="391" y="120" on="0"/>
        <pt x="391" y="165" on="1"/>
        <pt x="391" y="194" on="0"/>
        <pt x="356" y="233" on="0"/>
        <pt x="304" y="258" on="0"/>
        <pt x="257" y="274" on="1"/>
        <pt x="196" y="295" on="0"/>
        <pt x="123" y="333" on="0"/>
        <pt x="70" y="404" on="0"/>
        <pt x="70" y="460" on="1"/>
        <pt x="70" y="536" on="0"/>
        <pt x="165" y="623" on="0"/>
        <pt x="240" y="634" on="1"/>
        <pt x="240" y="750" on="1"/>
        <pt x="315" y="750" on="1"/>
        <pt x="315" y="637" on="1"/>
        <pt x="351" y="634" on="0"/>
        <pt x="423" y="618" on="0"/>
        <pt x="469" y="602" on="0"/>
        <pt x="475" y="600" on="1"/>
        <pt x="470" y="450" on="1"/>
        <pt x="410" y="450" on="1"/>
        <pt x="385" y="540" on="1"/>
        <pt x="381" y="542" on="0"/>
        <pt x="354" y="551" on="0"/>
        <pt x="312" y="560" on="0"/>
        <pt x="290" y="560" on="1"/>
        <pt x="233" y="560" on="0"/>
        <pt x="170" y="511" on="0"/>
        <pt x="170" y="475" on="1"/>
        <pt x="170" y="446" on="0"/>
        <pt x="206" y="406" on="0"/>
        <pt x="260" y="380" on="0"/>
        <pt x="307" y="363" on="1"/>
        <pt x="365" y="342" on="0"/>
        <pt x="439" y="304" on="0"/>
        <pt x="490" y="237" on="0"/>
        <pt x="490" y="185" on="1"/>
        <pt x="490" y="106" on="0"/>
        <pt x="393" y="10" on="0"/>
        <pt x="315" y="-4" on="1"/>
        <pt x="315" y="-140" on="1"/>
        <pt x="240" y="-140" on="1"/>
      </contour>
    </TTGlyph>
    <TTGlyph name="dotaccent" xMin="90" yMin="640" xMax="200" yMax="760">
      <contour>
        <pt x="90" y="728" on="0"/>
        <pt x="122" y="760" on="0"/>
        <pt x="145" y="760" on="1"/>
        <pt x="171" y="760" on="0"/>
        <pt x="200" y="728" on="0"/>
        <pt x="200" y="700" on="1"/>
        <pt x="200" y="672" on="0"/>
        <pt x="168" y="640" on="0"/>
        <pt x="145" y="640" on="1"/>
        <pt x="119" y="640" on="0"/>
        <pt x="90" y="672" on="0"/>
        <pt x="90" y="700" on="1"/>
      </contour>
    </TTGlyph>
    <TTGlyph name="dotlessi" xMin="40" yMin="0" xMax="300" yMax="530">
      <contour>
        <pt x="40" y="0" on="1"/>
        <pt x="40" y="55" on="1"/>
        <pt x="125" y="80" on="1"/>
        <pt x="125" y="450" on="1"/>
        <pt x="40" y="470" on="1"/>
        <pt x="40" y="525" on="1"/>
        <pt x="225" y="530" on="1"/>
        <pt x="225" y="80" on="1"/>
        <pt x="300" y="55" on="1"/>
        <pt x="300" y="0" on="1"/>
      </contour>
    </TTGlyph>
    <TTGlyph name="e" xMin="40" yMin="-10" xMax="495" yMax="540">
      <contour>
        <pt x="162" y="-10" on="0"/>
        <pt x="40" y="133" on="0"/>
        <pt x="40" y="260" on="1"/>
        <pt x="40" y="339" on="0"/>
        <pt x="102" y="467" on="0"/>
        <pt x="214" y="540" on="0"/>
        <pt x="285" y="540" on="1"/>
        <pt x="495" y="540" on="0"/>
        <pt x="495" y="305" on="1"/>
        <pt x="495" y="289" on="0"/>
        <pt x="491" y="257" on="0"/>
        <pt x="490" y="252" on="1"/>
        <pt x="145" y="250" on="1"/>
        <pt x="145" y="168" on="0"/>
        <pt x="225" y="70" on="0"/>
        <pt x="290" y="70" on="1"/>
        <pt x="334" y="70" on="0"/>
        <pt x="409" y="94" on="0"/>
        <pt x="458" y="123" on="0"/>
        <pt x="458" y="125" on="1"/>
        <pt x="493" y="73" on="1"/>
        <pt x="493" y="71" on="0"/>
        <pt x="428" y="27" on="0"/>
        <pt x="333" y="-10" on="0"/>
        <pt x="280" y="-10" on="1"/>
      </contour>
      <contour>
        <pt x="389" y="325" on="1"/>
        <pt x="389" y="386" on="0"/>
        <pt x="337" y="462" on="0"/>
        <pt x="280" y="462" on="1"/>
        <pt x="222" y="462" on="0"/>
        <pt x="154" y="384" on="0"/>
        <pt x="149" y="325" on="1"/>
      </contour>
    </TTGlyph>
    <TTGlyph name="eacute" xMin="40" yMin="-10" xMax="495" yMax="800">
      <component glyphName="e" x="0" y="0" flags="0x0"/>
      <component glyphName="acute" x="175" y="0" flags="0x0"/>
    </TTGlyph>
    <TTGlyph name="ebreve" xMin="40" yMin="-10" xMax="495" yMax="765">
      <contour>
        <pt x="240" y="615" on="0"/>
        <pt x="177" y="648" on="0"/>
        <pt x="137" y="714" on="0"/>
        <pt x="136" y="760" on="1"/>
        <pt x="196" y="765" on="1"/>
        <pt x="204" y="727" on="0"/>
        <pt x="249" y="689" on="0"/>
        <pt x="277" y="689" on="1"/>
        <pt x="307" y="689" on="0"/>
        <pt x="352" y="728" on="0"/>
        <pt x="356" y="760" on="1"/>
        <pt x="416" y="765" on="1"/>
        <pt x="415" y="717" on="0"/>
        <pt x="375" y="649" on="0"/>
        <pt x="311" y="615" on="0"/>
        <pt x="275" y="615" on="1"/>
      </contour>
      <contour>
        <pt x="162" y="-10" on="0"/>
        <pt x="40" y="133" on="0"/>
        <pt x="40" y="260" on="1"/>
        <pt x="40" y="339" on="0"/>
        <pt x="102" y="467" on="0"/>
        <pt x="214" y="540" on="0"/>
        <pt x="285" y="540" on="1"/>
        <pt x="495" y="540" on="0"/>
        <pt x="495" y="305" on="1"/>
        <pt x="495" y="289" on="0"/>
        <pt x="491" y="257" on="0"/>
        <pt x="490" y="252" on="1"/>
        <pt x="145" y="250" on="1"/>
        <pt x="145" y="168" on="0"/>
        <pt x="225" y="70" on="0"/>
        <pt x="290" y="70" on="1"/>
        <pt x="334" y="70" on="0"/>
        <pt x="409" y="94" on="0"/>
        <pt x="458" y="123" on="0"/>
        <pt x="458" y="125" on="1"/>
        <pt x="493" y="73" on="1"/>
        <pt x="493" y="71" on="0"/>
        <pt x="428" y="27" on="0"/>
        <pt x="333" y="-10" on="0"/>
        <pt x="280" y="-10" on="1"/>
      </contour>
      <contour>
        <pt x="389" y="325" on="1"/>
        <pt x="389" y="386" on="0"/>
        <pt x="337" y="462" on="0"/>
        <pt x="280" y="462" on="1"/>
        <pt x="222" y="462" on="0"/>
        <pt x="154" y="384" on="0"/>
        <pt x="149" y="325" on="1"/>
      </contour>
    </TTGlyph>
    <TTGlyph name="ecaron" xMin="40" yMin="-10" xMax="495" yMax="785">
      <component glyphName="e" x="0" y="0" flags="0x0"/>
      <component glyphName="caron" x="100" y="0" flags="0x0"/>
    </TTGlyph>
    <TTGlyph name="ecircumflex" xMin="40" yMin="-10" xMax="495" yMax="785">
      <component glyphName="e" x="0" y="0" flags="0x0"/>
      <component glyphName="circumflex.x" x="11" y="-35" flags="0x4"/>
    </TTGlyph>
    <TTGlyph name="edieresis" xMin="40" yMin="-10" xMax="495" yMax="760">
      <component glyphName="e" x="0" y="0" flags="0x0"/>
      <component glyphName="dieresis" x="15" y="0" flags="0x0"/>
    </TTGlyph>
    <TTGlyph name="edotaccent" xMin="40" yMin="-10" xMax="495" yMax="760">
      <component glyphName="e" x="0" y="0" flags="0x0"/>
      <component glyphName="dotaccent" x="145" y="0" flags="0x0"/>
    </TTGlyph>
    <TTGlyph name="egrave" xMin="40" yMin="-10" xMax="495" yMax="800">
      <component glyphName="e" x="0" y="0" flags="0x0"/>
      <component glyphName="grave" x="135" y="0" flags="0x0"/>
    </TTGlyph>
    <TTGlyph name="eight" xMin="50" yMin="-10" xMax="540" yMax="710">
      <contour>
        <pt x="530" y="465" on="0"/>
        <pt x="447" y="388" on="0"/>
        <pt x="401" y="371" on="1"/>
        <pt x="466" y="344" on="0"/>
        <pt x="540" y="265" on="0"/>
        <pt x="540" y="200" on="1"/>
        <pt x="540" y="140" on="0"/>
        <pt x="479" y="44" on="0"/>
        <pt x="363" y="-10" on="0"/>
        <pt x="285" y="-10" on="1"/>
        <pt x="172" y="-10" on="0"/>
        <pt x="50" y="101" on="0"/>
        <pt x="50" y="190" on="1"/>
        <pt x="50" y="261" on="0"/>
        <pt x="142" y="347" on="0"/>
        <pt x="188" y="367" on="1"/>
        <pt x="132" y="395" on="0"/>
        <pt x="70" y="467" on="0"/>
        <pt x="70" y="525" on="1"/>
        <pt x="70" y="616" on="0"/>
        <pt x="198" y="710" on="0"/>
        <pt x="310" y="710" on="1"/>
        <pt x="416" y="710" on="0"/>
        <pt x="530" y="611" on="0"/>
        <pt x="530" y="530" on="1"/>
      </contour>
      <contour>
        <pt x="175" y="491" on="0"/>
        <pt x="213" y="445" on="0"/>
        <pt x="271" y="417" on="0"/>
        <pt x="318" y="400" on="1"/>
        <pt x="356" y="414" on="0"/>
        <pt x="425" y="476" on="0"/>
        <pt x="425" y="525" on="1"/>
        <pt x="425" y="571" on="0"/>
        <pt x="359" y="625" on="0"/>
        <pt x="300" y="625" on="1"/>
        <pt x="241" y="625" on="0"/>
        <pt x="175" y="571" on="0"/>
        <pt x="175" y="525" on="1"/>
      </contour>
      <contour>
        <pt x="430" y="230" on="0"/>
        <pt x="389" y="279" on="0"/>
        <pt x="328" y="310" on="0"/>
        <pt x="275" y="331" on="1"/>
        <pt x="232" y="311" on="0"/>
        <pt x="160" y="249" on="0"/>
        <pt x="160" y="195" on="1"/>
        <pt x="160" y="139" on="0"/>
        <pt x="231" y="76" on="0"/>
        <pt x="295" y="76" on="1"/>
        <pt x="359" y="76" on="0"/>
        <pt x="430" y="139" on="0"/>
        <pt x="430" y="195" on="1"/>
      </contour>
    </TTGlyph>
    <TTGlyph name="ellipsis" xMin="55" yMin="-10" xMax="665" yMax="130">
      <contour>
        <pt x="55" y="93" on="0"/>
        <pt x="93" y="130" on="0"/>
        <pt x="120" y="130" on="1"/>
        <pt x="150" y="130" on="0"/>
        <pt x="185" y="93" on="0"/>
        <pt x="185" y="60" on="1"/>
        <pt x="185" y="28" on="0"/>
        <pt x="148" y="-10" on="0"/>
        <pt x="120" y="-10" on="1"/>
        <pt x="90" y="-10" on="0"/>
        <pt x="55" y="27" on="0"/>
        <pt x="55" y="60" on="1"/>
      </contour>
      <contour>
        <pt x="295" y="93" on="0"/>
        <pt x="333" y="130" on="0"/>
        <pt x="360" y="130" on="1"/>
        <pt x="390" y="130" on="0"/>
        <pt x="425" y="93" on="0"/>
        <pt x="425" y="60" on="1"/>
        <pt x="425" y="28" on="0"/>
        <pt x="388" y="-10" on="0"/>
        <pt x="360" y="-10" on="1"/>
        <pt x="330" y="-10" on="0"/>
        <pt x="295" y="27" on="0"/>
        <pt x="295" y="60" on="1"/>
      </contour>
      <contour>
        <pt x="535" y="93" on="0"/>
        <pt x="573" y="130" on="0"/>
        <pt x="600" y="130" on="1"/>
        <pt x="630" y="130" on="0"/>
        <pt x="665" y="93" on="0"/>
        <pt x="665" y="60" on="1"/>
        <pt x="665" y="28" on="0"/>
        <pt x="628" y="-10" on="0"/>
        <pt x="600" y="-10" on="1"/>
        <pt x="570" y="-10" on="0"/>
        <pt x="535" y="27" on="0"/>
        <pt x="535" y="60" on="1"/>
      </contour>
    </TTGlyph>
    <TTGlyph name="emacron" xMin="40" yMin="-10" xMax="495" yMax="735">
      <component glyphName="e" x="0" y="0" flags="0x0"/>
      <component glyphName="macron" x="146" y="0" flags="0x0"/>
    </TTGlyph>
    <TTGlyph name="emdash" xMin="0" yMin="285" xMax="970" yMax="365">
      <contour>
        <pt x="0" y="365" on="1"/>
        <pt x="970" y="365" on="1"/>
        <pt x="970" y="285" on="1"/>
        <pt x="0" y="285" on="1"/>
      </contour>
    </TTGlyph>
    <TTGlyph name="endash" xMin="0" yMin="285" xMax="500" yMax="365">
      <contour>
        <pt x="0" y="365" on="1"/>
        <pt x="500" y="365" on="1"/>
        <pt x="500" y="285" on="1"/>
        <pt x="0" y="285" on="1"/>
      </contour>
    </TTGlyph>
    <TTGlyph name="eng" xMin="40" yMin="-240" xMax="560" yMax="540">
      <contour>
        <pt x="359" y="-240" on="0"/>
        <pt x="317" y="-236" on="0"/>
        <pt x="311" y="-235" on="1"/>
        <pt x="320" y="-165" on="1"/>
        <pt x="370" y="-165" on="1"/>
        <pt x="420" y="-165" on="0"/>
        <pt x="460" y="-114" on="0"/>
        <pt x="460" y="-65" on="1"/>
        <pt x="460" y="350" on="1"/>
        <pt x="460" y="404" on="0"/>
        <pt x="418" y="455" on="0"/>
        <pt x="370" y="455" on="1"/>
        <pt x="332" y="455" on="0"/>
        <pt x="268" y="419" on="0"/>
        <pt x="225" y="377" on="0"/>
        <pt x="225" y="375" on="1"/>
        <pt x="225" y="80" on="1"/>
        <pt x="290" y="55" on="1"/>
        <pt x="290" y="0" on="1"/>
        <pt x="40" y="0" on="1"/>
        <pt x="40" y="55" on="1"/>
        <pt x="125" y="80" on="1"/>
        <pt x="125" y="450" on="1"/>
        <pt x="40" y="470" on="1"/>
        <pt x="40" y="525" on="1"/>
        <pt x="205" y="530" on="1"/>
        <pt x="214" y="459" on="1"/>
        <pt x="245" y="486" on="0"/>
        <pt x="346" y="540" on="0"/>
        <pt x="400" y="540" on="1"/>
        <pt x="480" y="540" on="0"/>
        <pt x="560" y="445" on="0"/>
        <pt x="560" y="360" on="1"/>
        <pt x="560" y="-45" on="1"/>
        <pt x="560" y="-136" on="0"/>
        <pt x="464" y="-240" on="0"/>
        <pt x="375" y="-240" on="1"/>
      </contour>
    </TTGlyph>
    <TTGlyph name="eogonek" xMin="40" yMin="-220" xMax="495" yMax="540">
      <contour>
        <pt x="301" y="-220" on="0"/>
        <pt x="244" y="-169" on="0"/>
        <pt x="244" y="-125" on="1"/>
        <pt x="244" y="-68" on="0"/>
        <pt x="312" y="-7" on="1"/>
        <pt x="296" y="-10" on="0"/>
        <pt x="280" y="-10" on="1"/>
        <pt x="162" y="-10" on="0"/>
        <pt x="40" y="133" on="0"/>
        <pt x="40" y="260" on="1"/>
        <pt x="40" y="339" on="0"/>
        <pt x="102" y="467" on="0"/>
        <pt x="214" y="540" on="0"/>
        <pt x="285" y="540" on="1"/>
        <pt x="495" y="540" on="0"/>
        <pt x="495" y="305" on="1"/>
        <pt x="495" y="289" on="0"/>
        <pt x="491" y="257" on="0"/>
        <pt x="490" y="252" on="1"/>
        <pt x="145" y="250" on="1"/>
        <pt x="145" y="168" on="0"/>
        <pt x="225" y="70" on="0"/>
        <pt x="290" y="70" on="1"/>
        <pt x="334" y="70" on="0"/>
        <pt x="409" y="94" on="0"/>
        <pt x="458" y="123" on="0"/>
        <pt x="458" y="125" on="1"/>
        <pt x="493" y="73" on="1"/>
        <pt x="439" y="37" on="0"/>
        <pt x="324" y="-69" on="0"/>
        <pt x="324" y="-115" on="1"/>
        <pt x="324" y="-137" on="0"/>
        <pt x="349" y="-160" on="0"/>
        <pt x="369" y="-160" on="1"/>
        <pt x="382" y="-160" on="0"/>
        <pt x="410" y="-154" on="0"/>
        <pt x="414" y="-153" on="1"/>
        <pt x="424" y="-200" on="1"/>
        <pt x="421" y="-202" on="0"/>
        <pt x="397" y="-211" on="0"/>
        <pt x="362" y="-220" on="0"/>
        <pt x="344" y="-220" on="1"/>
      </contour>
      <contour>
        <pt x="389" y="325" on="1"/>
        <pt x="389" y="386" on="0"/>
        <pt x="337" y="462" on="0"/>
        <pt x="280" y="462" on="1"/>
        <pt x="222" y="462" on="0"/>
        <pt x="154" y="384" on="0"/>
        <pt x="149" y="325" on="1"/>
      </contour>
    </TTGlyph>
    <TTGlyph name="equal" xMin="55" yMin="135" xMax="545" yMax="410">
      <contour>
        <pt x="55" y="410" on="1"/>
        <pt x="545" y="410" on="1"/>
        <pt x="545" y="330" on="1"/>
        <pt x="55" y="330" on="1"/>
      </contour>
      <contour>
        <pt x="55" y="215" on="1"/>
        <pt x="545" y="215" on="1"/>
        <pt x="545" y="135" on="1"/>
        <pt x="55" y="135" on="1"/>
      </contour>
    </TTGlyph>
    <TTGlyph name="equivalence" xMin="55" yMin="0" xMax="545" yMax="410">
      <contour>
        <pt x="55" y="410" on="1"/>
        <pt x="545" y="410" on="1"/>
        <pt x="545" y="330" on="1"/>
        <pt x="55" y="330" on="1"/>
      </contour>
      <contour>
        <pt x="55" y="246" on="1"/>
        <pt x="545" y="246" on="1"/>
        <pt x="545" y="166" on="1"/>
        <pt x="55" y="166" on="1"/>
      </contour>
      <contour>
        <pt x="55" y="80" on="1"/>
        <pt x="545" y="80" on="1"/>
        <pt x="545" y="0" on="1"/>
        <pt x="55" y="0" on="1"/>
      </contour>
    </TTGlyph>
    <TTGlyph name="estimated" xMin="50" yMin="60" xMax="625" yMax="640">
      <contour>
        <pt x="171" y="163" on="1"/>
        <pt x="202" y="133" on="0"/>
        <pt x="288" y="101" on="0"/>
        <pt x="335" y="101" on="1"/>
        <pt x="399" y="101" on="0"/>
        <pt x="521" y="147" on="0"/>
        <pt x="559" y="186" on="1"/>
        <pt x="585" y="160" on="1"/>
        <pt x="543" y="115" on="0"/>
        <pt x="403" y="60" on="0"/>
        <pt x="335" y="60" on="1"/>
        <pt x="250" y="60" on="0"/>
        <pt x="121" y="130" on="0"/>
        <pt x="50" y="259" on="0"/>
        <pt x="50" y="345" on="1"/>
        <pt x="50" y="426" on="0"/>
        <pt x="129" y="561" on="0"/>
        <pt x="264" y="640" on="0"/>
        <pt x="345" y="640" on="1"/>
        <pt x="424" y="640" on="0"/>
        <pt x="552" y="567" on="0"/>
        <pt x="625" y="439" on="0"/>
        <pt x="625" y="360" on="1"/>
        <pt x="171" y="360" on="1"/>
      </contour>
      <contour>
        <pt x="245" y="600" on="0"/>
        <pt x="171" y="526" on="1"/>
        <pt x="171" y="395" on="1"/>
        <pt x="505" y="395" on="1"/>
        <pt x="505" y="535" on="1"/>
        <pt x="471" y="567" on="0"/>
        <pt x="394" y="600" on="0"/>
        <pt x="345" y="600" on="1"/>
      </contour>
    </TTGlyph>
    <TTGlyph name="eth" xMin="40" yMin="-10" xMax="530" yMax="783">
      <contour>
        <pt x="167" y="-10" on="0"/>
        <pt x="40" y="122" on="0"/>
        <pt x="40" y="245" on="1"/>
        <pt x="40" y="372" on="0"/>
        <pt x="172" y="515" on="0"/>
        <pt x="285" y="515" on="1"/>
        <pt x="354" y="515" on="0"/>
        <pt x="408" y="473" on="1"/>
        <pt x="372" y="572" on="0"/>
        <pt x="296" y="635" on="1"/>
        <pt x="165" y="565" on="1"/>
        <pt x="125" y="620" on="1"/>
        <pt x="233" y="678" on="1"/>
        <pt x="190" y="702" on="0"/>
        <pt x="135" y="720" on="1"/>
        <pt x="165" y="783" on="1"/>
        <pt x="246" y="764" on="0"/>
        <pt x="313" y="722" on="1"/>
        <pt x="425" y="783" on="1"/>
        <pt x="466" y="727" on="1"/>
        <pt x="372" y="676" on="1"/>
        <pt x="446" y="609" on="0"/>
        <pt x="530" y="403" on="0"/>
        <pt x="530" y="265" on="1"/>
        <pt x="530" y="183" on="0"/>
        <pt x="468" y="59" on="0"/>
        <pt x="354" y="-10" on="0"/>
        <pt x="280" y="-10" on="1"/>
      </contour>
      <contour>
        <pt x="358" y="70" on="0"/>
        <pt x="425" y="163" on="0"/>
        <pt x="425" y="255" on="1"/>
        <pt x="425" y="342" on="0"/>
        <pt x="362" y="435" on="0"/>
        <pt x="290" y="435" on="1"/>
        <pt x="145" y="435" on="0"/>
        <pt x="145" y="250" on="1"/>
        <pt x="145" y="165" on="0"/>
        <pt x="215" y="70" on="0"/>
        <pt x="285" y="70" on="1"/>
      </contour>
    </TTGlyph>
    <TTGlyph name="exclam" xMin="95" yMin="-10" xMax="225" yMax="750">
      <contour>
        <pt x="205" y="250" on="1"/>
        <pt x="120" y="245" on="1"/>
        <pt x="105" y="750" on="1"/>
        <pt x="220" y="750" on="1"/>
      </contour>
      <contour>
        <pt x="95" y="93" on="0"/>
        <pt x="133" y="130" on="0"/>
        <pt x="160" y="130" on="1"/>
        <pt x="190" y="130" on="0"/>
        <pt x="225" y="93" on="0"/>
        <pt x="225" y="60" on="1"/>
        <pt x="225" y="28" on="0"/>
        <pt x="188" y="-10" on="0"/>
        <pt x="160" y="-10" on="1"/>
        <pt x="130" y="-10" on="0"/>
        <pt x="95" y="27" on="0"/>
        <pt x="95" y="60" on="1"/>
      </contour>
    </TTGlyph>
    <TTGlyph name="exclamdbl" xMin="95" yMin="-10" xMax="450" yMax="750">
      <contour>
        <pt x="205" y="250" on="1"/>
        <pt x="120" y="245" on="1"/>
        <pt x="105" y="750" on="1"/>
        <pt x="220" y="750" on="1"/>
      </contour>
      <contour>
        <pt x="430" y="250" on="1"/>
        <pt x="345" y="245" on="1"/>
        <pt x="330" y="750" on="1"/>
        <pt x="445" y="750" on="1"/>
      </contour>
      <contour>
        <pt x="95" y="93" on="0"/>
        <pt x="133" y="130" on="0"/>
        <pt x="160" y="130" on="1"/>
        <pt x="190" y="130" on="0"/>
        <pt x="225" y="93" on="0"/>
        <pt x="225" y="60" on="1"/>
        <pt x="225" y="28" on="0"/>
        <pt x="188" y="-10" on="0"/>
        <pt x="160" y="-10" on="1"/>
        <pt x="130" y="-10" on="0"/>
        <pt x="95" y="27" on="0"/>
        <pt x="95" y="60" on="1"/>
      </contour>
      <contour>
        <pt x="320" y="93" on="0"/>
        <pt x="358" y="130" on="0"/>
        <pt x="385" y="130" on="1"/>
        <pt x="415" y="130" on="0"/>
        <pt x="450" y="93" on="0"/>
        <pt x="450" y="60" on="1"/>
        <pt x="450" y="28" on="0"/>
        <pt x="413" y="-10" on="0"/>
        <pt x="385" y="-10" on="1"/>
        <pt x="355" y="-10" on="0"/>
        <pt x="320" y="27" on="0"/>
        <pt x="320" y="60" on="1"/>
      </contour>
    </TTGlyph>
    <TTGlyph name="exclamdown" xMin="90" yMin="-210" xMax="220" yMax="550">
      <contour>
        <pt x="220" y="448" on="0"/>
        <pt x="183" y="410" on="0"/>
        <pt x="155" y="410" on="1"/>
        <pt x="125" y="410" on="0"/>
        <pt x="90" y="447" on="0"/>
        <pt x="90" y="480" on="1"/>
        <pt x="90" y="513" on="0"/>
        <pt x="128" y="550" on="0"/>
        <pt x="155" y="550" on="1"/>
        <pt x="185" y="550" on="0"/>
        <pt x="220" y="513" on="0"/>
        <pt x="220" y="480" on="1"/>
      </contour>
      <contour>
        <pt x="115" y="290" on="1"/>
        <pt x="200" y="295" on="1"/>
        <pt x="215" y="-210" on="1"/>
        <pt x="100" y="-210" on="1"/>
      </contour>
    </TTGlyph>
    <TTGlyph name="f" xMin="45" yMin="0" xMax="470" yMax="780">
      <contour>
        <pt x="50" y="55" on="1"/>
        <pt x="135" y="80" on="1"/>
        <pt x="135" y="450" on="1"/>
        <pt x="45" y="450" on="1"/>
        <pt x="45" y="515" on="1"/>
        <pt x="135" y="525" on="1"/>
        <pt x="135" y="585" on="1"/>
        <pt x="135" y="676" on="0"/>
        <pt x="231" y="780" on="0"/>
        <pt x="320" y="780" on="1"/>
        <pt x="362" y="780" on="0"/>
        <pt x="429" y="764" on="0"/>
        <pt x="470" y="746" on="0"/>
        <pt x="470" y="745" on="1"/>
        <pt x="470" y="620" on="1"/>
        <pt x="400" y="620" on="1"/>
        <pt x="385" y="700" on="1"/>
        <pt x="381" y="701" on="0"/>
        <pt x="347" y="705" on="0"/>
        <pt x="325" y="705" on="1"/>
        <pt x="275" y="705" on="0"/>
        <pt x="235" y="654" on="0"/>
        <pt x="235" y="605" on="1"/>
        <pt x="235" y="525" on="1"/>
        <pt x="367" y="525" on="1"/>
        <pt x="364" y="450" on="1"/>
        <pt x="235" y="450" on="1"/>
        <pt x="235" y="80" on="1"/>
        <pt x="335" y="55" on="1"/>
        <pt x="335" y="0" on="1"/>
        <pt x="50" y="0" on="1"/>
      </contour>
    </TTGlyph>
    <TTGlyph name="fi" xMin="45" yMin="0" xMax="655" yMax="780">
      <contour>
        <pt x="50" y="55" on="1"/>
        <pt x="135" y="80" on="1"/>
        <pt x="135" y="450" on="1"/>
        <pt x="45" y="450" on="1"/>
        <pt x="45" y="515" on="1"/>
        <pt x="135" y="525" on="1"/>
        <pt x="135" y="575" on="1"/>
        <pt x="135" y="678" on="0"/>
        <pt x="247" y="780" on="0"/>
        <pt x="365" y="780" on="1"/>
        <pt x="412" y="780" on="0"/>
        <pt x="501" y="765" on="0"/>
        <pt x="558" y="749" on="0"/>
        <pt x="565" y="746" on="1"/>
        <pt x="565" y="625" on="1"/>
        <pt x="485" y="625" on="1"/>
        <pt x="470" y="697" on="1"/>
        <pt x="462" y="698" on="0"/>
        <pt x="404" y="705" on="0"/>
        <pt x="370" y="705" on="1"/>
        <pt x="235" y="705" on="0"/>
        <pt x="235" y="595" on="1"/>
        <pt x="235" y="525" on="1"/>
        <pt x="580" y="530" on="1"/>
        <pt x="580" y="80" on="1"/>
        <pt x="655" y="55" on="1"/>
        <pt x="655" y="0" on="1"/>
        <pt x="405" y="0" on="1"/>
        <pt x="405" y="55" on="1"/>
        <pt x="480" y="80" on="1"/>
        <pt x="480" y="450" on="1"/>
        <pt x="235" y="450" on="1"/>
        <pt x="235" y="80" on="1"/>
        <pt x="317" y="55" on="1"/>
        <pt x="317" y="0" on="1"/>
        <pt x="50" y="0" on="1"/>
      </contour>
    </TTGlyph>
    <TTGlyph name="five" xMin="20" yMin="-10" xMax="480" yMax="700">
      <contour>
        <pt x="172" y="-10" on="0"/>
        <pt x="79" y="12" on="0"/>
        <pt x="20" y="38" on="0"/>
        <pt x="20" y="40" on="1"/>
        <pt x="50" y="120" on="1"/>
        <pt x="50" y="119" on="0"/>
        <pt x="105" y="95" on="0"/>
        <pt x="183" y="75" on="0"/>
        <pt x="225" y="75" on="1"/>
        <pt x="290" y="75" on="0"/>
        <pt x="370" y="150" on="0"/>
        <pt x="370" y="209" on="1"/>
        <pt x="370" y="271" on="0"/>
        <pt x="275" y="345" on="0"/>
        <pt x="174" y="345" on="1"/>
        <pt x="60" y="345" on="1"/>
        <pt x="73" y="700" on="1"/>
        <pt x="452" y="700" on="1"/>
        <pt x="449" y="615" on="1"/>
        <pt x="167" y="615" on="1"/>
        <pt x="158" y="425" on="1"/>
        <pt x="200" y="425" on="1"/>
        <pt x="343" y="425" on="0"/>
        <pt x="480" y="306" on="0"/>
        <pt x="480" y="210" on="1"/>
        <pt x="480" y="154" on="0"/>
        <pt x="420" y="53" on="0"/>
        <pt x="306" y="-10" on="0"/>
        <pt x="230" y="-10" on="1"/>
      </contour>
    </TTGlyph>
    <TTGlyph name="fiveeighths" xMin="43" yMin="-5" xMax="889" yMax="700">
      <contour>
        <pt x="145" y="274" on="0"/>
        <pt x="84" y="287" on="0"/>
        <pt x="48" y="302" on="0"/>
        <pt x="43" y="304" on="1"/>
        <pt x="61" y="366" on="1"/>
        <pt x="65" y="364" on="0"/>
        <pt x="99" y="353" on="0"/>
        <pt x="149" y="342" on="0"/>
        <pt x="173" y="342" on="1"/>
        <pt x="212" y="342" on="0"/>
        <pt x="261" y="377" on="0"/>
        <pt x="261" y="410" on="1"/>
        <pt x="261" y="446" on="0"/>
        <pt x="201" y="477" on="0"/>
        <pt x="142" y="477" on="1"/>
        <pt x="69" y="477" on="1"/>
        <pt x="77" y="700" on="1"/>
        <pt x="324" y="700" on="1"/>
        <pt x="322" y="633" on="1"/>
        <pt x="153" y="633" on="1"/>
        <pt x="148" y="542" on="1"/>
        <pt x="176" y="542" on="1"/>
        <pt x="251" y="542" on="0"/>
        <pt x="346" y="483" on="0"/>
        <pt x="346" y="420" on="1"/>
        <pt x="346" y="377" on="0"/>
        <pt x="300" y="310" on="0"/>
        <pt x="224" y="274" on="0"/>
        <pt x="181" y="274" on="1"/>
      </contour>
      <contour>
        <pt x="200" y="0" on="1"/>
        <pt x="605" y="700" on="1"/>
        <pt x="695" y="700" on="1"/>
        <pt x="290" y="0" on="1"/>
      </contour>
      <contour>
        <pt x="645" y="-5" on="0"/>
        <pt x="564" y="58" on="0"/>
        <pt x="564" y="114" on="1"/>
        <pt x="564" y="157" on="0"/>
        <pt x="623" y="207" on="0"/>
        <pt x="653" y="218" on="1"/>
        <pt x="618" y="233" on="0"/>
        <pt x="584" y="276" on="0"/>
        <pt x="584" y="312" on="1"/>
        <pt x="584" y="367" on="0"/>
        <pt x="665" y="425" on="0"/>
        <pt x="736" y="425" on="1"/>
        <pt x="805" y="425" on="0"/>
        <pt x="880" y="366" on="0"/>
        <pt x="880" y="315" on="1"/>
        <pt x="880" y="274" on="0"/>
        <pt x="828" y="230" on="0"/>
        <pt x="798" y="220" on="1"/>
        <pt x="840" y="205" on="0"/>
        <pt x="889" y="161" on="0"/>
        <pt x="889" y="123" on="1"/>
        <pt x="889" y="67" on="0"/>
        <pt x="796" y="-5" on="0"/>
        <pt x="720" y="-5" on="1"/>
      </contour>
      <contour>
        <pt x="761" y="250" on="0"/>
        <pt x="799" y="282" on="0"/>
        <pt x="799" y="308" on="1"/>
        <pt x="799" y="332" on="0"/>
        <pt x="765" y="360" on="0"/>
        <pt x="730" y="360" on="1"/>
        <pt x="697" y="360" on="0"/>
        <pt x="665" y="332" on="0"/>
        <pt x="665" y="310" on="1"/>
        <pt x="665" y="285" on="0"/>
        <pt x="700" y="256" on="0"/>
        <pt x="738" y="242" on="1"/>
      </contour>
      <contour>
        <pt x="761" y="61" on="0"/>
        <pt x="802" y="92" on="0"/>
        <pt x="802" y="120" on="1"/>
        <pt x="802" y="141" on="0"/>
        <pt x="781" y="167" on="0"/>
        <pt x="750" y="182" on="0"/>
        <pt x="714" y="195" on="1"/>
        <pt x="688" y="184" on="0"/>
        <pt x="651" y="153" on="0"/>
        <pt x="651" y="120" on="1"/>
        <pt x="651" y="92" on="0"/>
        <pt x="692" y="61" on="0"/>
        <pt x="725" y="61" on="1"/>
      </contour>
    </TTGlyph>
    <TTGlyph name="fl" xMin="45" yMin="0" xMax="672" yMax="780">
      <contour>
        <pt x="50" y="55" on="1"/>
        <pt x="135" y="80" on="1"/>
        <pt x="135" y="450" on="1"/>
        <pt x="45" y="450" on="1"/>
        <pt x="45" y="515" on="1"/>
        <pt x="135" y="525" on="1"/>
        <pt x="135" y="585" on="1"/>
        <pt x="135" y="678" on="0"/>
        <pt x="247" y="780" on="0"/>
        <pt x="345" y="780" on="1"/>
        <pt x="404" y="780" on="0"/>
        <pt x="558" y="772" on="0"/>
        <pt x="582" y="770" on="1"/>
        <pt x="582" y="80" on="1"/>
        <pt x="672" y="55" on="1"/>
        <pt x="672" y="0" on="1"/>
        <pt x="405" y="0" on="1"/>
        <pt x="405" y="55" on="1"/>
        <pt x="480" y="80" on="1"/>
        <pt x="480" y="695" on="1"/>
        <pt x="468" y="697" on="0"/>
        <pt x="389" y="705" on="0"/>
        <pt x="355" y="705" on="1"/>
        <pt x="302" y="705" on="0"/>
        <pt x="235" y="650" on="0"/>
        <pt x="235" y="605" on="1"/>
        <pt x="235" y="525" on="1"/>
        <pt x="367" y="525" on="1"/>
        <pt x="364" y="450" on="1"/>
        <pt x="235" y="450" on="1"/>
        <pt x="235" y="80" on="1"/>
        <pt x="317" y="55" on="1"/>
        <pt x="317" y="0" on="1"/>
        <pt x="50" y="0" on="1"/>
      </contour>
    </TTGlyph>
    <TTGlyph name="florin" xMin="-60" yMin="-200" xMax="420" yMax="780">
      <contour>
        <pt x="-11" y="-200" on="0"/>
        <pt x="-53" y="-195" on="0"/>
        <pt x="-60" y="-194" on="1"/>
        <pt x="-50" y="-120" on="1"/>
        <pt x="5" y="-120" on="1"/>
        <pt x="51" y="-120" on="0"/>
        <pt x="91" y="-73" on="0"/>
        <pt x="95" y="-25" on="1"/>
        <pt x="131" y="375" on="1"/>
        <pt x="45" y="375" on="1"/>
        <pt x="47" y="440" on="1"/>
        <pt x="138" y="450" on="1"/>
        <pt x="150" y="585" on="1"/>
        <pt x="158" y="677" on="0"/>
        <pt x="257" y="780" on="0"/>
        <pt x="345" y="780" on="1"/>
        <pt x="364" y="780" on="0"/>
        <pt x="413" y="775" on="0"/>
        <pt x="420" y="774" on="1"/>
        <pt x="415" y="700" on="1"/>
        <pt x="345" y="700" on="1"/>
        <pt x="299" y="700" on="0"/>
        <pt x="259" y="653" on="0"/>
        <pt x="255" y="605" on="1"/>
        <pt x="243" y="450" on="1"/>
        <pt x="385" y="450" on="1"/>
        <pt x="383" y="375" on="1"/>
        <pt x="236" y="375" on="1"/>
        <pt x="202" y="-5" on="1"/>
        <pt x="194" y="-97" on="0"/>
        <pt x="93" y="-200" on="0"/>
        <pt x="5" y="-200" on="1"/>
      </contour>
    </TTGlyph>
    <TTGlyph name="foundryicon" xMin="0" yMin="0" xMax="676" yMax="676">
      <contour>
        <pt x="47" y="0" on="0"/>
        <pt x="0" y="47" on="0"/>
        <pt x="0" y="92" on="1"/>
        <pt x="0" y="583" on="1"/>
        <pt x="0" y="629" on="0"/>
        <pt x="47" y="676" on="0"/>
        <pt x="92" y="676" on="1"/>
        <pt x="583" y="676" on="1"/>
        <pt x="629" y="676" on="0"/>
        <pt x="676" y="629" on="0"/>
        <pt x="676" y="583" on="1"/>
        <pt x="676" y="92" on="1"/>
        <pt x="676" y="47" on="0"/>
        <pt x="629" y="0" on="0"/>
        <pt x="583" y="0" on="1"/>
        <pt x="92" y="0" on="1"/>
      </contour>
      <contour>
        <pt x="201" y="416" on="0"/>
        <pt x="199" y="416" on="1"/>
        <pt x="193" y="416" on="0"/>
        <pt x="193" y="425" on="1"/>
        <pt x="193" y="561" on="1"/>
        <pt x="107" y="561" on="1"/>
        <pt x="107" y="161" on="1"/>
        <pt x="193" y="161" on="1"/>
        <pt x="193" y="370" on="1"/>
        <pt x="193" y="378" on="0"/>
        <pt x="205" y="384" on="0"/>
        <pt x="220" y="384" on="1"/>
        <pt x="270" y="384" on="0"/>
        <pt x="270" y="319" on="1"/>
        <pt x="270" y="161" on="1"/>
        <pt x="356" y="161" on="1"/>
        <pt x="356" y="368" on="1"/>
        <pt x="356" y="405" on="0"/>
        <pt x="305" y="452" on="0"/>
        <pt x="266" y="452" on="1"/>
        <pt x="210" y="419" on="1"/>
      </contour>
      <contour>
        <pt x="419" y="403" on="1"/>
        <pt x="432" y="403" on="0"/>
        <pt x="432" y="392" on="1"/>
        <pt x="432" y="239" on="1"/>
        <pt x="432" y="203" on="0"/>
        <pt x="483" y="154" on="0"/>
        <pt x="522" y="154" on="1"/>
        <pt x="595" y="197" on="1"/>
        <pt x="595" y="226" on="1"/>
        <pt x="577" y="221" on="0"/>
        <pt x="564" y="221" on="1"/>
        <pt x="540" y="221" on="0"/>
        <pt x="518" y="253" on="0"/>
        <pt x="518" y="288" on="1"/>
        <pt x="518" y="392" on="1"/>
        <pt x="518" y="403" on="0"/>
        <pt x="529" y="403" on="1"/>
        <pt x="596" y="403" on="1"/>
        <pt x="596" y="445" on="1"/>
        <pt x="529" y="445" on="1"/>
        <pt x="518" y="445" on="0"/>
        <pt x="518" y="457" on="1"/>
        <pt x="518" y="489" on="1"/>
        <pt x="493" y="489" on="1"/>
        <pt x="390" y="424" on="1"/>
        <pt x="390" y="403" on="1"/>
      </contour>
    </TTGlyph>
    <TTGlyph name="four" xMin="20" yMin="0" xMax="570" yMax="715">
      <contour>
        <pt x="352" y="0" on="1"/>
        <pt x="352" y="165" on="1"/>
        <pt x="30" y="165" on="1"/>
        <pt x="20" y="240" on="1"/>
        <pt x="340" y="715" on="1"/>
        <pt x="455" y="700" on="1"/>
        <pt x="455" y="250" on="1"/>
        <pt x="570" y="250" on="1"/>
        <pt x="570" y="165" on="1"/>
        <pt x="455" y="165" on="1"/>
        <pt x="455" y="0" on="1"/>
      </contour>
      <contour>
        <pt x="130" y="250" on="1"/>
        <pt x="352" y="250" on="1"/>
        <pt x="352" y="580" on="1"/>
      </contour>
    </TTGlyph>
    <TTGlyph name="fraction" xMin="-15" yMin="-45" xMax="575" yMax="750">
      <contour>
        <pt x="55" y="-45" on="1"/>
        <pt x="-15" y="0" on="1"/>
        <pt x="505" y="750" on="1"/>
        <pt x="575" y="705" on="1"/>
      </contour>
    </TTGlyph>
    <TTGlyph name="franc" xMin="40" yMin="0" xMax="535" yMax="700">
      <contour>
        <pt x="40" y="0" on="1"/>
        <pt x="40" y="60" on="1"/>
        <pt x="125" y="80" on="1"/>
        <pt x="125" y="166" on="1"/>
        <pt x="41" y="166" on="1"/>
        <pt x="41" y="241" on="1"/>
        <pt x="125" y="241" on="1"/>
        <pt x="125" y="620" on="1"/>
        <pt x="40" y="640" on="1"/>
        <pt x="40" y="695" on="1"/>
        <pt x="230" y="700" on="1"/>
        <pt x="535" y="700" on="1"/>
        <pt x="535" y="535" on="1"/>
        <pt x="470" y="535" on="1"/>
        <pt x="445" y="620" on="1"/>
        <pt x="230" y="620" on="1"/>
        <pt x="230" y="400" on="1"/>
        <pt x="460" y="400" on="1"/>
        <pt x="460" y="320" on="1"/>
        <pt x="230" y="320" on="1"/>
        <pt x="230" y="241" on="1"/>
        <pt x="355" y="241" on="1"/>
        <pt x="355" y="166" on="1"/>
        <pt x="230" y="166" on="1"/>
        <pt x="230" y="80" on="1"/>
        <pt x="330" y="60" on="1"/>
        <pt x="330" y="0" on="1"/>
      </contour>
    </TTGlyph>
    <TTGlyph name="g" xMin="45" yMin="-250" xMax="560" yMax="540">
      <contour>
        <pt x="172" y="-250" on="0"/>
        <pt x="45" y="-183" on="0"/>
        <pt x="45" y="-105" on="1"/>
        <pt x="45" y="-65" on="0"/>
        <pt x="92" y="-9" on="0"/>
        <pt x="150" y="22" on="0"/>
        <pt x="150" y="20" on="1"/>
        <pt x="150" y="19" on="0"/>
        <pt x="117" y="29" on="0"/>
        <pt x="90" y="54" on="0"/>
        <pt x="90" y="77" on="1"/>
        <pt x="90" y="92" on="0"/>
        <pt x="113" y="142" on="0"/>
        <pt x="138" y="184" on="0"/>
        <pt x="142" y="190" on="1"/>
        <pt x="142" y="187" on="0"/>
        <pt x="99" y="223" on="0"/>
        <pt x="65" y="292" on="0"/>
        <pt x="65" y="345" on="1"/>
        <pt x="65" y="440" on="0"/>
        <pt x="184" y="540" on="0"/>
        <pt x="285" y="540" on="1"/>
        <pt x="314" y="540" on="0"/>
        <pt x="358" y="532" on="0"/>
        <pt x="382" y="523" on="0"/>
        <pt x="385" y="521" on="1"/>
        <pt x="560" y="525" on="1"/>
        <pt x="560" y="470" on="1"/>
        <pt x="463" y="456" on="1"/>
        <pt x="465" y="453" on="0"/>
        <pt x="478" y="429" on="0"/>
        <pt x="490" y="384" on="0"/>
        <pt x="490" y="355" on="1"/>
        <pt x="490" y="257" on="0"/>
        <pt x="372" y="160" on="0"/>
        <pt x="270" y="160" on="1"/>
        <pt x="242" y="160" on="0"/>
        <pt x="200" y="167" on="0"/>
        <pt x="195" y="169" on="1"/>
        <pt x="190" y="75" on="1"/>
        <pt x="345" y="75" on="1"/>
        <pt x="443" y="75" on="0"/>
        <pt x="545" y="1" on="0"/>
        <pt x="545" y="-70" on="1"/>
        <pt x="545" y="-155" on="0"/>
        <pt x="413" y="-250" on="0"/>
        <pt x="285" y="-250" on="1"/>
      </contour>
      <contour>
        <pt x="335" y="230" on="0"/>
        <pt x="390" y="287" on="0"/>
        <pt x="390" y="350" on="1"/>
        <pt x="390" y="408" on="0"/>
        <pt x="335" y="470" on="0"/>
        <pt x="280" y="470" on="1"/>
        <pt x="221" y="470" on="0"/>
        <pt x="165" y="411" on="0"/>
        <pt x="165" y="350" on="1"/>
        <pt x="165" y="295" on="0"/>
        <pt x="221" y="230" on="0"/>
        <pt x="275" y="230" on="1"/>
      </contour>
      <contour>
        <pt x="376" y="-175" on="0"/>
        <pt x="450" y="-128" on="0"/>
        <pt x="450" y="-80" on="1"/>
        <pt x="450" y="-34" on="0"/>
        <pt x="385" y="0" on="0"/>
        <pt x="320" y="0" on="1"/>
        <pt x="210" y="0" on="1"/>
        <pt x="210" y="2" on="0"/>
        <pt x="174" y="-23" on="0"/>
        <pt x="145" y="-63" on="0"/>
        <pt x="145" y="-90" on="1"/>
        <pt x="145" y="-139" on="0"/>
        <pt x="222" y="-175" on="0"/>
        <pt x="300" y="-175" on="1"/>
      </contour>
    </TTGlyph>
    <TTGlyph name="gbreve" xMin="45" yMin="-250" xMax="560" yMax="765">
      <component glyphName="g" x="0" y="0" flags="0x0"/>
      <component glyphName="breve" x="67" y="0" flags="0x0"/>
    </TTGlyph>
    <TTGlyph name="gcircumflex" xMin="45" yMin="-250" xMax="560" yMax="786">
      <component glyphName="g" x="0" y="0" flags="0x0"/>
      <component glyphName="circumflex.x" x="40" y="-34" flags="0x4"/>
    </TTGlyph>
    <TTGlyph name="gcommaaccent" xMin="45" yMin="-250" xMax="560" yMax="806">
      <component glyphName="g" x="0" y="0" flags="0x0"/>
      <component glyphName="uni0326" x="430" y="856" flags="0x4"/>
    </TTGlyph>
    <TTGlyph name="gdotaccent" xMin="45" yMin="-250" xMax="560" yMax="760">
      <component glyphName="g" x="0" y="0" flags="0x0"/>
      <component glyphName="dotaccent" x="137" y="0" flags="0x0"/>
    </TTGlyph>
    <TTGlyph name="germandbls" xMin="30" yMin="-10" xMax="685" yMax="780">
      <contour>
        <pt x="440" y="-10" on="0"/>
        <pt x="375" y="0" on="0"/>
        <pt x="336" y="10" on="0"/>
        <pt x="331" y="12" on="1"/>
        <pt x="330" y="156" on="1"/>
        <pt x="395" y="156" on="1"/>
        <pt x="410" y="75" on="1"/>
        <pt x="410" y="74" on="0"/>
        <pt x="443" y="65" on="0"/>
        <pt x="468" y="65" on="1"/>
        <pt x="516" y="65" on="0"/>
        <pt x="580" y="103" on="0"/>
        <pt x="580" y="142" on="1"/>
        <pt x="580" y="175" on="0"/>
        <pt x="534" y="212" on="0"/>
        <pt x="485" y="235" on="1"/>
        <pt x="443" y="253" on="0"/>
        <pt x="388" y="287" on="0"/>
        <pt x="350" y="348" on="0"/>
        <pt x="350" y="395" on="1"/>
        <pt x="350" y="437" on="0"/>
        <pt x="387" y="489" on="0"/>
        <pt x="423" y="519" on="1"/>
        <pt x="454" y="544" on="0"/>
        <pt x="485" y="585" on="0"/>
        <pt x="485" y="615" on="1"/>
        <pt x="485" y="663" on="0"/>
        <pt x="411" y="705" on="0"/>
        <pt x="355" y="705" on="1"/>
        <pt x="302" y="705" on="0"/>
        <pt x="235" y="648" on="0"/>
        <pt x="235" y="600" on="1"/>
        <pt x="235" y="0" on="1"/>
        <pt x="50" y="0" on="1"/>
        <pt x="50" y="55" on="1"/>
        <pt x="135" y="80" on="1"/>
        <pt x="135" y="450" on="1"/>
        <pt x="30" y="450" on="1"/>
        <pt x="30" y="515" on="1"/>
        <pt x="135" y="525" on="1"/>
        <pt x="135" y="580" on="1"/>
        <pt x="135" y="673" on="0"/>
        <pt x="252" y="780" on="0"/>
        <pt x="350" y="780" on="1"/>
        <pt x="457" y="780" on="0"/>
        <pt x="585" y="704" on="0"/>
        <pt x="585" y="625" on="1"/>
        <pt x="585" y="582" on="0"/>
        <pt x="546" y="526" on="0"/>
        <pt x="509" y="493" on="1"/>
        <pt x="481" y="468" on="0"/>
        <pt x="454" y="433" on="0"/>
        <pt x="454" y="410" on="1"/>
        <pt x="454" y="376" on="0"/>
        <pt x="502" y="338" on="0"/>
        <pt x="552" y="316" on="1"/>
        <pt x="595" y="296" on="0"/>
        <pt x="648" y="263" on="0"/>
        <pt x="685" y="205" on="0"/>
        <pt x="685" y="162" on="1"/>
        <pt x="685" y="112" on="0"/>
        <pt x="626" y="34" on="0"/>
        <pt x="530" y="-10" on="0"/>
        <pt x="478" y="-10" on="1"/>
      </contour>
    </TTGlyph>
    <TTGlyph name="grave" xMin="0" yMin="595" xMax="245" yMax="800">
      <contour>
        <pt x="0" y="725" on="1"/>
        <pt x="50" y="800" on="1"/>
        <pt x="245" y="645" on="1"/>
        <pt x="210" y="595" on="1"/>
      </contour>
    </TTGlyph>
    <TTGlyph name="grave.Cup" xMin="0" yMin="735" xMax="235" yMax="935">
      <contour>
        <pt x="0" y="860" on="1"/>
        <pt x="50" y="935" on="1"/>
        <pt x="235" y="790" on="1"/>
        <pt x="195" y="735" on="1"/>
      </contour>
    </TTGlyph>
    <TTGlyph name="grave.x" xMin="0" yMin="600" xMax="245" yMax="805">
      <contour>
        <pt x="0" y="730" on="1"/>
        <pt x="50" y="805" on="1"/>
        <pt x="245" y="650" on="1"/>
        <pt x="210" y="600" on="1"/>
      </contour>
    </TTGlyph>
    <TTGlyph name="greater" xMin="50" yMin="-5" xMax="560" yMax="530">
      <contour>
        <pt x="450" y="265" on="1"/>
        <pt x="50" y="445" on="1"/>
        <pt x="50" y="530" on="1"/>
        <pt x="560" y="300" on="1"/>
        <pt x="560" y="230" on="1"/>
        <pt x="50" y="-5" on="1"/>
        <pt x="50" y="80" on="1"/>
      </contour>
    </TTGlyph>
    <TTGlyph name="greaterequal" xMin="55" yMin="0" xMax="560" yMax="550">
      <contour>
        <pt x="450" y="345" on="1"/>
        <pt x="55" y="470" on="1"/>
        <pt x="55" y="550" on="1"/>
        <pt x="560" y="380" on="1"/>
        <pt x="560" y="310" on="1"/>
        <pt x="55" y="135" on="1"/>
        <pt x="55" y="215" on="1"/>
      </contour>
      <contour>
        <pt x="560" y="0" on="1"/>
        <pt x="55" y="0" on="1"/>
        <pt x="55" y="78" on="1"/>
        <pt x="560" y="78" on="1"/>
      </contour>
    </TTGlyph>
</ttFont>
